<svg width="100" height="106" viewBox="0 0 100 106" fill="none" xmlns="http://www.w3.org/2000/svg">
<rect width="100" height="106" fill="#EBEBEB"/>
<path d="M35 38L65 68" stroke="#0B0C0C" stroke-width="2" stroke-linecap="round" stroke-linejoin="round"/>
<path d="M37.385 40.385C36.8216 40.945 36.5033 41.7056 36.5 42.5V63.5C36.5 65.15 37.85 66.5 39.5 66.5H60.5C61.2944 66.4967 62.055 66.1784 62.615 65.615M45.5 39.5H60.5C61.2956 39.5 62.0587 39.8161 62.6213 40.3787C63.1839 40.9413 63.5 41.7044 63.5 42.5V57.5L45.5 39.5Z" stroke="#0B0C0C" stroke-width="2" stroke-linecap="round" stroke-linejoin="round"/>
<path d="M46.34 49.3399C45.9135 49.7374 45.3493 49.9537 44.7664 49.9434C44.1835 49.9332 43.6274 49.697 43.2151 49.2848C42.8029 48.8725 42.5668 48.3164 42.5565 47.7335C42.5462 47.1506 42.7626 46.5864 43.16 46.1599" stroke="#0B0C0C" stroke-width="2" stroke-linecap="round" stroke-linejoin="round"/>
<path d="M39.5 66.5L51.5 54.5M63.5 57.5L56 50L63.5 57.5Z" stroke="#0B0C0C" stroke-width="2" stroke-linecap="round" stroke-linejoin="round"/>
</svg>
