<svg width="36" height="36" viewBox="0 0 36 36" fill="none" xmlns="http://www.w3.org/2000/svg">
<path d="M3 3L33 33" stroke="#0B0C0C" stroke-width="2" stroke-linecap="round" stroke-linejoin="round"/>
<path d="M5.385 5.385C4.82162 5.94503 4.50335 6.70563 4.5 7.5V28.5C4.5 30.15 5.85 31.5 7.5 31.5H28.5C29.2944 31.4967 30.055 31.1784 30.615 30.615M13.5 4.5H28.5C29.2956 4.5 30.0587 4.81607 30.6213 5.37868C31.1839 5.94129 31.5 6.70435 31.5 7.5V22.5L13.5 4.5Z" stroke="#0B0C0C" stroke-width="2" stroke-linecap="round" stroke-linejoin="round"/>
<path d="M14.34 14.3399C13.9135 14.7374 13.3493 14.9537 12.7664 14.9434C12.1835 14.9332 11.6274 14.697 11.2151 14.2848C10.8029 13.8725 10.5668 13.3164 10.5565 12.7335C10.5462 12.1506 10.7626 11.5864 11.16 11.1599" stroke="#0B0C0C" stroke-width="2" stroke-linecap="round" stroke-linejoin="round"/>
<path d="M7.5 31.5L19.5 19.5M31.5 22.5L24 15L31.5 22.5Z" stroke="#0B0C0C" stroke-width="2" stroke-linecap="round" stroke-linejoin="round"/>
</svg>
