<!-- Generated by IcoMoon.io -->
<svg version="1.1" xmlns="http://www.w3.org/2000/svg" width="32" height="32" viewBox="0 0 32 32">
<title>mmci</title>
<path d="M6.109 23.938l17.281-16.578 1.594 1.656-2.391 2.313q1.125 1.188 1.781 2.719t0.656 3.266q0 1.797-0.695 3.375t-1.859 2.75-2.75 1.859-3.367 0.688q-1.828 0-3.445-0.727t-2.836-1.93l-2.359 2.266zM11.781 21.719q0.859 0.922 2.047 1.422t2.531 0.5q1.313 0 2.461-0.492t2.016-1.359 1.359-2.016 0.492-2.461q0-1.281-0.461-2.406t-1.305-1.984l-1.281 1.25q0.578 0.641 0.914 1.422t0.336 1.719q0 0.953-0.352 1.789t-0.977 1.453-1.453 0.969-1.75 0.352q-0.984 0-1.82-0.367t-1.477-1.008zM14.719 18.906q0.672 0.672 1.641 0.672 0.922 0 1.578-0.672t0.656-1.594q0-0.453-0.18-0.836t-0.461-0.711z"></path>
</svg>
