<!-- Generated by IcoMoon.io -->
<svg version="1.1" xmlns="http://www.w3.org/2000/svg" width="32" height="32" viewBox="0 0 32 32">
<title>mfsl</title>
<path d="M4.578 10.266q0-0.953 0.367-1.82t1.008-1.492 1.5-0.992 1.828-0.367q0.984 0 1.836 0.367t1.492 0.992 1.008 1.492 0.367 1.82q0 0.984-0.367 1.836t-1.008 1.492-1.492 1.008-1.836 0.367q-0.953 0-1.82-0.367t-1.508-1.008-1.008-1.492-0.367-1.836zM6.875 10.266q0 1.031 0.703 1.719t1.703 0.688q1.031 0 1.695-0.688t0.664-1.719q0-0.984-0.672-1.68t-1.688-0.695q-0.984 0-1.695 0.695t-0.711 1.68zM11.578 22.516q0-0.953 0.367-1.82t1.023-1.508 1.523-1.008 1.82-0.367 1.805 0.367 1.508 1.008 1.031 1.508 0.375 1.82q0 0.984-0.375 1.836t-1.031 1.492-1.5 1.008-1.813 0.367q-0.953 0-1.82-0.367t-1.523-1.008-1.023-1.484-0.367-1.844zM13.922 22.516q0 1.031 0.703 1.719t1.688 0.688 1.68-0.688 0.695-1.719q0-0.984-0.688-1.672t-1.688-0.688q-0.984 0-1.688 0.688t-0.703 1.672zM18.688 10.266q0-0.953 0.367-1.82t1.008-1.492 1.492-0.992 1.836-0.367q0.953 0 1.82 0.367t1.508 0.992 1.008 1.492 0.367 1.82q0 0.984-0.367 1.836t-1.008 1.492-1.5 1.008-1.828 0.367q-0.984 0-1.836-0.367t-1.492-1.008-1.008-1.492-0.367-1.836zM21.031 10.266q0 1.031 0.672 1.719t1.688 0.688q0.984 0 1.695-0.688t0.711-1.719q0-0.984-0.703-1.68t-1.703-0.695q-1.031 0-1.695 0.695t-0.664 1.68z"></path>
</svg>
