<!-- Generated by IcoMoon.io -->
<svg version="1.1" xmlns="http://www.w3.org/2000/svg" width="32" height="32" viewBox="0 0 32 32">
<title>mfcp</title>
<path d="M7.141 13.781q0-1.063 0.414-2t1.117-1.641 1.641-1.102 2-0.398q1.219 0 2.258 0.508t1.789 1.398q0.734-0.891 1.773-1.398t2.258-0.508q1.094 0 2.031 0.398t1.641 1.102 1.102 1.648 0.398 1.992q0 0.953-0.336 1.836t-0.906 1.555-1.375 1.141-1.727 0.625q0.313 0.828 0.313 1.859 0 1.063-0.414 2t-1.117 1.641-1.648 1.125-1.992 0.422q-1.094 0-2.039-0.422t-1.648-1.125-1.102-1.648-0.398-1.992q0-0.484 0.078-0.945t0.234-0.914q-0.922-0.156-1.711-0.625t-1.375-1.141-0.922-1.547-0.336-1.844zM9.438 13.781q0 1.219 0.836 2.055t2.039 0.836q0.703 0 1.344-0.359l1.156 1.984q-0.641 0.453-0.992 1.109t-0.352 1.391q0 1.188 0.836 2.016t2.055 0.828 2.047-0.828 0.828-2.016q0-0.734-0.352-1.391t-0.992-1.109l1.078-1.984q0.766 0.359 1.422 0.359 1.219 0 2.047-0.836t0.828-2.055q0-1.188-0.836-2.016t-2.039-0.828q-1.219 0-2.055 0.836t-0.836 2.008h-2.297q0-1.188-0.852-2.016t-2.039-0.828q-1.219 0-2.047 0.836t-0.828 2.008z"></path>
</svg>
