<!-- Generated by IcoMoon.io -->
<svg version="1.1" xmlns="http://www.w3.org/2000/svg" width="32" height="32" viewBox="0 0 32 32">
<title>pppl</title>
<path d="M6.75 17.313l4.766-8.328h9.641l4.766 8.328-4.766 8.281h-9.641zM9.406 17.313q0.891 1.594 1.68 2.969t1.742 3.016h7.016q0.891-1.563 1.672-2.961t1.75-3.023q-0.922-1.563-1.695-2.977t-1.727-3.039h-7.016q-0.453 0.797-0.867 1.531t-0.828 1.453-0.828 1.469-0.898 1.563zM14.109 17.313q0-0.922 0.641-1.602t1.563-0.68 1.586 0.68 0.664 1.602-0.656 1.547-1.594 0.625q-0.922 0-1.563-0.625t-0.641-1.547z"></path>
</svg>
