<!-- Generated by IcoMoon.io -->
<svg version="1.1" xmlns="http://www.w3.org/2000/svg" width="32" height="32" viewBox="0 0 32 32">
<title>mf</title>
<path d="M7.688 17.313q0-1.797 0.672-3.383t1.852-2.75 2.766-1.852 3.383-0.688 3.375 0.688 2.742 1.852 1.859 2.75 0.695 3.383-0.695 3.375-1.859 2.75-2.75 1.859-3.367 0.688q-1.797 0-3.383-0.688t-2.766-1.859-1.852-2.75-0.672-3.375zM9.984 17.313q0 1.313 0.492 2.461t1.359 2.016 2.039 1.359 2.484 0.492 2.461-0.492 2.016-1.359 1.359-2.016 0.492-2.461-0.492-2.484-1.359-2.031-2.023-1.359-2.453-0.5q-1.313 0-2.484 0.5t-2.039 1.359-1.359 2.031-0.492 2.484z"></path>
</svg>
