<!-- Generated by IcoMoon.io -->
<svg version="1.1" xmlns="http://www.w3.org/2000/svg" width="32" height="32" viewBox="0 0 32 32">
<title>ppir</title>
<path d="M5.188 25.141q1.156-2.656 2.391-5.141 0.516-1.063 1.109-2.195t1.203-2.242 1.234-2.117 1.234-1.805q1.344-1.766 3.117-2.656t3.664-0.891q1.859 0 3.602 0.891t2.992 2.719l1.781 2.688-1.953 1.25q-0.281-0.484-0.609-0.922-0.25-0.391-0.57-0.836t-0.57-0.867q-0.859-1.344-2.094-1.984t-2.578-0.641-2.656 0.688-2.313 1.938q-0.859 1.188-1.781 2.813h6.516v2.313h-7.766q-0.797 1.469-1.477 2.875t-1.211 2.531q-0.609 1.313-1.156 2.5z"></path>
</svg>
