<svg width="8" height="10" viewBox="0 0 8 10" fill="none" xmlns="http://www.w3.org/2000/svg">
<path d="M6.66293 8.2633C6.28432 7.85798 5.6854 7.04162 5.6854 7.04162C6.2147 6.89285 6.68964 6.622 7.06729 6.24243C7.67289 5.6397 8.00286 4.7852 8 3.86489C8.00858 2.9093 7.58896 2.05098 6.92615 1.51215C6.2662 0.968547 5.41646 0.71582 4.53049 0.71582H2.97026C1.50539 0.719635 0.320915 1.90411 0.317101 3.36898V9.9189H2.08619V8.06016C2.08619 7.5795 2.49055 7.17609 2.97026 7.17514H3.67503L5.57764 9.50595L5.71115 9.66998C5.85516 9.80827 6.04399 9.89887 6.25475 9.91603V9.91794H6.29386C6.30625 9.91794 6.31865 9.91985 6.33105 9.91985C6.34345 9.91985 6.35489 9.9189 6.36729 9.91794H7.41348L7.41634 8.48741C7.41634 8.48741 6.98432 8.60758 6.66293 8.2633V8.2633ZM4.69071 5.40605H2.97026C2.65935 5.40605 2.36276 5.53289 2.08619 5.63112V3.36898C2.08619 2.88832 2.49055 2.48491 2.97026 2.48396H4.53049C5.08172 2.48396 5.52423 2.64513 5.79794 2.87497C6.06783 3.10957 6.22233 3.38424 6.23091 3.86585C6.22805 4.3837 6.06306 4.74133 5.81606 4.99215C5.56524 5.24011 5.20761 5.40414 4.68975 5.407L4.69071 5.40605Z" fill="white"/>
</svg>
