<svg width="8" height="10" viewBox="0 0 8 10" fill="none" xmlns="http://www.w3.org/2000/svg">
<path d="M7.16791 3.05176e-05H5.41885V2.85918C5.38451 3.9254 4.38696 4.26969 3.59158 4.28113C2.68272 4.26873 1.72617 3.76423 1.72617 2.38043V3.05176e-05H0V2.38043C0 3.46001 0.373845 4.38317 1.08053 5.0498C1.72045 5.65253 2.59689 5.99109 3.55534 6.0073C3.56774 6.0073 3.57919 6.0073 3.59063 6.0073C3.60207 6.0073 3.61447 6.0073 3.62592 6.0073C4.26965 5.99586 5.21476 5.57624 5.39787 5.2043V5.99204C5.39787 7.03633 4.06938 7.71726 3.7127 7.89655L3.73845 7.92707C3.72987 7.93089 3.72033 7.93566 3.7127 7.93947L4.82375 9.28321C5.46653 8.90746 7.15837 8.15787 7.16695 5.79844V3.05176e-05H7.16791Z" fill="white"/>
</svg>
