<svg width="61" height="69" viewBox="0 0 61 69" fill="none" xmlns="http://www.w3.org/2000/svg">
<ellipse cx="38.3947" cy="52.063" rx="19.8539" ry="9.42088" transform="rotate(-22 38.3947 52.063)" fill="#222222" fill-opacity="0.15"/>
<path d="M27.4709 62.1322L27.4884 62.1136L27.5048 62.0939C28.9474 60.3629 30.6922 58.0434 32.7369 55.1428C34.7846 52.2379 36.8548 49.1206 38.9475 45.7912C41.0631 42.4256 42.8646 38.8218 44.3529 34.9811C45.8467 31.1262 46.6143 27.6539 46.6143 24.5785C46.6143 18.4779 44.4645 13.261 40.1802 8.97669C35.896 4.69243 30.679 2.5426 24.5785 2.5426C18.4779 2.5426 13.261 4.69243 8.97669 8.97669C4.69243 13.261 2.5426 18.4779 2.5426 24.5785C2.5426 27.657 3.3355 31.1781 4.87585 35.1252C6.4073 39.0496 8.11019 42.5773 9.98686 45.7051C11.8528 48.815 14.0267 52.0155 16.507 55.3068C18.9697 58.5745 20.6932 60.7782 21.6636 61.8942C22.6111 62.9837 23.368 63.8589 23.935 64.5204L24.549 65.2367L25.1956 64.5497L27.4709 62.1322Z" fill="white" stroke="#6996A3" stroke-width="1.69507"/>
<path fill-rule="evenodd" clip-rule="evenodd" d="M24.475 15.2206L22.5067 14.1742V12.8851L22.9312 12.1167C22.9312 12.1167 22.65 11.4957 23.1654 10.9725C23.6808 10.4493 24.475 10.5496 24.475 10.5496L26.4105 11.1797L27.1766 12.8851L26.4105 14.1742L24.475 15.2206ZM15.6207 30.6207L19.8385 28.2291V25.2825L18.9288 23.5262C18.9288 23.5262 19.5314 22.1067 18.427 20.9109C17.3226 19.7151 15.6207 19.9444 15.6207 19.9444L11.4731 21.3844L9.83154 25.2825L11.4731 28.2291L15.6207 30.6207ZM26.1122 22.7961L23.2159 23.9249L20.7387 22.2773C20.7387 22.2773 20.2725 20.9347 20.7387 19.614C21.2049 18.2933 22.3953 17.95 23.2159 17.95C23.4748 17.95 23.7007 17.9343 23.9028 17.9203C24.5528 17.8752 24.9554 17.8473 25.4126 18.4134C26.0119 19.1555 26.5097 20.2779 26.5097 20.9374C26.5097 21.5278 26.1122 22.7961 26.1122 22.7961ZM32.1249 13.2114L35.9867 14.8419C35.9867 14.8419 36.5168 16.6739 36.5168 17.5266C36.5168 18.4794 35.853 20.1005 35.0539 21.1724C34.4443 21.9902 33.9075 21.9499 33.0408 21.8847C32.7714 21.8645 32.4701 21.8419 32.1249 21.8419C31.0308 21.8419 29.4436 21.3459 28.822 19.4382C28.2004 17.5306 28.822 15.5912 28.822 15.5912L32.1249 13.2114ZM32.9702 36.9882L26.9539 39.3253L21.7447 36.9882L19.8385 31.3932L22.7288 29.361C22.7288 29.361 23.559 27.2045 24.5825 26.3167C25.606 25.4289 28.2239 24.5946 28.2239 24.5946L33.4328 26.6484L35.8496 32.0307L33.8041 34.2413L32.9702 36.9882Z" fill="#735E2F"/>
</svg>
