<?xml version="1.0" encoding="UTF-8"?>
<svg width="18px" height="28px" viewBox="0 0 18 28" version="1.1" xmlns="http://www.w3.org/2000/svg" xmlns:xlink="http://www.w3.org/1999/xlink">
    <!-- Generator: sketchtool 52.2 (67145) - http://www.bohemiancoding.com/sketch -->
    <title>2EBDDB15-7690-46DB-B68A-B3E40F52D0B1</title>
    <desc>Created with sketchtool.</desc>
    <g id="Ikoner" stroke="none" stroke-width="1" fill="none" fill-rule="evenodd">
        <g id="10.1.1-Ikoner-samleark" transform="translate(-93.000000, -241.000000)">
            <g id="Page"></g>
            <g id="Tidligere-obs-punkter" transform="translate(93.000000, 241.000000)">
                <g id="lokasjonsmarkør/tidligere_observasjonspunkt">
                    <rect id="Background" x="0" y="0" width="18" height="28"></rect>
                    <g id="location/pin">
                        <rect id="Background" x="0" y="0" width="18" height="28"></rect>
                        <path d="M9,27.0711862 C14.6654126,18.1632591 17.5,12.1049889 17.5,9 C17.5,4.30557963 13.6944204,0.5 9,0.5 C4.30557963,0.5 0.5,4.30557963 0.5,9 C0.5,12.1049889 3.33458739,18.1632591 9,27.0711862 Z" id="Oval" stroke="#326680" fill="#468EB2" fill-rule="nonzero"></path>
                    </g>
                    <g id="icon/12/pin" transform="translate(4.000000, 5.000000)">
                        <rect id="Background" x="0" y="0" width="10" height="10"></rect>
                        <path d="M4.28766876,5.31371937 C3.25398995,5.00700632 2.5,4.04988839 2.5,2.91666667 C2.5,1.53595479 3.61928813,0.416666667 5,0.416666667 C6.38071187,0.416666667 7.5,1.53595479 7.5,2.91666667 C7.5,4.04988839 6.74601005,5.00700632 5.71233124,5.31371937 L5.41666667,9.13461538 C5.41666667,9.38243546 5.23011865,9.58333333 5,9.58333333 C4.76988135,9.58333333 4.58333333,9.38243546 4.58333333,9.13461538 L4.28766876,5.31371937 Z" id="Combined-Shape" fill="#FFFFFF" fill-rule="nonzero"></path>
                    </g>
                </g>
            </g>
        </g>
        <g id="Page"></g>
    </g>
</svg>