<?xml version="1.0" encoding="UTF-8"?>
<svg width="18px" height="28px" viewBox="0 0 18 28" version="1.1" xmlns="http://www.w3.org/2000/svg" xmlns:xlink="http://www.w3.org/1999/xlink">
    <!-- Generator: sketchtool 51.3 (57544) - http://www.bohemiancoding.com/sketch -->
    <title>84430684-867F-45E3-BF7E-A4DFC1BD8215</title>
    <desc>Created with sketchtool.</desc>
    <defs></defs>
    <g id="Ikoner" stroke="none" stroke-width="1" fill="none" fill-rule="evenodd">
        <g id="10.1.1-Ikoner-samleark" transform="translate(-76.000000, -80.000000)">
            <g id="Location-ikoner-[10h-m]" transform="translate(20.000000, 80.000000)">
                <g id="icon/location/tur" transform="translate(56.000000, 0.000000)">
                    <path d="M9,27.0711862 C14.6654126,18.1632591 17.5,12.1049889 17.5,9 C17.5,4.30557963 13.6944204,0.5 9,0.5 C4.30557963,0.5 0.5,4.30557963 0.5,9 C0.5,12.1049889 3.33458739,18.1632591 9,27.0711862 Z" id="Oval" stroke="#326680" fill="#FFFFFF" fill-rule="nonzero"></path>
                    <g id="Gående-mann" fill-rule="evenodd" transform="translate(5.500000, 3.743893)" fill="#468EB3">
                        <path d="M3.17598935,2.11718964 C2.59134357,2.11718964 2.11739453,1.6432406 2.11739453,1.05859482 C2.11739453,0.473949046 2.59134357,0 3.17598935,0 C3.76063512,0 4.23458417,0.473949046 4.23458417,1.05859482 C4.23458417,1.6432406 3.76063512,2.11718964 3.17598935,2.11718964 Z M6.0077305,8.78302892 L6.44770897,12.1142945 C6.48740628,12.4021 6.26907109,12.6634406 5.98126563,12.6998298 L5.92171967,12.6998298 C5.66368718,12.6998298 5.43542767,12.5211919 5.39903847,12.2565432 L4.97890865,9.21308306 L2.11739453,6.35156893 L2.11739453,4.03258465 L1.0587997,4.56188206 L1.0587997,6.35156893 C1.0587997,6.64268251 0.820615868,6.88086634 0.529502292,6.88086634 C0.238388716,6.88086634 0.000204881197,6.64268251 0.000204881197,6.35156893 L0.000204881197,4.49902799 C0.000204881197,4.1252117 0.155685996,3.83740623 0.443491463,3.68523322 L2.41181621,2.70272491 C2.48790271,2.66633571 2.56729733,2.64648706 2.65000005,2.64648706 L3.70859487,2.64648706 C3.80122191,2.64648706 4.23789228,2.71264923 4.23789228,3.03353579 L4.23789228,6.5632879 L5.88863858,8.5150721 C5.95149265,8.5911586 5.99449806,8.68378565 6.0077305,8.78302892 Z M7.2482713,5.68333095 C7.35413079,5.78919043 7.41036864,5.95128777 7.41036864,6.08692023 C7.41036864,6.21924458 7.35413079,6.32841217 7.25157941,6.43096355 C7.04647667,6.6393744 6.71235768,6.6393744 6.50394682,6.43427165 L4.49923288,4.44609825 L4.49923288,2.95414118 L7.2482713,5.68333095 Z" id="Mask" fill-rule="nonzero"></path>
                        <path d="M2.12080216,6.73516982 L2.12080216,9.32065425 L0.921056706,11.6412482 C0.864253135,11.8975052 0.932508941,12.0802405 1.12582412,12.1894539 C1.37679277,12.3337198 1.59917862,12.3123517 1.79298167,12.1253497 L3.15100067,9.68707506 L3.44310164,8.06068879 L2.12080216,6.73516982 Z" id="Path-5" fill-rule="nonzero"></path>
                    </g>
                </g>
            </g>
        </g>
    </g>
</svg>