<svg width="24" height="24" viewBox="0 0 24 24" fill="none" xmlns="http://www.w3.org/2000/svg">
<path fill-rule="evenodd" clip-rule="evenodd" d="M3.92857 22L7.94643 17.9018L9.35268 19.308C9.5 19.4554 9.65402 19.596 9.81473 19.7299C9.97545 19.8638 10.1496 19.9308 10.3371 19.9308C10.5112 19.9308 10.6652 19.8672 10.7991 19.74C10.933 19.6127 11 19.4554 11 19.2679L10.9799 13.7232C10.9799 13.6295 10.9598 13.5391 10.9196 13.452C10.8795 13.365 10.8259 13.2946 10.7589 13.2411C10.7054 13.1741 10.635 13.1172 10.548 13.0703C10.4609 13.0234 10.3705 13 10.2768 13H4.73214C4.54464 13 4.38728 13.0636 4.26004 13.1908C4.13281 13.3181 4.0692 13.4754 4.0692 13.6629C4.0692 13.8504 4.1462 14.0346 4.30022 14.2154C4.45424 14.3962 4.57812 14.5335 4.67187 14.6272L6.07813 16.0335L2 20.0714L3.92857 22ZM13.0201 10.2567C13.0201 10.3638 13.0402 10.4609 13.0804 10.548C13.1205 10.635 13.1741 10.7054 13.2411 10.7589C13.308 10.8259 13.3817 10.8828 13.4621 10.9297C13.5424 10.9766 13.6362 11 13.7433 11H19.3683C19.5558 11 19.7165 10.933 19.8504 10.7991C19.9844 10.6652 20.0513 10.5045 20.0513 10.317C20.0513 10.1295 19.971 9.94197 19.8103 9.75446C19.6496 9.56696 19.5223 9.42634 19.4286 9.33259L18.0022 7.90625L22 3.92857L20.0714 2L16.0938 5.97768L14.6674 4.55134C14.5201 4.39062 14.3661 4.2433 14.2054 4.10937C14.0446 3.97545 13.8705 3.90848 13.683 3.90848C13.4955 3.90848 13.3348 3.97545 13.2009 4.10937C13.067 4.2433 13 4.40402 13 4.59152L13.0201 10.2567Z" fill="#fff"/>
</svg>
