<svg width="24" height="24" viewBox="0 0 24 24" fill="none" xmlns="http://www.w3.org/2000/svg">
<path d="M22 9.16667H22.5V8.66667V4.23958C22.5 3.50523 22.2132 2.86026 21.6765 2.32353C21.1397 1.7868 20.4948 1.5 19.7604 1.5H15.3333H14.8333V2V4.23958V4.73958H15.3333H19.2604V8.66667V9.16667H19.7604H22ZM19.7604 14.8333H19.2604V15.3333V19.2604H15.3333H14.8333V19.7604V22V22.5H15.3333H19.7604C20.4948 22.5 21.1397 22.2132 21.6765 21.6765C22.2132 21.1397 22.5 20.4948 22.5 19.7604V15.3333V14.8333H22H19.7604ZM4.73958 15.3333V14.8333H4.23958H2H1.5V15.3333V19.7604C1.5 20.4948 1.7868 21.1397 2.32353 21.6765C2.86026 22.2132 3.50523 22.5 4.23958 22.5H8.66667H9.16667V22V19.7604V19.2604H8.66667H4.73958V15.3333ZM9.16667 2V1.5H8.66667H4.23958C3.50523 1.5 2.86026 1.7868 2.32353 2.32353C1.7868 2.86026 1.5 3.50523 1.5 4.23958V8.66667V9.16667H2H4.23958H4.73958V8.66667V4.73958H8.66667H9.16667V4.23958V2Z" fill="white" stroke="#757575"/>
</svg>
