<svg width="15" height="15" viewBox="0 0 15 15" fill="none" xmlns="http://www.w3.org/2000/svg">
<path d="M15 7.5C15 11.6422 11.6422 15 7.5 15C3.35781 15 0 11.6422 0 7.5C0 3.35781 3.35781 0 7.5 0C11.6422 0 15 3.35781 15 7.5Z" fill="#757575"/>
<path fill-rule="evenodd" clip-rule="evenodd" d="M14.0255 10.107L9.73926 3.57553C9.73059 3.56232 9.71931 3.55104 9.7061 3.54237C9.65282 3.5074 9.58129 3.52225 9.54633 3.57553L7.3011 6.99683L7.33028 6.99936C7.60558 7.02312 7.74843 7.03545 7.9285 7.28547C8.01268 7.40234 8.13784 7.45486 8.26724 7.50915C8.48998 7.60261 8.72528 7.70134 8.78565 8.14262C8.79947 8.24366 8.79289 8.36046 8.78542 8.49308C8.76806 8.8012 8.74589 9.19476 8.96352 9.67474C9.19541 10.1862 9.65684 10.2742 10.2876 10.2857H10.7427C10.8852 10.2846 11.034 10.2835 11.1886 10.2855L11.2005 10.2857H13.9291C13.9516 10.2857 13.9736 10.2791 13.9924 10.2668C14.0456 10.2318 14.0605 10.1603 14.0255 10.107ZM5.45423 5.0802L6.68196 6.99853C6.39511 7.09554 6.28405 7.36731 6.18934 7.59906C6.132 7.73936 6.08066 7.865 5.99993 7.92833C5.88371 8.01951 5.73143 8.06064 5.56254 8.10625C5.29569 8.17833 4.98737 8.2616 4.71422 8.57119C4.31896 8.93844 4.29792 9.37023 4.28066 9.72441C4.2692 9.95946 4.25941 10.1603 4.14304 10.2855H2.13931C2.07559 10.2855 2.02393 10.2338 2.02393 10.1701C2.02393 10.1481 2.03024 10.1265 2.04213 10.1079L5.25986 5.0802C5.29421 5.02652 5.36557 5.01086 5.41924 5.04521C5.4333 5.0542 5.44523 5.06614 5.45423 5.0802ZM5.13949 9.57012L5.67237 9.85714L6.21429 9.57012V9.2165L6.0974 9.00572C6.14902 8.89215 6.12753 8.78752 6.03293 8.69185C5.93834 8.59618 5.81815 8.55751 5.67237 8.57585L5.13949 8.74868L4.92857 9.2165L5.13949 9.57012ZM6.64286 7.78506L6.91381 7.92857L7.18026 7.78506L7.28571 7.60825L7.18026 7.37434L6.91381 7.28793C6.84092 7.27876 6.78083 7.29809 6.73353 7.34592C6.68623 7.39376 6.67549 7.44607 6.7013 7.50286L6.64286 7.60825V7.78506ZM6.24756 8.76565L6.6012 9L7.01468 8.83944C7.05251 8.71917 7.07143 8.63105 7.07143 8.57507C7.07143 8.48126 7.00036 8.32162 6.9148 8.21607C6.84954 8.13554 6.79206 8.13951 6.69926 8.14593C6.67042 8.14792 6.63817 8.15015 6.6012 8.15015C6.48406 8.15015 6.31412 8.19898 6.24756 8.38683C6.20319 8.51207 6.20319 8.63834 6.24756 8.76565ZM8.28621 7.91499L7.76936 7.71429L7.32731 8.00722C7.27185 8.16636 7.27185 8.3242 7.32731 8.48074C7.4105 8.71556 7.62293 8.7766 7.76936 8.7766C7.81556 8.7766 7.85588 8.77939 7.89194 8.78188C8.00793 8.78989 8.07978 8.79486 8.16136 8.6942C8.26831 8.56226 8.35714 8.36271 8.35714 8.24544C8.35714 8.17547 8.3335 8.06532 8.28621 7.91499ZM6.4694 10.6226L7.16659 10.9286L7.97179 10.6226L8.08338 10.263L8.35714 9.97356L8.03369 9.26889L7.33656 9C7.10297 9.07282 6.94052 9.14798 6.8492 9.22547C6.75788 9.30296 6.67519 9.43581 6.60112 9.62403L6.21429 9.89009L6.4694 10.6226Z" fill="white"/>
</svg>
