<svg width="24" height="24" viewBox="0 0 24 24" fill="none" xmlns="http://www.w3.org/2000/svg">
<path fill-rule="evenodd" clip-rule="evenodd" d="M11.0012 5.3342C11.922 5.3342 12.6683 4.58782 12.6683 3.6671C12.6683 2.74639 11.922 2 11.0012 2C10.0805 2 9.33415 2.74639 9.33415 3.6671C9.33415 4.58782 10.0805 5.3342 11.0012 5.3342ZM15.4608 15.8318C15.44 15.6755 15.3722 15.5296 15.2732 15.4098L12.6736 12.3361V6.77736C12.6736 6.27202 11.9859 6.16783 11.8401 6.16783H10.173C10.0427 6.16783 9.91769 6.19909 9.79786 6.25639L6.6981 7.80367C6.24486 8.04332 6 8.49656 6 9.08526V12.0027C6 12.4611 6.3751 12.8362 6.83355 12.8362C7.292 12.8362 7.6671 12.4611 7.6671 12.0027V9.18424L9.3342 8.35069V12.0027L13.8406 16.5091L14.5022 21.302C14.5595 21.7188 14.919 22.0001 15.3253 22.0001H15.4191C15.8724 21.9428 16.2162 21.5312 16.1537 21.078L15.4608 15.8318ZM13.0852 6.65216L17.4144 10.9502C17.5812 11.1169 17.6697 11.3721 17.6697 11.5857C17.6697 11.7941 17.5812 11.966 17.4197 12.1275C17.0967 12.4558 16.5705 12.4558 16.2423 12.1328L13.0852 9.00173V6.65216ZM7.44155 20.8333L9.27684 16.8233C9.49857 16.3858 9.95006 16.3598 10.39 16.5827C10.825 16.8057 10.9332 17.1592 10.9235 17.4369L8.88758 21.6406C8.87014 21.6816 8.84178 21.7117 8.80483 21.7321C8.65418 21.8967 8.43757 22 8.19684 22C7.74178 22 7.37288 21.6311 7.37288 21.176C7.37288 21.0691 7.39325 20.9669 7.4303 20.8732C7.43269 20.8596 7.43642 20.8463 7.44155 20.8333Z" fill="#444444"/>
<path fill-rule="evenodd" clip-rule="evenodd" d="M10.9218 17.4008C10.9736 17.291 11.0012 17.1697 11.0012 17.0454L11.418 14.7011L9.33411 12.6172V16.6952L10.9218 17.4008Z" fill="#444444"/>
</svg>
