<svg width="24" height="24" viewBox="0 0 24 24" fill="none" xmlns="http://www.w3.org/2000/svg">
<path d="M21.4531 5.28852L15.4375 2.10341C15.3073 2.03447 15.1608 2 14.998 2C14.8353 2 14.6888 2.03447 14.5586 2.10341L8.91406 5.0817L3.30859 3.09617C3.16536 3.04102 3.01237 3.02723 2.84961 3.05481C2.68685 3.08239 2.54037 3.14443 2.41016 3.24095C2.27995 3.35126 2.17904 3.48225 2.10742 3.63392C2.03581 3.78559 2 3.94416 2 4.10962V17.8842C2 18.0772 2.04883 18.2599 2.14648 18.4323C2.24414 18.6046 2.3776 18.7322 2.54688 18.8149L8.5625 22C8.6276 22.0414 8.69922 22.0689 8.77734 22.0827C8.85547 22.0965 8.92708 22.1034 8.99219 22.1034C9.07031 22.1034 9.14844 22.0965 9.22656 22.0827C9.30469 22.0689 9.3763 22.0414 9.44141 22L15.0859 19.0217L20.6914 21.0072C20.8346 21.0486 20.9876 21.0589 21.1504 21.0383C21.3132 21.0176 21.4596 20.959 21.5898 20.8625C21.7201 20.7522 21.821 20.6212 21.8926 20.4695C21.9642 20.3178 22 20.1593 22 19.9938V6.21923C22 6.0262 21.9512 5.8435 21.8535 5.67115C21.7559 5.49879 21.6224 5.37125 21.4531 5.28852ZM10.0078 6.88107L13.9922 4.77146V17.2223L10.0078 19.332V6.88107ZM3.99219 5.57808L7.99609 6.98449V19.332L3.99219 17.2223V5.57808ZM20.0078 18.5253L16.0039 17.1189V4.77146L20.0078 6.88107V18.5253Z" fill="#044962"/>
</svg>
