<svg width="15" height="15" viewBox="0 0 15 15" fill="none" xmlns="http://www.w3.org/2000/svg">
<path d="M15 7.5C15 11.6422 11.6422 15 7.5 15C3.35781 15 0 11.6422 0 7.5C0 3.35781 3.35781 0 7.5 0C11.6422 0 15 3.35781 15 7.5Z" fill="#757575"/>
<path fill-rule="evenodd" clip-rule="evenodd" d="M6.53754 2.36528C6.81554 2.63711 7.08531 2.91323 7.34686 3.19364C7.25938 3.22838 7.18666 3.2884 7.13674 3.36994C7.07499 3.47077 7.05812 3.58697 7.08953 3.7007C7.1116 3.78063 7.15506 3.84928 7.21527 3.90241C7.19019 3.92489 7.16761 3.95073 7.14808 3.97985C7.09142 4.06433 7.06461 4.16104 7.0745 4.26137C7.08452 4.36311 7.13109 4.45362 7.20502 4.52586C7.2398 4.55986 7.27902 4.5868 7.32146 4.60662C7.29819 4.61776 7.27567 4.63113 7.2541 4.64677C7.16431 4.71189 7.10237 4.80158 7.08013 4.90877C7.05782 5.01632 7.07903 5.12345 7.13674 5.21768C7.1587 5.25355 7.18516 5.2849 7.21534 5.31161C7.15538 5.3645 7.11168 5.43336 7.08953 5.51359C7.05812 5.62732 7.07499 5.74352 7.13674 5.84435C7.20448 5.94735 7.29785 6.01254 7.4096 6.03936C7.49772 6.0605 7.58683 6.05555 7.67023 6.02553C7.68534 6.10651 7.72608 6.18195 7.79214 6.24415C7.89684 6.34272 8.03284 6.38526 8.17656 6.36657C8.25906 6.35585 8.33223 6.32475 8.39197 6.27695C8.39056 6.28761 8.38956 6.2984 8.389 6.30931C8.38377 6.41073 8.41533 6.50742 8.48096 6.58566C8.52466 6.63776 8.57738 6.68044 8.6376 6.71245C8.72295 6.75781 8.81848 6.77091 8.91391 6.75373C8.94179 6.74871 8.96871 6.74114 8.99453 6.73118C9.01259 6.81549 9.05685 6.89133 9.12281 6.95221C9.20704 7.02996 9.31344 7.07143 9.42857 7.07143C9.5437 7.07143 9.6501 7.02996 9.73433 6.95222C9.8003 6.89133 9.84456 6.81547 9.86262 6.73116C9.88847 6.74114 9.91537 6.74871 9.94323 6.75373C9.99164 6.76244 10.0401 6.76337 10.0872 6.75624C10.2909 7.08071 10.493 7.41833 10.6936 7.76909C10.631 7.79322 10.5699 7.81599 10.5105 7.83739C10.0162 8.01538 9.66126 8.08808 9.42612 8.08808C9.12839 8.08808 8.95803 7.96367 8.73351 7.76265C8.7155 7.74652 8.69636 7.72893 8.67607 7.71028C8.46898 7.51997 8.14109 7.21864 7.64905 7.21864C7.45605 7.21864 7.30918 7.23292 7.18144 7.25896C7.07168 7.28133 6.98266 7.31167 6.9182 7.33364L6.91819 7.33364L6.89267 7.3423L6.89254 7.34234C6.78697 7.37779 6.65714 7.42138 6.25921 7.42138C5.96577 7.42138 5.70922 7.26073 5.2827 6.99124C5.0527 6.84591 4.78046 6.67617 4.45772 6.56144C4.94516 5.48057 5.52217 4.10641 6.18874 2.43895C6.19922 2.41274 6.21477 2.38886 6.23451 2.36867C6.31725 2.28405 6.45292 2.28253 6.53755 2.36527L6.53754 2.36528ZM4.09612 7.34416C3.61374 8.36088 3.09808 9.3361 2.54913 10.2698L2.54913 10.2698C2.48914 10.3718 2.52323 10.5032 2.62525 10.5631C2.65817 10.5825 2.69567 10.5927 2.73386 10.5927L11.8057 10.5927C11.924 10.5927 12.02 10.4968 12.02 10.3784C12.02 10.3467 12.0129 10.3154 11.9994 10.2868C11.7074 9.66974 11.4118 9.08264 11.1126 8.52549C11.0053 8.56818 10.9014 8.60764 10.8009 8.64384C10.2731 8.83391 9.80829 8.94523 9.42612 8.94523C8.79789 8.94523 8.42276 8.63492 8.16175 8.40122C7.87807 8.14723 7.79488 8.07579 7.64905 8.07579C7.49902 8.07579 7.41138 8.08685 7.35264 8.09883C7.29915 8.10973 7.26166 8.1224 7.19646 8.14443L7.16549 8.15487C6.96917 8.22078 6.74706 8.27852 6.25921 8.27852C5.70755 8.27852 5.25105 7.98745 4.90087 7.76418L4.82486 7.71586C4.56399 7.55103 4.33565 7.41664 4.09612 7.34416Z" fill="white"/>
<path fill-rule="evenodd" clip-rule="evenodd" d="M11.0322 5.06682L11.0321 5.06684L10.6709 5.11394L11.0766 5.33142C11.1127 5.3504 11.1361 5.37887 11.1463 5.41634C11.1566 5.45375 11.1514 5.48964 11.1308 5.52362C11.1089 5.55708 11.0783 5.57869 11.0393 5.58814C11.0003 5.59757 10.9628 5.59282 10.927 5.57398L10.5362 5.34532L10.6562 5.6706C10.6766 5.726 10.6669 5.77355 10.6274 5.81114C10.5886 5.84795 10.5414 5.86286 10.4866 5.85567C10.431 5.84838 10.3924 5.81726 10.3721 5.76334L10.1545 5.15926L9.57898 4.83269L9.57608 5.46164L10.0299 5.94539C10.0548 5.97157 10.0683 6.00037 10.0699 6.03152C10.0715 6.06264 10.0626 6.09002 10.0434 6.11312C10.0251 6.13518 10.0033 6.153 9.97808 6.16653C9.95188 6.18059 9.92251 6.18465 9.89037 6.17881C9.85825 6.17297 9.82969 6.15693 9.80483 6.13088L9.57898 5.86334V6.29837C9.57898 6.33664 9.56388 6.36995 9.53411 6.39769C9.50448 6.42529 9.46915 6.43919 9.42861 6.43919C9.38808 6.43919 9.35274 6.42529 9.32312 6.39769C9.29335 6.36995 9.27825 6.33664 9.27825 6.29837L9.29678 5.87068L9.05234 6.13094C9.02754 6.15693 8.99898 6.17297 8.96686 6.17881C8.93472 6.18465 8.90535 6.18059 8.87915 6.16653C8.85393 6.153 8.83212 6.13518 8.81378 6.11312C8.79459 6.09002 8.78573 6.06264 8.78732 6.03152C8.78891 6.00037 8.80239 5.97156 8.8273 5.94546L9.27825 5.46897L9.29403 4.84213L8.70772 5.15349L8.48512 5.76345C8.46482 5.81726 8.42625 5.84838 8.37066 5.85567C8.31585 5.86286 8.26861 5.84795 8.22987 5.81114C8.19032 5.77355 8.18067 5.726 8.20102 5.67058L8.3361 5.3585L7.93022 5.574C7.89447 5.59283 7.85688 5.59757 7.81798 5.58814C7.77896 5.57869 7.74829 5.55708 7.72624 5.52332C7.70581 5.48964 7.70065 5.45375 7.71088 5.41634C7.72113 5.37887 7.74455 5.3504 7.78052 5.33146L8.18949 5.13393L7.82502 5.06682C7.77998 5.05814 7.7468 5.0368 7.72624 5.00291C7.70597 4.9695 7.69925 4.93525 7.70636 4.90067C7.71346 4.8661 7.73355 4.83674 7.76617 4.81286C7.79921 4.78868 7.83861 4.78097 7.88356 4.78963L8.55292 4.91677L9.14423 4.61647L8.55997 4.29842L7.88402 4.42436C7.87722 4.42595 7.86707 4.42667 7.85323 4.42667C7.81123 4.42667 7.7765 4.41344 7.7497 4.38699C7.72325 4.3609 7.70826 4.33151 7.7051 4.29909C7.70194 4.26673 7.71061 4.23516 7.73084 4.20471C7.75146 4.17368 7.78316 4.15449 7.8251 4.14725L8.18637 4.10015L7.78059 3.88267C7.74455 3.86369 7.72113 3.83522 7.71088 3.79775C7.70065 3.76034 7.70581 3.72445 7.72624 3.69077C7.74664 3.65714 7.77738 3.63511 7.81789 3.62495C7.85842 3.61479 7.89623 3.61993 7.93026 3.64011L8.32103 3.86877L8.20101 3.5435C8.18067 3.48809 8.19032 3.44054 8.22987 3.40295C8.26861 3.36614 8.31585 3.35123 8.37066 3.35842C8.42625 3.36571 8.46482 3.39683 8.48516 3.45075L8.70272 4.05483L9.27825 4.3814L9.28115 3.75245L8.82736 3.2687C8.80239 3.24253 8.78891 3.21372 8.78732 3.18257C8.78573 3.15145 8.79459 3.12407 8.81378 3.10097C8.83212 3.07891 8.85393 3.06109 8.87915 3.04756C8.90535 3.0335 8.93472 3.02944 8.96686 3.03528C8.99898 3.04112 9.02754 3.05716 9.0524 3.08321L9.27825 3.35075V2.91572C9.27825 2.87745 9.29335 2.84414 9.32312 2.8164C9.35274 2.7888 9.38808 2.7749 9.42861 2.7749C9.46914 2.7749 9.50448 2.7888 9.53411 2.8164C9.56388 2.84414 9.57898 2.87745 9.57898 2.91572L9.56045 3.34341L9.80489 3.08315C9.82969 3.05716 9.85825 3.04112 9.89037 3.03528C9.92251 3.02944 9.95188 3.0335 9.97808 3.04756C10.0033 3.06109 10.0251 3.07891 10.0434 3.10097C10.0626 3.12407 10.0715 3.15145 10.0699 3.18257C10.0683 3.21372 10.0548 3.24253 10.0299 3.26863L9.57898 3.74512L9.5632 4.37196L10.1495 4.0606L10.3721 3.45064C10.3924 3.39683 10.431 3.36571 10.4866 3.35842C10.5414 3.35123 10.5886 3.36614 10.6274 3.40295C10.6669 3.44054 10.6766 3.48809 10.6562 3.54351L10.5211 3.85559L10.927 3.6401C10.9628 3.62127 11.0003 3.61652 11.0393 3.62595C11.0783 3.6354 11.1089 3.65701 11.131 3.69077C11.1514 3.72445 11.1566 3.76034 11.1463 3.79775C11.1361 3.83522 11.1127 3.86369 11.0767 3.88263L10.6677 4.08017L11.032 4.14723C11.0741 4.15449 11.1058 4.17368 11.1264 4.20471C11.1466 4.23516 11.1553 4.26673 11.1521 4.29909C11.149 4.33151 11.134 4.3609 11.1075 4.38699C11.0807 4.41344 11.046 4.42667 11.004 4.42667C10.9902 4.42667 10.98 4.42595 10.9737 4.42446L10.3043 4.29732L9.713 4.59762L10.2973 4.91567L10.9736 4.78964C11.0186 4.78097 11.058 4.78868 11.0911 4.81286C11.1237 4.83674 11.1438 4.8661 11.1509 4.90067C11.158 4.93525 11.1513 4.9695 11.131 5.00291C11.1104 5.0368 11.0772 5.05814 11.0322 5.06682Z" fill="white" stroke="white" stroke-width="0.0214286" stroke-linecap="round" stroke-linejoin="round"/>
</svg>
