<svg width="15" height="15" viewBox="0 0 15 15" fill="none" xmlns="http://www.w3.org/2000/svg">
<path d="M15 7.5C15 11.6422 11.6422 15 7.5 15C3.35781 15 0 11.6422 0 7.5C0 3.35781 3.35781 0 7.5 0C11.6422 0 15 3.35781 15 7.5Z" fill="#757575"/>
<path fill-rule="evenodd" clip-rule="evenodd" d="M5.5 6H4V8H6V6H5.5ZM6 9H4L4 11H6V9ZM6.5 9H8.5V11H6.5V9ZM8.5 8H6.5V6H8.5V8ZM9 9V11H11V9H9ZM11 8V6H9.5H9V8H11ZM7 4H8V3.5C8 2.67157 8.67157 2 9.5 2C10.3284 2 11 2.67157 11 3.5V4C11.5523 4 12 4.44772 12 5V11C12 11.5523 11.5523 12 11 12H4C3.44772 12 3 11.5523 3 11V5C3 4.44772 3.44772 4 4 4V3.5C4 2.67157 4.67157 2 5.5 2C6.32843 2 7 2.67157 7 3.5V4ZM9 4.5V4V3.5C9 3.22386 9.22386 3 9.5 3C9.77614 3 10 3.22386 10 3.5V4V4.5C10 4.77614 9.77614 5 9.5 5C9.22386 5 9 4.77614 9 4.5ZM6 4V3.5C6 3.22386 5.77614 3 5.5 3C5.22386 3 5 3.22386 5 3.5V4V4.5C5 4.77614 5.22386 5 5.5 5C5.77614 5 6 4.77614 6 4.5V4Z" fill="white"/>
</svg>
