<svg width="15" height="15" viewBox="0 0 15 15" fill="none" xmlns="http://www.w3.org/2000/svg">
<path d="M15 7.5C15 11.6422 11.6422 15 7.5 15C3.35781 15 0 11.6422 0 7.5C0 3.35781 3.35781 0 7.5 0C11.6422 0 15 3.35781 15 7.5Z" fill="#757575"/>
<mask id="mask0" mask-type="alpha" maskUnits="userSpaceOnUse" x="0" y="0" width="15" height="15">
<rect width="15" height="15" rx="7.5" fill="white"/>
</mask>
<g mask="url(#mask0)">
<path fill-rule="evenodd" clip-rule="evenodd" d="M6.49723 5.35091C6.78369 5.06445 6.92692 4.73025 6.92692 4.34831C6.92692 3.96636 6.78369 3.63216 6.49723 3.3457C6.21077 3.05924 5.87657 2.91602 5.49463 2.91602C5.11268 2.91602 4.77848 3.05924 4.49202 3.3457C4.20557 3.63216 4.06234 3.96636 4.06234 4.34831C4.06234 4.73025 4.20557 5.06445 4.49202 5.35091C4.77848 5.63737 5.11268 5.7806 5.49463 5.7806C5.87657 5.7806 6.21077 5.63737 6.49723 5.35091ZM7.92952 9.79102C7.92952 8.70486 7.68783 7.86041 7.20443 7.25765C6.72103 6.65489 6.12723 6.35352 5.42301 6.35352C4.7188 6.35352 4.125 6.65489 3.6416 7.25765C3.1582 7.86041 2.9165 8.70486 2.9165 9.79102C2.9165 10.2804 3.33425 10.6295 4.16976 10.8384C5.00527 11.0473 5.84076 11.0473 6.67627 10.8384C7.51178 10.6295 7.92952 10.2804 7.92952 9.79102ZM8.64567 6.46094C8.93213 6.7474 9.26633 6.89063 9.64827 6.89063C10.0302 6.89063 10.3644 6.7474 10.6509 6.46094C10.9373 6.17448 11.0806 5.84028 11.0806 5.45833C11.0806 5.07639 10.9373 4.74219 10.6509 4.45573C10.3644 4.16927 10.0302 4.02604 9.64827 4.02604C9.26633 4.02604 8.93213 4.16927 8.64567 4.45573C8.35921 4.74219 8.21598 5.07639 8.21598 5.45833C8.21598 5.84028 8.35921 6.17448 8.64567 6.46094ZM9.57666 7.46354C9.18278 7.46354 8.81277 7.57096 8.46663 7.78581C8.68148 8.3826 8.7889 9.05099 8.7889 9.79102C8.7889 10.5668 8.32341 11.1398 7.39242 11.5098C7.75049 11.8082 8.30848 11.9932 9.06641 12.0648C9.82433 12.1364 10.5166 12.0648 11.1432 11.8499C11.7699 11.6351 12.0832 11.3188 12.0832 10.901C12.0832 9.81488 11.8415 8.97043 11.3581 8.36767C10.8747 7.76492 10.2809 7.46354 9.57666 7.46354Z" fill="white"/>
</g>
</svg>
