<svg width="15" height="15" viewBox="0 0 15 15" fill="none" xmlns="http://www.w3.org/2000/svg">
<path d="M15 7.5C15 11.6422 11.6422 15 7.5 15C3.35781 15 0 11.6422 0 7.5C0 3.35781 3.35781 0 7.5 0C11.6422 0 15 3.35781 15 7.5Z" fill="#757575"/>
<mask id="mask0" mask-type="alpha" maskUnits="userSpaceOnUse" x="0" y="0" width="15" height="15">
<rect width="15" height="15" rx="7.5" fill="white"/>
</mask>
<g mask="url(#mask0)">
<path fill-rule="evenodd" clip-rule="evenodd" d="M10.5 6.1875C10.5 7.94791 9.07291 9.375 7.3125 9.375C5.55209 9.375 4.125 7.94791 4.125 6.1875C4.125 4.42709 5.55209 3 7.3125 3C9.07291 3 10.5 4.42709 10.5 6.1875ZM13.125 15.1875C13.125 18.1905 10.6905 20.625 7.6875 20.625C4.68445 20.625 2.25 18.1905 2.25 15.1875C2.25 12.1845 4.68445 9.75 7.6875 9.75C10.6905 9.75 13.125 12.1845 13.125 15.1875Z" fill="white"/>
</g>
</svg>
