<svg width="15" height="15" viewBox="0 0 15 15" fill="none" xmlns="http://www.w3.org/2000/svg">
<path d="M15 7.5C15 11.6422 11.6422 15 7.5 15C3.35781 15 0 11.6422 0 7.5C0 3.35781 3.35781 0 7.5 0C11.6422 0 15 3.35781 15 7.5Z" fill="#757575"/>
<path d="M4.41138 7.31766V6.16956H3.53585C3.47668 6.16956 3.42871 6.12159 3.42871 6.06241C3.42871 6.034 3.44 6.00675 3.46009 5.98665L7.48714 1.9596C7.52898 1.91776 7.59682 1.91776 7.63866 1.9596L11.6657 5.98665C11.7076 6.02849 11.7076 6.09633 11.6657 6.13818C11.6456 6.15827 11.6184 6.16956 11.59 6.16956H10.6257V6.38409C9.97691 6.39415 9.62933 6.70526 9.35322 6.95713C9.11687 7.1742 8.95437 7.31891 8.58998 7.31891C8.2256 7.31891 8.06802 7.1742 7.82674 6.95713C7.54607 6.7011 7.19645 6.38384 6.52677 6.38384C5.86201 6.38384 5.50748 6.7011 5.2268 6.95713C4.99044 7.1742 4.83287 7.31891 4.46848 7.31891C4.44885 7.31891 4.42983 7.31849 4.41138 7.31766ZM6.19973 7.41089C6.29094 7.37667 6.39542 7.35787 6.52677 7.35787C6.65812 7.35787 6.7626 7.37667 6.85381 7.41089H6.19973ZM10.3215 7.41089C10.4072 7.37866 10.5048 7.3601 10.6257 7.35806V7.41089H10.3215ZM7.5629 5.91089C8.09546 5.91089 8.52719 5.47917 8.52719 4.94661C8.52719 4.41405 8.09546 3.98232 7.5629 3.98232C7.03034 3.98232 6.59862 4.41405 6.59862 4.94661C6.59862 5.47917 7.03034 5.91089 7.5629 5.91089Z" fill="white"/>
<path fill-rule="evenodd" clip-rule="evenodd" d="M12.6242 11.4442C12.0186 11.4442 11.6246 11.127 11.339 10.871C11.0978 10.6539 10.95 10.5092 10.5856 10.5092C10.2213 10.5092 10.0637 10.6539 9.82733 10.871C9.54173 11.127 9.19212 11.4442 8.52736 11.4442C7.85768 11.4442 7.50806 11.127 7.22739 10.871C6.98611 10.6539 6.82853 10.5092 6.46415 10.5092C6.09976 10.5092 5.94219 10.6539 5.70091 10.871C5.42023 11.127 5.06569 11.4442 4.40094 11.4442C3.73125 11.4442 3.39149 11.127 3.11081 10.871C2.86953 10.6539 2.65779 10.5092 2.35742 10.5092V9.53516C2.96309 9.53516 3.36687 9.85241 3.64754 10.1084C3.88883 10.3255 4.04148 10.4702 4.40586 10.4702C4.77025 10.4702 4.92782 10.3255 5.16418 10.1084C5.44485 9.85241 5.79939 9.53516 6.46415 9.53516C7.13383 9.53516 7.48344 9.85241 7.76412 10.1084C8.0054 10.3255 8.16297 10.4702 8.52736 10.4702C8.89175 10.4702 9.05424 10.3255 9.2906 10.1084C9.57128 9.85241 9.92581 9.53516 10.5955 9.53516C11.2652 9.53516 11.5951 9.85241 11.8807 10.1084C12.122 10.3255 12.3239 10.4702 12.6292 10.4702V11.4442H12.6242ZM11.339 8.62096C11.0978 8.40389 10.95 8.25918 10.5856 8.25918C10.2213 8.25918 10.0637 8.40389 9.82733 8.62096C9.54173 8.87699 9.19212 9.19425 8.52736 9.19425C7.85768 9.19425 7.50806 8.87699 7.22739 8.62096C6.98611 8.40389 6.82853 8.25918 6.46415 8.25918C6.09976 8.25918 5.94219 8.40389 5.70091 8.62096C5.42023 8.87699 5.06569 9.19425 4.40094 9.19425C3.73125 9.19425 3.39149 8.87699 3.11081 8.62096C2.86953 8.40389 2.65779 8.25918 2.35742 8.25918V7.28516C2.96309 7.28516 3.36687 7.60241 3.64754 7.85844C3.88883 8.07551 4.04148 8.22022 4.40586 8.22022C4.77025 8.22022 4.92782 8.07551 5.16418 7.85844C5.44485 7.60241 5.79939 7.28516 6.46415 7.28516C7.13383 7.28516 7.48344 7.60241 7.76412 7.85844C8.0054 8.07551 8.16297 8.22022 8.52736 8.22022C8.89175 8.22022 9.05424 8.07551 9.2906 7.85844C9.57128 7.60241 9.92581 7.28516 10.5955 7.28516C11.2652 7.28516 11.5951 7.60241 11.8807 7.85844C12.122 8.07551 12.3239 8.22022 12.6292 8.22022V9.19425C12.0186 9.19425 11.6246 8.87699 11.339 8.62096Z" fill="white"/>
</svg>