<svg width="45" height="47" viewBox="0 0 45 47" fill="none" xmlns="http://www.w3.org/2000/svg">
<path d="M22.9702 0C10.8127 0 0.970215 9.85075 0.970215 22C0.970215 34.1493 10.8276 44 22.9702 44C35.1277 44 44.9702 34.1493 44.9702 22C44.9702 9.85075 35.1128 0 22.9702 0Z" fill="#6996A3"/>
<path fill-rule="evenodd" clip-rule="evenodd" d="M31.0825 27.1137C31.1014 27.1307 31.1204 27.1478 31.1397 27.1651C31.8108 27.7664 32.7365 28.5114 34.1713 28.5114V26.2241C33.4539 26.2241 32.9794 25.8843 32.4125 25.3745C32.3902 25.3546 32.3678 25.3345 32.3452 25.3142C31.689 24.7247 30.9138 24.0283 29.3924 24.0283C27.8188 24.0283 26.9857 24.7733 26.3261 25.3745C25.7707 25.8843 25.3889 26.2241 24.5326 26.2241C23.684 26.2241 23.3127 25.8903 22.7542 25.3881L22.7391 25.3745C22.0796 24.7733 21.258 24.0283 19.6844 24.0283C18.1223 24.0283 17.2892 24.7733 16.6296 25.3745C16.0742 25.8843 15.704 26.2241 14.8477 26.2241C14.01 26.2241 13.6486 25.8989 13.1024 25.4075C13.0903 25.3966 13.0781 25.3856 13.0658 25.3745C12.4062 24.7733 11.4574 24.0283 10.0342 24.0283V26.3156C10.74 26.3156 11.2376 26.6554 11.8045 27.1651C11.8122 27.1722 11.82 27.1792 11.8277 27.1863C12.4828 27.7837 13.2809 28.5114 14.8361 28.5114C16.3982 28.5114 17.2313 27.7664 17.8909 27.1651L17.9059 27.1516C18.4645 26.6494 18.8357 26.3156 19.6844 26.3156C20.533 26.3156 20.9043 26.6494 21.4628 27.1516L21.4779 27.1651C22.1374 27.7664 22.959 28.5114 24.5326 28.5114C26.0848 28.5114 26.9058 27.7758 27.5746 27.1766L27.5874 27.1651C28.1428 26.6554 28.513 26.3156 29.3693 26.3156C30.1964 26.3156 30.5485 26.6327 31.0825 27.1137ZM31.1397 32.4483C31.8108 33.0496 32.7365 33.7946 34.1597 33.7946H34.1713V31.5073C33.4539 31.5073 32.9794 31.1675 32.4125 30.6577C32.3902 30.6378 32.3678 30.6177 32.3452 30.5974C31.689 30.0079 30.9138 29.3115 29.3924 29.3115C27.8188 29.3115 26.9857 30.0565 26.3261 30.6577C25.7707 31.1675 25.3889 31.5073 24.5326 31.5073C23.684 31.5073 23.3127 31.1735 22.7542 30.6713L22.7391 30.6577C22.0796 30.0565 21.258 29.3115 19.6844 29.3115C18.1223 29.3115 17.2892 30.0565 16.6296 30.6577C16.0742 31.1675 15.704 31.5073 14.8477 31.5073C14.01 31.5073 13.6486 31.1821 13.1024 30.6907C13.0903 30.6798 13.0781 30.6688 13.0658 30.6577C12.4062 30.0565 11.4574 29.3115 10.0342 29.3115V31.5988C10.74 31.5988 11.2376 31.9386 11.8045 32.4483C11.8122 32.4554 11.82 32.4624 11.8277 32.4695C12.4828 33.0669 13.2809 33.7946 14.8361 33.7946C16.3982 33.7946 17.2313 33.0496 17.8909 32.4483L17.9059 32.4348C18.4645 31.9326 18.8357 31.5988 19.6844 31.5988C20.533 31.5988 20.9043 31.9326 21.4628 32.4348L21.4779 32.4483C22.1374 33.0496 22.959 33.7946 24.5326 33.7946C26.0848 33.7946 26.9058 33.059 27.5746 32.4598L27.5874 32.4483C28.1428 31.9386 28.513 31.5988 29.3693 31.5988C30.1964 31.5988 30.5485 31.9159 31.0825 32.3969C31.1014 32.4139 31.1204 32.431 31.1397 32.4483Z" fill="white"/>
<path fill-rule="evenodd" clip-rule="evenodd" d="M22.0669 8.51473L21.0789 7.9899V7.34328L21.292 6.95786C21.292 6.95786 21.1509 6.64635 21.4095 6.38394C21.6682 6.12152 22.0669 6.17183 22.0669 6.17183L23.0384 6.48785L23.4229 7.34328L23.0384 7.9899L22.0669 8.51473ZM17.6226 16.2394L19.7396 15.0398V13.5618L19.283 12.6808C19.283 12.6808 19.5855 11.9688 19.0311 11.369C18.4768 10.7692 17.6226 10.8842 17.6226 10.8842L15.5408 11.6065L14.7168 13.5618L15.5408 15.0398L17.6226 16.2394ZM22.8886 12.3145L21.4349 12.8808L20.1915 12.0543C20.1915 12.0543 19.9575 11.3809 20.1915 10.7184C20.4255 10.056 21.023 9.88377 21.4349 9.88377C21.5648 9.88377 21.6782 9.87591 21.7796 9.86888C22.1059 9.84628 22.308 9.83227 22.5375 10.1162C22.8383 10.4885 23.0882 11.0514 23.0882 11.3823C23.0882 11.6784 22.8886 12.3145 22.8886 12.3145ZM25.9066 7.50684L27.845 8.32471C27.845 8.32471 28.111 9.2436 28.111 9.67133C28.111 10.1492 27.7779 10.9624 27.3768 11.5C27.0708 11.9102 26.8014 11.89 26.3664 11.8573C26.2311 11.8472 26.0799 11.8358 25.9066 11.8358C25.3575 11.8358 24.5608 11.5871 24.2488 10.6302C23.9368 9.6733 24.2488 8.70055 24.2488 8.70055L25.9066 7.50684ZM26.3309 19.4333L23.3111 20.6055L20.6964 19.4333L19.7396 16.6269L21.1904 15.6075C21.1904 15.6075 21.6071 14.5258 22.1208 14.0805C22.6345 13.6352 23.9486 13.2167 23.9486 13.2167L26.5631 14.2469L27.7761 16.9466L26.7494 18.0555L26.3309 19.4333Z" fill="white"/>
</svg>
