<svg width="136" height="112" viewBox="0 0 136 112" fill="none" xmlns="http://www.w3.org/2000/svg">
<mask id="path-1-outside-1" maskUnits="userSpaceOnUse" x="0" y="0" width="136" height="112" fill="black">
<rect fill="white" width="136" height="112"/>
<path fill-rule="evenodd" clip-rule="evenodd" d="M28 7C16.402 7 7 16.402 7 28V61.7895C7 73.3875 16.402 82.7895 28 82.7895H43.6317V97L61.3948 82.7895H107.263C118.861 82.7895 128.263 73.3875 128.263 61.7895V28C128.263 16.402 118.861 7 107.263 7H28Z"/>
</mask>
<path fill-rule="evenodd" clip-rule="evenodd" d="M28 7C16.402 7 7 16.402 7 28V61.7895C7 73.3875 16.402 82.7895 28 82.7895H43.6317V97L61.3948 82.7895H107.263C118.861 82.7895 128.263 73.3875 128.263 61.7895V28C128.263 16.402 118.861 7 107.263 7H28Z" fill="white"/>
<path d="M43.6317 82.7895H50.6317V75.7895H43.6317V82.7895ZM43.6317 97H36.6317V111.564L48.0045 102.466L43.6317 97ZM61.3948 82.7895V75.7895H58.9394L57.022 77.3234L61.3948 82.7895ZM14 28C14 20.268 20.268 14 28 14V0C12.536 0 0 12.536 0 28H14ZM14 61.7895V28H0V61.7895H14ZM28 75.7895C20.268 75.7895 14 69.5215 14 61.7895H0C0 77.2534 12.536 89.7895 28 89.7895V75.7895ZM43.6317 75.7895H28V89.7895H43.6317V75.7895ZM50.6317 97V82.7895H36.6317V97H50.6317ZM57.022 77.3234L39.2588 91.5339L48.0045 102.466L65.7677 88.2556L57.022 77.3234ZM107.263 75.7895H61.3948V89.7895H107.263V75.7895ZM121.263 61.7895C121.263 69.5215 114.995 75.7895 107.263 75.7895V89.7895C122.727 89.7895 135.263 77.2535 135.263 61.7895H121.263ZM121.263 28V61.7895H135.263V28H121.263ZM107.263 14C114.995 14 121.263 20.268 121.263 28H135.263C135.263 12.536 122.727 0 107.263 0V14ZM28 14H107.263V0H28V14Z" fill="#EE7B04" mask="url(#path-1-outside-1)"/>
</svg>
