<svg width="98" height="140" viewBox="0 0 98 140" fill="none" xmlns="http://www.w3.org/2000/svg">
<path d="M63 7V77L85.4 65.17L86.94 64.96C88.97 64.96 90.79 65.8 92.12 67.2L97.3 72.59L63 101.99C61.18 103.88 58.73 105 56 105H10.5C5.11 105 0 100.1 0 94.5V63.98C0 59.71 2.45 56 5.95 54.6L40.53 39.2L49 38.29V7C49 5.14348 49.7375 3.36301 51.0503 2.05025C52.363 0.737498 54.1435 0 56 0C57.8565 0 59.637 0.737498 60.9497 2.05025C62.2625 3.36301 63 5.14348 63 7ZM0 119H56V140H0V119Z" fill="#EE7B04"/>
</svg>
