<svg width="72" height="79" viewBox="0 0 72 79" fill="none" xmlns="http://www.w3.org/2000/svg">
<path d="M20.4585 42.5165L43.3169 52.8185L45.9027 47.0809L23.0444 36.7789L20.4585 42.5165ZM16.5645 51.1567L39.4228 61.4587L42.0087 55.7211L19.1504 45.4191L16.5645 51.1567ZM24.3525 33.8764L47.2109 44.1784L49.7967 38.4408L26.9384 28.1388L24.3525 33.8764ZM65.1637 32.535L58.9367 15.8413C58.791 15.4508 58.5704 15.1077 58.2748 14.812C57.9791 14.5164 57.6531 14.2882 57.2966 14.1276L28.7571 1.26515C27.9996 0.923762 27.2156 0.908811 26.4051 1.2203C25.5946 1.53179 25.017 2.07003 24.6722 2.83505L1.30816 54.676C0.943089 55.486 0.912288 56.2978 1.21575 57.1113C1.51921 57.9248 2.04968 58.5023 2.80718 58.8437L42.7759 76.8571C43.5333 77.1985 44.3173 77.2134 45.1278 76.9019C45.9383 76.5905 46.5261 76.0297 46.8912 75.2197L65.0531 34.9215C65.2153 34.5615 65.3107 34.1713 65.3393 33.7511C65.3679 33.3308 65.3094 32.9255 65.1637 32.535ZM42.4877 69.8242L8.26704 54.4014L29.0453 8.29804L51.8368 18.5699L46.6346 30.1126L58.0638 35.2636L42.4877 69.8242Z" fill="#DAE5E8"/>
</svg>
