<svg width="147" height="147" viewBox="0 0 147 147" fill="none" xmlns="http://www.w3.org/2000/svg">
<path fill-rule="evenodd" clip-rule="evenodd" d="M67.9028 146.79C69.7503 146.929 71.6169 147 73.5 147C75.2571 147 76.9998 146.938 78.726 146.817C107.317 144.809 131.396 126.448 141.671 101.029C141.8 100.708 141.928 100.387 142.053 100.064C145.248 91.8254 147 82.8673 147 73.5C147 64.1327 145.248 55.1746 142.053 46.9358C141.928 46.6131 141.8 46.2916 141.671 45.9712C131.396 20.5519 107.317 2.19139 78.726 0.182923C76.9998 0.0616571 75.2571 0 73.5 0C71.6169 0 69.7503 0.0708182 67.9028 0.209936C39.4749 2.35055 15.5593 20.662 5.32907 45.9712C5.19956 46.2916 5.07223 46.6131 4.94712 46.9358C1.75235 55.1746 0 64.1327 0 73.5C0 82.8673 1.75235 91.8254 4.94712 100.064C5.07223 100.387 5.19955 100.708 5.32907 101.029C15.5593 126.338 39.4749 144.649 67.9028 146.79ZM71.0005 139.954C71.8299 139.985 72.6631 140 73.5 140C74.1659 140 74.8295 139.99 75.4906 139.971C81.9251 132.528 90.2997 119.203 94.891 101.029H51.7729C56.1904 120.044 64.5565 133.009 71.0005 139.954ZM44.5993 101.029C48.2161 117.635 54.726 130.262 61.03 138.833C39.5686 134.761 21.758 120.377 12.9477 101.029H44.5993ZM50.381 94.0288H96.4167C97.5845 87.681 98.2692 80.8259 98.2692 73.5C98.2692 66.1741 97.5845 59.319 96.4167 52.9712H50.381C49.3374 59.2441 48.7308 66.0868 48.7308 73.5C48.7308 80.9132 49.3374 87.7559 50.381 94.0288ZM43.2913 52.9712C42.2984 59.3062 41.7308 66.1503 41.7308 73.5C41.7308 80.8497 42.2984 87.6938 43.2913 94.0288H10.2291C8.13283 87.5634 7 80.664 7 73.5C7 66.336 8.13283 59.4366 10.2291 52.9712H43.2913ZM51.7729 45.9712H94.891C90.2997 27.7971 81.9251 14.4716 75.4906 7.02923C74.8295 7.00979 74.1659 7 73.5 7C72.6631 7 71.8299 7.01546 71.0005 7.04611C64.5565 13.9908 56.1904 26.9565 51.7729 45.9712ZM61.03 8.16727C54.726 16.7384 48.2161 29.3654 44.5993 45.9712H12.9477C21.758 26.6233 39.5686 12.2388 61.03 8.16727ZM85.1565 8.0182C91.4989 16.851 98.2532 29.7114 102.098 45.9712H134.052C125.131 26.3793 106.981 11.8768 85.1565 8.0182ZM136.771 52.9712H103.528C104.632 59.3668 105.269 66.2205 105.269 73.5C105.269 80.7795 104.632 87.6332 103.528 94.0288H136.771C138.867 87.5634 140 80.664 140 73.5C140 66.336 138.867 59.4366 136.771 52.9712ZM134.052 101.029H102.098C98.2532 117.289 91.4989 130.149 85.1565 138.982C106.981 135.123 125.131 120.621 134.052 101.029Z" fill="#DAE5E8"/>
</svg>
