<svg width="11" height="12" viewBox="0 0 11 12" fill="none" xmlns="http://www.w3.org/2000/svg">
<path fill-rule="evenodd" clip-rule="evenodd" d="M10.3642 2.1853H8.17891V1.63578C8.17891 1.17572 8.02343 0.788074 7.71246 0.472844C7.40149 0.157614 7.01172 0 6.54313 0H4.37061C3.90202 0 3.51225 0.157614 3.20128 0.472844C2.89031 0.788074 2.73482 1.17572 2.73482 1.63578V2.1853H0.549521C0.387646 2.1853 0.255592 2.23429 0.153355 2.33227C0.0511177 2.43025 0 2.56017 0 2.72205C0 2.89244 0.0511177 3.02662 0.153355 3.1246C0.255592 3.22258 0.387646 3.27157 0.549521 3.27157H1.09904V10.3642C1.09904 10.8243 1.25452 11.2119 1.5655 11.5272C1.87647 11.8424 2.26624 12 2.73482 12H8.17891C8.6475 12 9.03727 11.8424 9.34824 11.5272C9.65921 11.2119 9.8147 10.8243 9.8147 10.3642V3.27157H10.3642C10.5261 3.27157 10.6581 3.22258 10.7604 3.1246C10.8626 3.02662 10.9137 2.89244 10.9137 2.72205C10.9137 2.56017 10.8626 2.43025 10.7604 2.33227C10.6581 2.23429 10.5261 2.1853 10.3642 2.1853ZM3.82109 1.63578C3.82109 1.47391 3.87007 1.34185 3.96805 1.23962C4.06603 1.13738 4.20021 1.08626 4.37061 1.08626H6.54313C6.71353 1.08626 6.84771 1.13738 6.94569 1.23962C7.04366 1.34185 7.09265 1.47391 7.09265 1.63578V2.1853H3.82109V1.63578ZM8.72843 10.3642C8.72843 10.5261 8.67945 10.656 8.58147 10.754C8.48349 10.852 8.34931 10.901 8.17891 10.901H2.73482C2.56443 10.901 2.43024 10.852 2.33227 10.754C2.23429 10.656 2.1853 10.5261 2.1853 10.3642V3.27157H8.72843V10.3642ZM4.37061 4.90735C4.20021 4.90735 4.06603 4.95634 3.96805 5.05431C3.87007 5.15229 3.82109 5.28647 3.82109 5.45687V8.72843C3.82109 8.89031 3.87007 9.02023 3.96805 9.11821C4.06603 9.21619 4.20021 9.26518 4.37061 9.26518C4.53248 9.26518 4.66241 9.21619 4.76038 9.11821C4.85836 9.02023 4.90735 8.89031 4.90735 8.72843V5.45687C4.90735 5.28647 4.85836 5.15229 4.76038 5.05431C4.66241 4.95634 4.53248 4.90735 4.37061 4.90735ZM6.54313 4.90735C6.38125 4.90735 6.25133 4.95634 6.15335 5.05431C6.05538 5.15229 6.00639 5.28647 6.00639 5.45687V8.72843C6.00639 8.89031 6.05538 9.02023 6.15335 9.11821C6.25133 9.21619 6.38125 9.26518 6.54313 9.26518C6.71352 9.26518 6.84771 9.21619 6.94569 9.11821C7.04366 9.02023 7.09265 8.89031 7.09265 8.72843V5.45687C7.09265 5.28647 7.04366 5.15229 6.94569 5.05431C6.84771 4.95634 6.71352 4.90735 6.54313 4.90735Z" fill="#9BB9C2"/>
</svg>
