<svg width="45" height="44" viewBox="0 0 45 44" fill="none" xmlns="http://www.w3.org/2000/svg">
<path d="M22.9702 44C35.1205 44 44.9702 34.1503 44.9702 22C44.9702 9.84974 35.1205 0 22.9702 0C10.82 0 0.970215 9.84974 0.970215 22C0.970215 34.1503 10.82 44 22.9702 44Z" fill="#6996A3"/>
<path fill-rule="evenodd" clip-rule="evenodd" d="M22.8891 14.6286L21.3387 13.8044V12.789L21.6731 12.1838C21.6731 12.1838 21.4516 11.6946 21.8575 11.2825C22.2635 10.8704 22.8891 10.9494 22.8891 10.9494L24.4136 11.4457L25.0171 12.789L24.4136 13.8044L22.8891 14.6286ZM15.9145 26.7591L19.2368 24.8753V22.5543L18.5202 21.1709C18.5202 21.1709 18.9949 20.0528 18.125 19.1109C17.2551 18.169 15.9145 18.3495 15.9145 18.3495L12.6476 19.4839L11.3545 22.5543L12.6476 24.8753L15.9145 26.7591ZM24.1785 20.5958L21.8971 21.485L19.9458 20.1872C19.9458 20.1872 19.5786 19.1296 19.9458 18.0893C20.3131 17.049 21.2507 16.7786 21.8971 16.7786C22.101 16.7786 22.279 16.7663 22.4382 16.7552C22.9502 16.7197 23.2673 16.6977 23.6274 17.1437C24.0995 17.7282 24.4916 18.6122 24.4916 19.1318C24.4916 19.5968 24.1785 20.5958 24.1785 20.5958ZM28.9146 13.0463L31.9564 14.3306C31.9564 14.3306 32.3739 15.7736 32.3739 16.4453C32.3739 17.1958 31.8511 18.4727 31.2217 19.3171C30.7415 19.9612 30.3187 19.9294 29.636 19.8781C29.4238 19.8622 29.1865 19.8444 28.9146 19.8444C28.0528 19.8444 26.8025 19.4537 26.3129 17.9511C25.8233 16.4484 26.3129 14.9209 26.3129 14.9209L28.9146 13.0463ZM29.5804 31.7747L24.8415 33.6155L20.7382 31.7747L19.2368 27.3676L21.5135 25.7669C21.5135 25.7669 22.1673 24.0682 22.9735 23.3689C23.7797 22.6696 25.8418 22.0124 25.8418 22.0124L29.9448 23.6302L31.8484 27.8698L30.2372 29.611L29.5804 31.7747Z" fill="white"/>
</svg>
