<?xml version="1.0" encoding="UTF-8"?>
<svg width="12px" height="12px" viewBox="0 0 12 12" version="1.1" xmlns="http://www.w3.org/2000/svg" xmlns:xlink="http://www.w3.org/1999/xlink">
    <!-- Generator: sketchtool 51.2 (57519) - http://www.bohemiancoding.com/sketch -->
    <title>DB8236AE-DA77-4EED-ACFC-0DD0C5E40BFB</title>
    <desc>Created with sketchtool.</desc>
    <defs></defs>
    <g id="Ikoner" stroke="none" stroke-width="1" fill="none" fill-rule="evenodd">
        <g id="10.1.1-Ikoner-samleark" transform="translate(-24.000000, -24.000000)" fill="#000000" fill-rule="nonzero">
            <path d="M26.5,31 C25.3954305,31 24.5,30.1045695 24.5,29 C24.5,27.8954305 25.3954305,27 26.5,27 C27.6045695,27 28.5,27.8954305 28.5,29 C28.5,30.1045695 27.6045695,31 26.5,31 Z M31,27 C30.1715729,27 29.5,26.3284271 29.5,25.5 C29.5,24.6715729 30.1715729,24 31,24 C31.8284271,24 32.5,24.6715729 32.5,25.5 C32.5,26.3284271 31.8284271,27 31,27 Z M32.5,36 C30.8431458,36 29.5,34.6568542 29.5,33 C29.5,31.3431458 30.8431458,30 32.5,30 C34.1568542,30 35.5,31.3431458 35.5,33 C35.5,34.6568542 34.1568542,36 32.5,36 Z" id="Jord"></path>
        </g>
    </g>
</svg>