<svg width="24" height="24" viewBox="0 0 24 24" fill="none" xmlns="http://www.w3.org/2000/svg">
<path fill-rule="evenodd" clip-rule="evenodd" d="M9.07143 13L5.05357 17.0982L3.64732 15.692C3.5 15.5446 3.34598 15.404 3.18527 15.2701C3.02455 15.1362 2.85045 15.0692 2.66295 15.0692C2.48884 15.0692 2.33482 15.1328 2.20089 15.26C2.06696 15.3873 2 15.5446 2 15.7321L2.02009 21.2768C2.02009 21.3705 2.04018 21.4609 2.08036 21.548C2.12054 21.635 2.17411 21.7054 2.24107 21.7589C2.29464 21.8259 2.36495 21.8828 2.45201 21.9297C2.53906 21.9766 2.62946 22 2.72321 22H8.26786C8.45536 22 8.61272 21.9364 8.73996 21.8092C8.86719 21.6819 8.9308 21.5246 8.9308 21.3371C8.9308 21.1496 8.8538 20.9654 8.69978 20.7846C8.54576 20.6038 8.42188 20.4665 8.32813 20.3728L6.92187 18.9665L11 14.9286L9.07143 13ZM21.9799 2.7433C21.9799 2.63616 21.9598 2.53906 21.9196 2.45201C21.8795 2.36496 21.8259 2.29464 21.7589 2.24107C21.692 2.17411 21.6183 2.11719 21.5379 2.07031C21.4576 2.02344 21.3638 2 21.2567 2H15.6317C15.4442 2 15.2835 2.06696 15.1496 2.20089C15.0156 2.33482 14.9487 2.49553 14.9487 2.68304C14.9487 2.87054 15.029 3.05803 15.1897 3.24554C15.3504 3.43304 15.4777 3.57366 15.5714 3.66741L16.9978 5.09375L13 9.07143L14.9286 11L18.9062 7.02232L20.3326 8.44866C20.4799 8.60938 20.6339 8.7567 20.7946 8.89063C20.9554 9.02455 21.1295 9.09152 21.317 9.09152C21.5045 9.09152 21.6652 9.02455 21.7991 8.89063C21.933 8.7567 22 8.59598 22 8.40848L21.9799 2.7433Z" fill="#fff"/>
</svg>
