<?xml version="1.0" encoding="UTF-8" standalone="no"?>
<!-- Generator: Adobe Illustrator 20.1.0, SVG Export Plug-In . SVG Version: 6.00 Build 0)  -->

<svg
   xmlns:dc="http://purl.org/dc/elements/1.1/"
   xmlns:cc="http://creativecommons.org/ns#"
   xmlns:rdf="http://www.w3.org/1999/02/22-rdf-syntax-ns#"
   xmlns:svg="http://www.w3.org/2000/svg"
   xmlns="http://www.w3.org/2000/svg"
   xmlns:sodipodi="http://sodipodi.sourceforge.net/DTD/sodipodi-0.dtd"
   xmlns:inkscape="http://www.inkscape.org/namespaces/inkscape"
   version="1.1"
   id="Layer_1"
   x="0px"
   y="0px"
   viewBox="0 0 294.60012 294.79999"
   xml:space="preserve"
   sodipodi:docname="ikon_isvarsler2.svg"
   width="294.60013"
   height="294.79999"
   inkscape:version="0.92.0 r15299"><metadata
     id="metadata5076"><rdf:RDF><cc:Work
         rdf:about=""><dc:format>image/svg+xml</dc:format><dc:type
           rdf:resource="http://purl.org/dc/dcmitype/StillImage" /></cc:Work></rdf:RDF></metadata><defs
     id="defs5074" /><sodipodi:namedview
     pagecolor="#ffffff"
     bordercolor="#666666"
     borderopacity="1"
     objecttolerance="10"
     gridtolerance="10"
     guidetolerance="10"
     inkscape:pageopacity="0"
     inkscape:pageshadow="2"
     inkscape:window-width="2560"
     inkscape:window-height="1330"
     id="namedview5072"
     showgrid="false"
     inkscape:zoom="1.1125147"
     inkscape:cx="254.66783"
     inkscape:cy="235.14344"
     inkscape:window-x="3348"
     inkscape:window-y="-12"
     inkscape:window-maximized="1"
     inkscape:current-layer="Layer_1" /><style
     type="text/css"
     id="style5059">
	.st0{fill:#6A7A7B;}
	.st1{fill:#FFFFFF;}
</style><path
     class="st0"
     d="M 147.3,0 C 65.9,0 0,66 0,147.4 c 0,81.4 66,147.4 147.3,147.4 81.4,0 147.3,-66 147.3,-147.4 C 294.7,66 228.7,0 147.3,0 Z"
     id="path5061"
     inkscape:connector-curvature="0"
     style="fill:#6a7a7b" /><g
     id="g5065"
     transform="translate(-171.1,-168.3)"><path
       class="st1"
       d="m 347.3,214.3 c -0.1,1.2 -0.2,2.3 -0.4,3.4 -0.4,1.9 -1.7,3.4 -4.2,4 -4.2,1 -8.5,1.8 -12.8,2.7 -3.5,0.7 -6.9,1.3 -10.4,2 -2.5,0.5 -4.9,1 -7.3,1.5 -6.2,1.2 -12.5,2.5 -18.7,3.7 -2.3,0.4 -3.6,1.5 -3.9,3.2 -0.2,0.7 -0.6,1.2 0.6,1.6 0.2,0.1 0.3,0.5 0.3,0.8 0,4.2 0,8.3 0,12.5 0,0.8 0.1,1.3 1.3,1.6 0.4,0.1 0.7,0.5 1.1,0.7 -0.4,0.2 -0.8,0.5 -1.2,0.7 -0.8,0.4 -2.3,0.6 -2.5,1 -0.3,1.1 0.1,2.4 1.5,3.2 1,0.5 2.1,0.9 3.3,1.3 6.2,1.8 12.4,3.5 18.6,5.2 1.3,0.4 2.6,0.9 3.8,1.5 2.5,1.1 3.7,2.9 3.7,5 0.1,4.2 -0.1,8.4 -0.2,12.6 -0.1,4.7 -0.1,9.4 -0.1,14.1 0,0.4 0.7,0.9 0.7,1.3 0.1,0.8 0,1.6 0,2.4 0,1.1 -0.1,2.2 -0.1,3.3 0.1,2.3 0.2,4.6 0.2,6.9 0,2.2 0,4.3 0,6.5 0,2.8 0,5.7 0,8.5 -0.1,5.3 -0.2,10.6 -0.3,15.9 0,0.9 0.3,1.3 1.5,1.7 2.1,0.7 4.2,1.5 6.3,2.3 0.7,0.3 1.3,0.7 1.8,1.1 2.5,1.7 2.3,3.9 -0.4,5.5 -2.5,1.5 -5.4,2.4 -8.3,3.3 -0.8,0.2 -1.1,0.5 -1.1,1.2 0,2.6 0,5.1 0,7.7 3.3,1.1 6.7,2.2 9.3,4.3 2.4,1.9 2.5,3.9 0.2,5.8 -2.4,1.9 -5.5,3 -8.7,4 -0.9,0.3 -1.2,0.6 -1.2,1.3 0.1,1.6 0.1,3.2 -0.1,4.8 -0.1,1 0.3,1.4 1.6,1.8 3.2,1 6.1,2.3 8.2,4.3 1.9,1.9 1.9,4 0.2,5.9 -1.7,1.9 -4.2,3 -6.6,4.2 -1.4,0.7 -3.2,0.9 -4.8,1.3 -1.9,0.5 -3.7,1.2 -5.7,1.7 -0.7,0.2 -2.2,0.2 -2.4,0 -0.4,-0.6 -0.6,-1.5 -0.2,-2.1 0.9,-1.6 1.9,-3.1 3.6,-4.4 0.5,-0.4 0.8,-1.1 0.8,-1.7 0.1,-3.2 0.1,-6.3 0.1,-9.5 0,-0.4 -0.5,-1 -1,-1.2 -2.2,-0.7 -4.4,-1.3 -6.6,-1.9 -1.1,-0.3 -2.2,-0.5 -3.3,-0.7 0,-0.1 0,-0.2 0,-0.3 0.8,-0.2 1.6,-0.4 2.4,-0.6 2.5,-0.6 4.9,-1.1 7.4,-1.7 1,-0.2 1.4,-0.8 1.4,-1.6 0,-4.6 0,-9.1 0.1,-13.7 0,-0.8 -0.3,-1.2 -1.3,-1.5 -2.7,-0.7 -5.4,-1.4 -8,-2.2 -0.7,-0.2 -1.2,-0.6 -1.8,-0.9 0.6,-0.4 1.1,-0.9 1.8,-1.1 2.5,-0.6 5,-1.2 7.5,-1.8 1.4,-0.3 2,-0.8 2,-2 0,-4.2 0.1,-8.4 0.2,-12.5 0,-0.8 -0.4,-1.1 -1.3,-1.3 -2.5,-0.7 -4.9,-1.4 -7.4,-2.1 -0.6,-0.2 -1.2,-0.5 -1.8,-0.8 -1,-0.5 -1.1,-1.3 -0.1,-1.8 1.1,-0.6 2.3,-1 3.5,-1.4 1.9,-0.6 3.8,-1.1 5.7,-1.5 1.1,-0.2 1.4,-0.7 1.4,-1.4 0.1,-7.2 0.1,-14.5 0.2,-21.7 0.1,-2.8 0.4,-5.6 0.4,-8.4 0,-1.3 -0.3,-2.6 -0.4,-3.9 0,-0.3 0.5,-0.6 0.7,-0.9 0.2,-0.2 0.4,-0.5 0.4,-0.8 0.1,-6.4 0.2,-12.8 0.3,-19.2 0,-2.3 0,-4.5 0.1,-6.8 0.1,-2.3 -1.6,-3.7 -4.3,-4.5 -4.1,-1.2 -8.2,-2.4 -12.3,-3.5 -3,-0.9 -6.2,-1.6 -9.1,-2.5 -3.3,-1 -5.2,-3 -5.5,-5.6 -0.1,-1 -0.9,-1.3 -2,-1.6 -0.2,0 -0.4,-0.1 -0.6,-0.2 -0.4,-0.2 -0.8,-0.5 -1.2,-0.7 0.4,-0.3 0.7,-0.7 1.2,-0.8 1.1,-0.2 1,-0.8 1,-1.3 0.1,-2.4 0,-4.8 0.1,-7.2 0.1,-1.7 0.3,-3.3 0.5,-5 0.1,-0.5 0.6,-1 0.9,-1.5 0.3,-0.6 0.5,-1.2 0.6,-1.8 0.6,-3.3 3.5,-4.9 7.6,-5.7 9.7,-1.9 19.5,-3.7 29.2,-5.6 5.7,-1.1 11.4,-2.2 17.1,-3.3 2.5,-0.5 3.2,-1.2 3.2,-3.1 0,-0.6 0,-1.3 0,-1.9 -0.8,-0.2 -1.5,-0.4 -2.1,-0.7 -0.5,-0.2 -1.1,-0.7 -1.1,-1 0,-0.4 0.6,-0.9 1.1,-1 1.1,-0.3 1,-0.8 1,-1.5 -0.1,-2.4 -0.1,-4.8 -0.1,-7.2 0,-1.1 0.1,-2.3 0.2,-3.4 0,-0.7 0.1,-1.4 1.2,-1.7 1.3,-0.3 2.6,-0.4 3.7,0.2 0.3,0.2 0.5,0.6 0.5,0.9 0.1,3.8 0.2,7.6 0.3,11.5 0,0.5 0.1,0.7 0.7,1 0.6,0.3 1.1,0.8 1.6,1.2 -0.6,0.4 -1.2,0.8 -1.8,1.2 -0.2,0.3 -0.7,0.3 -1.2,0.4 z"
       id="path5063"
       inkscape:connector-curvature="0"
       style="fill:#ffffff" /></g><rect
     x="27.299994"
     y="187.59999"
     class="st1"
     width="103.1"
     height="15.1"
     id="rect5067"
     style="fill:#ffffff" /><rect
     x="161.89999"
     y="187.59999"
     class="st1"
     width="103.7"
     height="15.1"
     id="rect5069"
     style="fill:#ffffff" /></svg>