<?xml version="1.0" encoding="UTF-8" standalone="no"?>
<svg width="70px" height="70px" viewBox="0 0 70 70" version="1.1" xmlns="http://www.w3.org/2000/svg" xmlns:xlink="http://www.w3.org/1999/xlink">
    <!-- Generator: Sketch 3.6.1 (26313) - http://www.bohemiancoding.com/sketch -->
    <title>Flom@2x</title>
    <desc>Created with Sketch.</desc>
    <defs></defs>
    <g id="Page-1" stroke="none" stroke-width="1" fill="none" fill-rule="evenodd">
        <g id="iPhone-5/5S/5C-1-varsel" transform="translate(-227.000000, -340.000000)" fill="#69797A">
            <g id="Ikoner-varsel-mobil" transform="translate(15.000000, 331.000000)">
                <g id="Flom" transform="translate(212.000000, 9.000000)">
                    <path d="M69.4298643,34.7252747 C69.4298643,53.9037546 53.8876998,69.4505495 34.7149321,69.4505495 C15.5421644,69.4505495 0,53.9037546 0,34.7252747 C0,15.5467949 15.5421644,0 34.7149321,0 C53.8876998,0 69.4298643,15.5467949 69.4298643,34.7252747 M30.0139517,22.6527436 C30.0139517,25.0487875 31.9565415,26.9934029 34.3533183,26.9934029 C36.7486486,26.9934029 38.6926848,25.0487875 38.6926848,22.6527436 C38.6926848,20.2566996 36.7486486,18.3120842 34.3533183,18.3120842 C31.9565415,18.3120842 30.0139517,20.2566996 30.0139517,22.6527436 L30.0139517,22.6527436 Z M48.8713922,28.916315 C46.3256305,29.1680733 44.7099397,30.5310403 43.5079351,31.4946667 C42.358003,32.4134396 41.5219517,33.120967 39.7688477,33.120967 C38.01719,33.120967 37.2216395,32.5639158 36.0717074,31.6451429 C34.7192715,30.5614249 33.0196863,29.2375238 29.8215732,29.2375238 C26.6263529,29.2375238 24.9412323,30.5874689 23.5887964,31.6711868 C22.6587255,32.4148864 21.9817843,33.1426703 20.8347451,33.1426703 L20.2503771,33.1426703 L20.2503771,27.3551245 L15.474181,27.3551245 C15.2687843,27.3551245 15.1414962,27.3884029 15.0894238,27.2871209 C15.0373514,27.1858388 15.0952097,27.0932381 15.2586591,26.9297399 L34.3446395,8.23017949 C34.508089,8.08549084 34.7004676,8.02327473 34.9159894,8.02327473 C35.1300649,8.02327473 35.3094253,8.09995971 35.4540709,8.24609524 L54.1712051,26.9702527 C54.3346546,27.1351978 54.3925128,27.1843919 54.3404404,27.285674 C54.2898145,27.3884029 54.1596335,27.3551245 53.9571297,27.3551245 L49.1794872,27.3551245 L49.1794872,28.802011 L48.8713922,28.916315 Z M59.3046757,51.3036996 C56.4117647,51.3036996 54.5140151,49.9552015 53.1601327,48.8714835 C52.0102006,47.9512637 51.297098,47.3435714 49.543994,47.3435714 C47.7923363,47.3435714 47.054644,47.9512637 45.9076048,48.8714835 C44.552276,49.9552015 42.8772805,51.3036996 39.6806139,51.3036996 C36.4839472,51.3036996 34.8046124,49.9537546 33.45073,48.8714835 C32.3007979,47.9512637 31.5457481,47.3435714 29.7940905,47.3435714 C28.0467722,47.3435714 27.290276,47.9512637 26.1417903,48.8714835 C24.7893544,49.9537546 23.1071267,51.3036996 19.9119065,51.3036996 C16.7166863,51.3036996 15.083638,49.9537546 13.7297557,48.8714835 C12.58127,47.9512637 11.571644,47.3435714 10.1251885,47.3435714 L10.1251885,43.2199451 C13.0180995,43.2199451 14.953457,44.5684432 16.3058929,45.6536081 C17.455825,46.5709341 18.189178,47.1786264 19.9379427,47.1786264 C21.6852609,47.1786264 22.431632,46.5709341 23.5786712,45.6536081 C24.9311071,44.5684432 26.6089955,43.2199451 29.8027692,43.2199451 C32.9994359,43.2199451 34.6831101,44.5684432 36.0340995,45.6536081 C37.1840317,46.5709341 37.9405279,47.1786264 39.6921855,47.1786264 C41.4452896,47.1786264 42.2061252,46.5709341 43.3560573,45.6507143 C44.7099397,44.5684432 46.3936139,43.2199451 49.5902805,43.2199451 C52.7898401,43.2199451 54.3809412,44.5684432 55.7333771,45.6507143 C56.8862021,46.5709341 57.8582202,47.1786264 59.3046757,47.1786264 L59.3046757,51.3036996 Z M59.3046757,41.681326 C56.4117647,41.681326 54.5140151,40.3342747 53.1601327,39.2491099 C52.0102006,38.330337 51.297098,37.7211978 49.543994,37.7211978 C47.7923363,37.7211978 47.054644,38.330337 45.9076048,39.2491099 C44.552276,40.3342747 42.8772805,41.681326 39.6806139,41.681326 C36.4839472,41.681326 34.8046124,40.331381 33.45073,39.2491099 C32.3007979,38.330337 31.5457481,37.7211978 29.7940905,37.7211978 C28.0467722,37.7211978 27.290276,38.330337 26.1417903,39.2491099 C24.7893544,40.331381 23.1071267,41.681326 19.9119065,41.681326 C16.7166863,41.681326 15.083638,40.331381 13.7297557,39.2491099 C12.58127,38.330337 11.571644,37.7211978 10.1251885,37.7211978 L10.1251885,33.5975714 C13.0180995,33.5975714 14.953457,34.9475165 16.3058929,36.0312344 C17.455825,36.9485604 18.189178,37.5576996 19.9379427,37.5576996 C21.6852609,37.5576996 22.431632,36.9485604 23.5786712,36.0312344 C24.9311071,34.9475165 26.6089955,33.5975714 29.8027692,33.5975714 C32.9994359,33.5975714 34.6816637,34.9475165 36.0340995,36.0312344 C37.1840317,36.9485604 37.9405279,37.5576996 39.6921855,37.5576996 C41.4452896,37.5576996 42.2061252,36.9485604 43.3560573,36.0297875 C44.7099397,34.9460696 46.3936139,33.5975714 49.5902805,33.5975714 C52.7898401,33.5975714 54.3809412,34.9460696 55.7333771,36.0297875 C56.8862021,36.9485604 57.8582202,37.5576996 59.3046757,37.5576996 L59.3046757,41.681326 Z"></path>
                </g>
            </g>
        </g>
    </g>
</svg>