<?xml version="1.0" encoding="UTF-8" standalone="no"?>
<svg width="70px" height="70px" viewBox="0 0 70 70" version="1.1" xmlns="http://www.w3.org/2000/svg" xmlns:xlink="http://www.w3.org/1999/xlink">
    <!-- Generator: Sketch 3.6.1 (26313) - http://www.bohemiancoding.com/sketch -->
    <title>Snøskred 2</title>
    <desc>Created with Sketch.</desc>
    <defs></defs>
    <g id="Page-1" stroke="none" stroke-width="1" fill="none" fill-rule="evenodd">
        <g id="iPhone-5/5S/5C-startside-u-varsel-Copy" transform="translate(-24.000000, -181.000000)">
            <g id="Ikoner-varsel-mobil" transform="translate(15.000000, 172.000000)">
                <g id="Snøskred-2" transform="translate(9.000000, 9.000000)">
                    <path d="M70,35 C70,54.3302083 54.3302083,70 35,70 C15.6697917,70 0,54.3302083 0,35 C0,15.6697917 15.6697917,0 35,0 C54.3302083,0 70,15.6697917 70,35" id="Fill-1" fill="#69797A"></path>
                    <path d="M51.6917917,41.0697292 C51.62325,41.0726458 51.55325,41.0741042 51.48325,41.0741042 C50.3545,41.0741042 49.3074167,40.7284792 48.442625,40.1349375 C47.9249167,40.5724375 47.5778333,40.7576458 47.5778333,40.7576458 C45.76075,41.9622292 43.350125,41.9272292 40.6711667,40.8859792 C38.441375,40.0182708 37.058875,38.6868125 34.9355417,37.6922292 C32.8136667,36.6961875 31.6090833,37.7855625 28.68075,38.0393125 C26.9336667,38.1895208 25.885125,37.9168125 24.4472083,37.0257708 C24.4472083,37.0257708 22.4667917,35.3486875 18.7072083,35.3647292 L12.138875,46.7047292 C11.6649167,47.4878542 11.5934583,48.1659792 11.9230417,48.7318125 C12.2540833,49.3005625 12.8724167,49.5834792 13.7809583,49.5834792 L53.3017917,49.5834792 C54.2103333,49.5834792 54.830125,49.3005625 55.1597083,48.7318125 C55.4892917,48.1659792 55.4192917,47.4878542 54.943875,46.7047292 L51.6917917,41.0682708 L51.6917917,41.0697292 Z" id="Fill-3" fill="#FFFFFF"></path>
                    <path d="M46.7086667,36.6121875 C46.6809583,36.3832292 46.666375,36.1498958 46.666375,35.9121875 C46.666375,34.6157292 47.09075,33.4198958 47.8067917,32.4501042 C46.7874167,33.0859375 45.7417917,33.3601042 44.4555417,33.3601042 C40.786375,33.3601042 37.8011667,30.3748958 37.8011667,26.7057292 C37.8011667,24.6494792 38.7403333,22.8061458 40.2103333,21.5840625 L31.542,11.0709375 C30.960125,10.3490625 30.34325,10.0486458 29.691375,10.1536458 C29.0395,10.2659375 28.55825,10.7530208 28.2403333,11.6236458 L20.8859583,31.3432292 L21.860125,31.4584375 C23.793875,31.8580208 25.2405417,33.0436458 25.2405417,33.0436458 C26.5224167,34.0207292 26.9424167,34.3576042 29.061375,34.1957292 C32.3353333,33.9536458 33.1811667,32.4807292 35.4474167,33.0786458 C38.1161667,33.7873958 39.2245,34.8476042 41.363875,35.9238542 C43.6709583,37.0817708 45.3217917,37.0730208 46.7086667,36.6121875" id="Fill-5" fill="#FFFFFF"></path>
                    <path d="M44.7205208,22.0829583 C44.8109375,22.0829583 44.9130208,22.0873333 45.0267708,22.0960833 C45.1419792,22.1062917 45.2323958,22.1150417 45.2980208,22.1281667 L45.3971875,22.1369167 C45.4569792,22.1485833 45.5094792,22.1806667 45.5546875,22.2317083 C45.5998958,22.28275 45.6232292,22.3381667 45.6232292,22.3994167 L45.6232292,24.4206667 L47.0480208,22.9944167 C47.0903125,22.952125 47.1442708,22.9287917 47.2113542,22.9229583 C47.2769792,22.9156667 47.3338542,22.934625 47.3819792,22.9754583 L48.3386458,23.932125 C48.3794792,23.98025 48.3984375,24.037125 48.3926042,24.1042083 C48.3867708,24.1712917 48.3634375,24.22525 48.3196875,24.2660833 L46.8948958,25.6923333 L48.9146875,25.6923333 C48.9759375,25.6923333 49.0313542,25.7142083 49.0823958,25.7594167 C49.1334375,25.804625 49.1655208,25.857125 49.1771875,25.9169167 C49.2136458,26.1648333 49.2311458,26.390875 49.2311458,26.5950417 C49.2311458,26.684 49.2267708,26.7875417 49.2180208,26.9012917 C49.2092708,27.0150417 49.1990625,27.1054583 49.1859375,27.1725417 L49.1771875,27.2717083 C49.1655208,27.3315 49.1334375,27.384 49.0823958,27.4292083 C49.0313542,27.4744167 48.9759375,27.4962917 48.9146875,27.4962917 L46.8948958,27.4962917 L48.3196875,28.9210833 C48.3634375,28.9648333 48.3867708,29.0187917 48.3926042,29.0844167 C48.3984375,29.1515 48.3794792,29.208375 48.3386458,29.2565 L47.3819792,30.2117083 C47.3338542,30.2554583 47.2769792,30.2729583 47.2113542,30.2656667 C47.1442708,30.2612917 47.0903125,30.2365 47.0480208,30.1942083 L45.6232292,28.7679583 L45.6232292,30.7892083 C45.6232292,30.8504583 45.5998958,30.905875 45.5546875,30.9569167 C45.5094792,31.0079583 45.4569792,31.0400417 45.3971875,31.0517083 C45.1492708,31.0881667 44.9246875,31.1056667 44.7205208,31.1056667 C44.6301042,31.1056667 44.5280208,31.1012917 44.4142708,31.0925417 C44.2990625,31.0823333 44.2086458,31.0735833 44.1430208,31.0604583 L44.0438542,31.0517083 C43.9840625,31.0400417 43.9301042,31.0079583 43.8848958,30.9569167 C43.8396875,30.905875 43.8178125,30.8504583 43.8178125,30.7892083 L43.8178125,28.7679583 L42.3930208,30.1942083 C42.3507292,30.2365 42.2953125,30.2612917 42.2296875,30.2656667 C42.1640625,30.2729583 42.1071875,30.2554583 42.0576042,30.2117083 L41.1023958,29.2565 C41.0601042,29.208375 41.0426042,29.1515 41.0484375,29.0844167 C41.0542708,29.0187917 41.0776042,28.9648333 41.1198958,28.9210833 L42.5461458,27.4962917 L40.5248958,27.4962917 C40.4651042,27.4962917 40.4082292,27.4744167 40.3571875,27.4292083 C40.3061458,27.384 40.2755208,27.3315 40.2623958,27.2717083 C40.2273958,27.02525 40.2084375,26.7992083 40.2084375,26.5950417 C40.2084375,26.504625 40.2128125,26.4025417 40.2230208,26.2873333 C40.2317708,26.1735833 40.2419792,26.0831667 40.2536458,26.0160833 L40.2623958,25.9169167 C40.2755208,25.857125 40.3061458,25.804625 40.3571875,25.7594167 C40.4082292,25.7142083 40.4651042,25.6923333 40.5248958,25.6923333 L42.5461458,25.6923333 L41.1198958,24.2660833 C41.0776042,24.22525 41.0542708,24.1712917 41.0484375,24.1042083 C41.0426042,24.037125 41.0601042,23.98025 41.1023958,23.932125 L42.0576042,22.9754583 C42.1071875,22.934625 42.1640625,22.9156667 42.2296875,22.9229583 C42.2953125,22.9287917 42.3507292,22.952125 42.3930208,22.9944167 L43.8178125,24.4206667 L43.8178125,22.3994167 C43.8178125,22.3381667 43.8396875,22.28275 43.8848958,22.2317083 C43.9301042,22.1806667 43.9840625,22.1485833 44.0438542,22.1369167 C44.2903125,22.1019167 44.5163542,22.0829583 44.7205208,22.0829583" id="Fill-7" fill="#FFFFFF"></path>
                    <path d="M52.6943958,32.1423958 C52.7673125,32.1423958 52.8504375,32.1453125 52.9423125,32.1540625 C53.0356458,32.1613542 53.1085625,32.1686458 53.1625208,32.1788542 L53.2412708,32.1861458 C53.2908542,32.1963542 53.3331458,32.2226042 53.3696042,32.2634375 C53.4060625,32.3042708 53.4235625,32.3494792 53.4235625,32.3976042 L53.4235625,34.0309375 L54.5771042,32.8788542 C54.6106458,32.8453125 54.6543958,32.8263542 54.7083542,32.8205208 C54.7608542,32.8146875 54.8089792,32.8307292 54.8468958,32.8642708 L55.6198125,33.6371875 C55.6518958,33.6751042 55.6679375,33.7217708 55.6635625,33.7757292 C55.6577292,33.8296875 55.6387708,33.8734375 55.6052292,33.9055208 L54.4531458,35.0590625 L56.0850208,35.0590625 C56.1346042,35.0590625 56.1798125,35.0765625 56.2206458,35.1144792 C56.2614792,35.1509375 56.2877292,35.1917708 56.2979375,35.2413542 C56.3256458,35.4411458 56.3402292,35.6234375 56.3402292,35.7882292 C56.3402292,35.8596875 56.3373125,35.9442708 56.3300208,36.0361458 C56.3227292,36.1280208 56.3139792,36.2023958 56.3052292,36.2563542 L56.2979375,36.3351042 C56.2877292,36.3846875 56.2614792,36.4269792 56.2206458,36.4634375 C56.1798125,36.4998958 56.1346042,36.5173958 56.0850208,36.5173958 L54.4531458,36.5173958 L55.6052292,37.6694792 C55.6387708,37.7044792 55.6577292,37.7467708 55.6635625,37.8007292 C55.6679375,37.8546875 55.6518958,37.9013542 55.6198125,37.9392708 L54.8468958,38.7107292 C54.8089792,38.7457292 54.7608542,38.7617708 54.7083542,38.7559375 C54.6543958,38.7515625 54.6106458,38.7326042 54.5771042,38.6976042 L53.4235625,37.5455208 L53.4235625,39.1788542 C53.4235625,39.2269792 53.4060625,39.2721875 53.3696042,39.3130208 C53.3331458,39.3553125 53.2908542,39.3801042 53.2412708,39.3903125 C53.0429375,39.4194792 52.8606458,39.4340625 52.6943958,39.4340625 C52.6229375,39.4340625 52.5398125,39.4311458 52.4479375,39.4223958 C52.3546042,39.4151042 52.2816875,39.4063542 52.2277292,39.3976042 L52.1475208,39.3903125 C52.0993958,39.3801042 52.0571042,39.3553125 52.0206458,39.3130208 C51.9841875,39.2721875 51.9652292,39.2269792 51.9652292,39.1788542 L51.9652292,37.5455208 L50.8146042,38.6976042 C50.7796042,38.7326042 50.7358542,38.7515625 50.6818958,38.7559375 C50.6293958,38.7617708 50.5841875,38.7457292 50.5433542,38.7107292 L49.7718958,37.9392708 C49.7383542,37.9013542 49.7223125,37.8546875 49.7281458,37.8007292 C49.7325208,37.7467708 49.7514792,37.7044792 49.7850208,37.6694792 L50.9371042,36.5173958 L49.3052292,36.5173958 C49.2556458,36.5173958 49.2104375,36.4998958 49.1696042,36.4634375 C49.1287708,36.4269792 49.1025208,36.3846875 49.0923125,36.3351042 C49.0646042,36.1367708 49.0485625,35.9544792 49.0485625,35.7882292 C49.0485625,35.7153125 49.0529375,35.6336458 49.0602292,35.5417708 C49.0675208,35.4484375 49.0762708,35.3755208 49.0850208,35.3201042 L49.0923125,35.2413542 C49.1025208,35.1917708 49.1287708,35.1509375 49.1696042,35.1144792 C49.2104375,35.0765625 49.2556458,35.0590625 49.3052292,35.0590625 L50.9371042,35.0590625 L49.7850208,33.9055208 C49.7514792,33.8734375 49.7325208,33.8296875 49.7281458,33.7757292 C49.7223125,33.7217708 49.7383542,33.6751042 49.7718958,33.6371875 L50.5433542,32.8642708 C50.5841875,32.8307292 50.6293958,32.8146875 50.6818958,32.8205208 C50.7358542,32.8263542 50.7796042,32.8453125 50.8146042,32.8788542 L51.9652292,34.0309375 L51.9652292,32.3976042 C51.9652292,32.3494792 51.9841875,32.3042708 52.0206458,32.2634375 C52.0571042,32.2226042 52.0993958,32.1963542 52.1475208,32.1861458 C52.3473125,32.1569792 52.5296042,32.1423958 52.6943958,32.1423958" id="Fill-9" fill="#FFFFFF"></path>
                </g>
            </g>
        </g>
    </g>
</svg>