<svg width="70" height="70" viewBox="0 0 70 70" xmlns="http://www.w3.org/2000/svg"><title>Jordskred 3@2x</title><g id="Page-1" fill="none" fill-rule="evenodd"><g id="iPhone-5/5S/5C-1-varsel" transform="translate(-126 -340)"><g id="Ikoner-varsel-mobil" transform="translate(15 331)"><g id="Jordskred-3" transform="translate(111 9)"><path d="M70 35c0 19.33-15.67 35-35 35S0 54.33 0 35 15.67 0 35 0s35 15.67 35 35" id="Fill-1" fill="#69797A"/><path d="M14.992 46.75c-.245-.774-.033-1.824.468-2.744 3.56-6.514 9.178-1.877 14.012-4.083 2.794-1.276 5.495-4.326 5.495-4.326L24.859 21.376c-.353-.622-.78-.932-1.289-.932-.509 0-.936.31-1.288.932l-15.18 23.16c-.366.603-.42 1.125-.166 1.56.253.436.73.655 1.428.655h6.628z" id="Fill-3" fill="#FFF"/><path d="M34.967 35.595s-.007 2.627.397 3.643c.615 1.55 1.601 2.49 2.736 2.872 2.3.774 2.505 1.891 2.505 2.46 0 .732-.73 2.097-1.83 2.097h22.68c.7 0 1.177-.177 1.43-.613.253-.436.197-.937-.167-1.54l-15.18-26.3c-.351-.62-.779-.925-1.29-.925-.507 0-.934.312-1.285.933l-9.996 17.373" id="Fill-5" fill="#FFF"/></g></g></g></g></svg>