<svg width="15" height="15" viewBox="0 0 15 15" fill="none" xmlns="http://www.w3.org/2000/svg">
<path d="M15 7.5C15 11.6422 11.6422 15 7.5 15C3.35781 15 0 11.6422 0 7.5C0 3.35781 3.35781 0 7.5 0C11.6422 0 15 3.35781 15 7.5Z" fill="#757575"/>
<path d="M11.2953 11H3.65886C3.32788 11 3.08823 10.6842 3.1773 10.3654L4.8903 4.23471C5.01474 3.78936 5.6251 3.73705 5.8235 4.15473L6.54722 5.67836C6.73616 6.07613 7.30983 6.05308 7.46625 5.64144L8.3633 3.28078C8.52897 2.84481 9.14855 2.85301 9.30262 3.29321L11.7672 10.3348C11.881 10.6599 11.6397 11 11.2953 11Z" fill="white"/>
</svg>
