<svg width="40" height="40" viewBox="0 0 40 40" fill="none" xmlns="http://www.w3.org/2000/svg">
<circle cx="20" cy="20" r="20" fill="#DAE5E8"/>
<path d="M5.86539 5.86539C9.77566 1.95511 14.4872 0 20 0C25.5128 0 30.2243 1.95511 34.1346 5.86539C38.0449 9.77566 40 14.4872 40 20C40 25.5128 38.0449 30.2243 34.1346 34.1346C30.2243 38.0449 25.5128 40 20 40C14.4872 40 9.77566 38.0449 5.86539 34.1346C1.95511 30.2243 0 25.5128 0 20C0 14.4872 1.95511 9.77566 5.86539 5.86539ZM32.9808 7.01923C29.391 3.42947 25.0641 1.63462 20 1.63462C14.9359 1.63462 10.609 3.42947 7.01923 7.01923C3.42947 10.609 1.63462 14.9359 1.63462 20C1.63462 24.4231 3.07691 28.3333 5.96154 31.7308C8.52565 30.5769 11.4102 29.5513 14.6154 28.6538C14.8077 28.5256 14.9038 28.2051 14.9038 27.6923C14.9038 26.6667 14.7756 25.8974 14.5192 25.3846C14.1987 24.6795 13.9103 23.6859 13.6538 22.4038C13.0769 21.6346 12.6282 20.5769 12.3077 19.2308C12.1154 18.2051 12.1474 17.3077 12.4038 16.5385V16.3462C12.5962 15.7051 12.5 14.4872 12.1154 12.6923C11.7949 11.0256 12.2756 9.35898 13.5577 7.69231C14.7756 6.08974 16.6346 5.19231 19.1346 5H20.8654C23.3654 5.12821 25.2244 6.02563 26.4423 7.69231C27.7244 9.35898 28.2051 11.0256 27.8846 12.6923C27.5 14.4872 27.4038 15.7051 27.5962 16.3462C27.6603 16.4103 27.6923 16.4744 27.6923 16.5385C27.8846 17.1795 27.8846 18.0769 27.6923 19.2308C27.4359 20.5128 26.9872 21.5385 26.3462 22.3077C26.0897 23.718 25.8013 24.7436 25.4808 25.3846C25.0962 26.2821 24.9038 27.0192 24.9038 27.5962C24.9038 28.2372 24.9679 28.5897 25.0962 28.6538C28.3013 29.6154 31.282 30.641 34.0385 31.7308C36.9231 28.3333 38.3654 24.4231 38.3654 20C38.3654 14.9359 36.5705 10.609 32.9808 7.01923Z" fill="#044962"/>
</svg>
