<svg width="16" height="16" viewBox="0 0 16 16" fill="none" xmlns="http://www.w3.org/2000/svg">
<path d="M8 13.4505C7.24652 13.4505 6.53863 13.3077 5.8763 13.0221C5.21397 12.7365 4.63672 12.3477 4.14453 11.8555C3.65234 11.3633 3.26346 10.786 2.97786 10.1237C2.69227 9.46137 2.54948 8.75348 2.54948 8C2.54948 7.25868 2.69227 6.55686 2.97786 5.89453C3.26346 5.2322 3.65234 4.65495 4.14453 4.16276C4.63672 3.67057 5.21397 3.28169 5.8763 2.99609C6.53863 2.7105 7.24652 2.56771 8 2.56771C8.75348 2.56771 9.45833 2.7105 10.1146 2.99609C10.7708 3.28169 11.3481 3.66753 11.8464 4.15365L9.54948 6.45052H15V1L12.9401 3.0599C12.3082 2.42795 11.5668 1.92665 10.7161 1.55599C9.86545 1.18533 8.96007 1 8 1C7.03993 1 6.13455 1.18533 5.28385 1.55599C4.43316 1.92665 3.68881 2.42795 3.05078 3.0599C2.41276 3.69184 1.91146 4.43316 1.54688 5.28385C1.18229 6.13455 1 7.03993 1 8C1 8.97223 1.18229 9.88368 1.54688 10.7344C1.91146 11.5851 2.41276 12.3264 3.05078 12.9583C3.68881 13.5903 4.43316 14.0885 5.28385 14.4531C6.13455 14.8177 7.03993 15 8 15C8.82639 15 9.61328 14.8633 10.3607 14.5898C11.1081 14.3164 11.7825 13.9366 12.3841 13.4505C12.9857 12.9644 13.4961 12.3902 13.9154 11.7279C14.3346 11.0655 14.6354 10.3455 14.8177 9.56771H13.2135C13.0434 10.1267 12.7912 10.6432 12.457 11.1172C12.1228 11.5911 11.7279 12.0013 11.2721 12.3477C10.8164 12.694 10.3121 12.9644 9.75911 13.1589C9.20616 13.3533 8.61979 13.4505 8 13.4505Z" fill="#8C8C8C"/>
</svg>