<svg width="44" height="44" viewBox="0 0 44 44" fill="none" xmlns="http://www.w3.org/2000/svg">
<path d="M22 44C34.1503 44 44 34.1503 44 22C44 9.84974 34.1503 0 22 0C9.84974 0 0 9.84974 0 22C0 34.1503 9.84974 44 22 44Z" fill="#6996A3"/>
<path fill-rule="evenodd" clip-rule="evenodd" d="M31.0439 24.6259L28.9863 25.0181L31.2779 26.2897C31.4669 26.3927 31.588 26.5452 31.6414 26.7472C31.6948 26.9492 31.6681 27.1413 31.5613 27.3236C31.4463 27.5058 31.2862 27.6226 31.0808 27.6741C30.8755 27.7256 30.6783 27.6999 30.4894 27.5969L28.1977 26.3372L28.8754 28.2386C28.9822 28.5397 28.9329 28.7912 28.7275 28.9933C28.5222 29.1953 28.2737 29.2765 27.9821 29.2369C27.6905 29.1973 27.4913 29.0309 27.3845 28.7378L26.1278 25.1726L22.7889 23.3187V27.0383L25.3516 29.8667C25.483 30.0093 25.5528 30.1638 25.5611 30.3302C25.5693 30.4966 25.5241 30.6412 25.4255 30.764C25.327 30.8868 25.2099 30.9858 25.0744 31.0611C24.9388 31.1363 24.7869 31.1581 24.6185 31.1264C24.4501 31.0947 24.3002 31.0076 24.1688 30.865L22.7889 29.3438V31.887C22.7889 32.093 22.7108 32.2712 22.5548 32.4218C22.3987 32.5723 22.2139 32.6476 22.0003 32.6476C21.7867 32.6476 21.6019 32.5723 21.4459 32.4218C21.2898 32.2712 21.2118 32.093 21.2118 31.887V29.3438L19.8318 30.865C19.7004 31.0076 19.5505 31.0947 19.3821 31.1264C19.2137 31.1581 19.0618 31.1363 18.9262 31.0611C18.7907 30.9858 18.6737 30.8868 18.5751 30.764C18.4765 30.6412 18.4314 30.4966 18.4396 30.3302C18.4478 30.1638 18.5176 30.0093 18.649 29.8667L21.2118 27.0383V23.3187L17.8728 25.1726L16.6161 28.7378C16.5093 29.0309 16.3101 29.1973 16.0185 29.2369C15.7269 29.2765 15.4785 29.1953 15.2731 28.9933C15.0678 28.7912 15.0185 28.5397 15.1253 28.2386L15.8029 26.3372L13.5112 27.5969C13.3223 27.6999 13.1252 27.7256 12.9198 27.6741C12.7145 27.6226 12.5543 27.5058 12.4393 27.3236C12.3325 27.1413 12.3058 26.9492 12.3592 26.7472C12.4126 26.5452 12.5338 26.3927 12.7227 26.2897L15.0144 25.0181L12.9568 24.6259C12.7186 24.5784 12.5461 24.4635 12.4393 24.2813C12.3325 24.0991 12.2976 23.9149 12.3346 23.7287C12.3715 23.5425 12.4763 23.384 12.6488 23.2533C12.8212 23.1226 13.0266 23.081 13.2648 23.1285L17.0843 23.8653L20.4232 21.9996L17.0843 20.1338L13.2648 20.8706C13.2319 20.8785 13.1786 20.8825 13.1046 20.8825C12.8828 20.8825 12.7021 20.8112 12.5625 20.6686C12.4229 20.526 12.3448 20.3675 12.3284 20.1932C12.312 20.0189 12.3572 19.8486 12.4639 19.6822C12.5707 19.5158 12.735 19.4128 12.9568 19.3732L15.0144 18.981L12.7227 17.7095C12.5338 17.6065 12.4126 17.454 12.3592 17.2519C12.3058 17.0499 12.3325 16.8578 12.4393 16.6756C12.5461 16.4933 12.7062 16.3745 12.9198 16.319C13.1334 16.2636 13.3305 16.2913 13.5112 16.4022L15.8029 17.6619L15.1253 15.7605C15.0185 15.4594 15.0678 15.2079 15.2731 15.0059C15.4785 14.8038 15.7269 14.7226 16.0185 14.7623C16.3101 14.8019 16.5093 14.9682 16.6161 15.2614L17.8728 18.8266L21.2118 20.6804V16.9608L18.649 14.1324C18.5176 13.9898 18.4478 13.8353 18.4396 13.6689C18.4314 13.5026 18.4765 13.358 18.5751 13.2352C18.6737 13.1124 18.7907 13.0133 18.9262 12.9381C19.0618 12.8628 19.2137 12.841 19.3821 12.8727C19.5505 12.9044 19.7004 12.9915 19.8318 13.1342L21.2118 14.6553V12.1121C21.2118 11.9061 21.2898 11.7279 21.4459 11.5774C21.6019 11.4268 21.7867 11.3516 22.0003 11.3516C22.2139 11.3516 22.3987 11.4268 22.5548 11.5774C22.7108 11.7279 22.7889 11.9061 22.7889 12.1121V14.6553L24.1688 13.1342C24.3002 12.9915 24.4501 12.9044 24.6185 12.8727C24.7869 12.841 24.9388 12.8628 25.0744 12.9381C25.2099 13.0133 25.327 13.1124 25.4255 13.2352C25.5241 13.358 25.5693 13.5026 25.5611 13.6689C25.5528 13.8353 25.483 13.9898 25.3516 14.1324L22.7889 16.9608V20.6804L26.1278 18.8266L27.3845 15.2614C27.4913 14.9682 27.6905 14.8019 27.9821 14.7623C28.2737 14.7226 28.5222 14.8038 28.7275 15.0059C28.9329 15.2079 28.9822 15.4594 28.8754 15.7605L28.1977 17.6619L30.4894 16.4022C30.6783 16.2992 30.8755 16.2735 31.0808 16.325C31.2862 16.3765 31.4463 16.4933 31.5613 16.6756C31.6681 16.8578 31.6948 17.0499 31.6414 17.2519C31.588 17.454 31.4669 17.6065 31.2779 17.7095L28.9863 18.981L31.0439 19.3732C31.2656 19.4128 31.4299 19.5158 31.5367 19.6822C31.6435 19.8486 31.6886 20.0189 31.6722 20.1932C31.6558 20.3675 31.5778 20.526 31.4381 20.6686C31.2985 20.8112 31.1178 20.8825 30.896 20.8825C30.8221 20.8825 30.7687 20.8785 30.7358 20.8706L26.9163 20.1338L23.5774 21.9996L26.9163 23.8653L30.7358 23.1285C30.974 23.081 31.1794 23.1226 31.3519 23.2533C31.5244 23.384 31.6291 23.5425 31.6661 23.7287C31.703 23.9149 31.6681 24.0991 31.5613 24.2813C31.4545 24.4635 31.2821 24.5784 31.0439 24.6259Z" fill="white"/>
</svg>
