<?xml version="1.0" encoding="UTF-8"?>
<svg width="10px" height="12px" viewBox="0 0 10 12" version="1.1" xmlns="http://www.w3.org/2000/svg" xmlns:xlink="http://www.w3.org/1999/xlink">
    <!-- Generator: sketchtool 51.2 (57519) - http://www.bohemiancoding.com/sketch -->
    <title>488AC9DE-2B40-4E68-8CE9-6B2EEDCE491A</title>
    <desc>Created with sketchtool.</desc>
    <defs></defs>
    <g id="Ikoner" stroke="none" stroke-width="1" fill="none" fill-rule="evenodd">
        <g id="10.1.1-Ikoner-samleark" transform="translate(-105.000000, -24.000000)" fill="#029BB3">
            <path d="M114.671249,31.3565846 L113.608444,31.5591524 L114.792166,32.2159596 C114.88975,32.2691598 114.952331,32.3479349 114.979908,32.4522877 C115.007486,32.5566406 114.993698,32.6558771 114.938541,32.75 C114.879143,32.8441229 114.79641,32.9044826 114.690342,32.931082 C114.584273,32.9576828 114.482448,32.9443824 114.384864,32.8911836 L113.201142,32.240513 L113.551168,33.2226562 C113.606323,33.3781633 113.580867,33.5080911 113.474798,33.612444 C113.368729,33.7167969 113.240388,33.7587426 113.08977,33.7382812 C112.939153,33.7178199 112.836268,33.6318838 112.781111,33.4804688 L112.131973,31.6389505 L110.407303,30.681362 L110.407303,32.6026784 L111.731035,34.0636159 C111.798919,34.1372771 111.834983,34.2170755 111.839225,34.3030134 C111.843468,34.3889513 111.820133,34.4636343 111.76922,34.5270647 C111.718306,34.5904951 111.657848,34.6416479 111.587844,34.6805246 C111.517837,34.7194012 111.439347,34.7306549 111.352371,34.7142857 C111.265395,34.6979166 111.187966,34.6529021 111.120082,34.579241 L110.407303,33.7935274 L110.407303,35.1071428 C110.407303,35.2135423 110.366997,35.3056172 110.286384,35.3833705 C110.205772,35.4611239 110.110312,35.5 110,35.5 C109.889689,35.5 109.794228,35.4611239 109.713615,35.3833705 C109.633004,35.3056172 109.592698,35.2135423 109.592698,35.1071428 L109.592698,33.7935274 L108.879919,34.579241 C108.812035,34.6529021 108.734606,34.6979166 108.64763,34.7142857 C108.560652,34.7306549 108.482162,34.7194012 108.412157,34.6805246 C108.342153,34.6416479 108.281693,34.5904951 108.230781,34.5270647 C108.179867,34.4636343 108.156533,34.3889513 108.160776,34.3030134 C108.165018,34.2170755 108.201081,34.1372771 108.268966,34.0636159 L109.592698,32.6026784 L109.592698,30.681362 L107.868028,31.6389505 L107.218888,33.4804688 C107.163733,33.6318838 107.060848,33.7178199 106.910231,33.7382812 C106.759612,33.7587426 106.63127,33.7167969 106.525202,33.612444 C106.419133,33.5080911 106.393677,33.3781633 106.448833,33.2226562 L106.798859,32.240513 L105.615136,32.8911836 C105.517552,32.9443824 105.415728,32.9576828 105.309659,32.931082 C105.20359,32.9044826 105.120858,32.8441229 105.061459,32.75 C105.006303,32.6558771 104.992515,32.5566406 105.020092,32.4522877 C105.04767,32.3479349 105.11025,32.2691598 105.207833,32.2159596 L106.391556,31.5591524 L105.328751,31.3565846 C105.205711,31.3320312 105.116615,31.2726945 105.061459,31.1785716 C105.006303,31.0844487 104.988272,30.9893042 105.007364,30.8931368 C105.026457,30.7969679 105.080551,30.7151238 105.169649,30.6476002 C105.258747,30.5800781 105.364814,30.5585938 105.487854,30.5831471 L107.460724,30.9637279 L109.185396,30 L107.460724,29.0362721 L105.487854,29.4168529 C105.470883,29.4209449 105.443305,29.4229909 105.40512,29.4229909 C105.290566,29.4229909 105.197227,29.3861615 105.1251,29.3125 C105.052973,29.2388385 105.012668,29.1569944 105.004182,29.0669649 C104.995697,28.976934 105.019031,28.8889519 105.074187,28.803013 C105.129343,28.7170755 105.214197,28.6638768 105.328751,28.6434154 L106.391556,28.4408476 L105.207833,27.7840404 C105.11025,27.7308402 105.04767,27.6520651 105.020092,27.5477123 C104.992515,27.4433594 105.006303,27.3441229 105.061459,27.25 C105.116615,27.1558771 105.199347,27.0944944 105.309659,27.0658476 C105.419971,27.0372022 105.521795,27.0515256 105.615136,27.1088164 L106.798859,27.759487 L106.448833,26.7773438 C106.393677,26.6218367 106.419133,26.4919089 106.525202,26.387556 C106.63127,26.2832031 106.759612,26.2412574 106.910231,26.2617188 C107.060848,26.2821801 107.163733,26.3681162 107.218888,26.5195312 L107.868028,28.3610495 L109.592698,29.318638 L109.592698,27.3973216 L108.268966,25.9363841 C108.201081,25.8627226 108.165018,25.7829245 108.160776,25.696987 C108.156533,25.6110481 108.179867,25.536365 108.230781,25.4729349 C108.281693,25.4095047 108.342153,25.358352 108.412157,25.3194752 C108.482162,25.2805985 108.560652,25.2693455 108.64763,25.2857149 C108.734606,25.3020829 108.812035,25.3470976 108.879919,25.4207591 L109.592698,26.2064726 L109.592698,24.8928567 C109.592698,24.7864579 109.633004,24.6943824 109.713615,24.6166289 C109.794228,24.5388768 109.889689,24.5 110,24.5 C110.110312,24.5 110.205772,24.5388768 110.286384,24.6166289 C110.366997,24.6943824 110.407303,24.7864579 110.407303,24.8928567 L110.407303,26.2064726 L111.120082,25.4207591 C111.187966,25.3470976 111.265395,25.3020829 111.352371,25.2857149 C111.439347,25.2693455 111.517837,25.2805985 111.587844,25.3194752 C111.657848,25.358352 111.718306,25.4095047 111.76922,25.4729349 C111.820133,25.536365 111.843468,25.6110481 111.839225,25.696987 C111.834983,25.7829245 111.798919,25.8627226 111.731035,25.9363841 L110.407303,27.3973216 L110.407303,29.318638 L112.131973,28.3610495 L112.781111,26.5195312 C112.836268,26.3681162 112.939153,26.2821801 113.08977,26.2617188 C113.240388,26.2412574 113.368729,26.2832031 113.474798,26.387556 C113.580867,26.4919089 113.606323,26.6218367 113.551168,26.7773438 L113.201142,27.759487 L114.384864,27.1088164 C114.482448,27.0556176 114.584273,27.0423172 114.690342,27.068918 C114.79641,27.0955174 114.879143,27.1558771 114.938541,27.25 C114.993698,27.3441229 115.007486,27.4433594 114.979908,27.5477123 C114.952331,27.6520651 114.88975,27.7308402 114.792166,27.7840404 L113.608444,28.4408476 L114.671249,28.6434154 C114.785804,28.6638768 114.870658,28.7170755 114.925812,28.803013 C114.980969,28.8889519 115.004304,28.976934 114.995819,29.0669649 C114.987332,29.1569944 114.947028,29.2388385 114.8749,29.3125 C114.802774,29.3861615 114.709434,29.4229909 114.594881,29.4229909 C114.556696,29.4229909 114.529118,29.4209449 114.512147,29.4168529 L112.539275,29.0362721 L110.814605,30 L112.539275,30.9637279 L114.512147,30.5831471 C114.635187,30.5585938 114.741254,30.5800781 114.830351,30.6476002 C114.919449,30.7151238 114.973544,30.7969679 114.992636,30.8931368 C115.011728,30.9893042 114.993698,31.0844487 114.938541,31.1785716 C114.883385,31.2726945 114.794289,31.3320312 114.671249,31.3565846 Z" id="Snø"></path>
        </g>
    </g>
</svg>