<svg width="15" height="15" viewBox="0 0 15 15" fill="none" xmlns="http://www.w3.org/2000/svg">
<path d="M15 7.5C15 11.6422 11.6422 15 7.5 15C3.35781 15 0 11.6422 0 7.5C0 3.35781 3.35781 0 7.5 0C11.6422 0 15 3.35781 15 7.5Z" fill="#757575"/>
<path fill-rule="evenodd" clip-rule="evenodd" d="M3.69258 11.0003H5.25027V9.44258H3.69258V11.0003ZM5.59629 11.0003H7.32706V9.44258H5.59629V11.0003ZM3.69258 9.09517H5.25027V7.3644H3.69258V9.09517ZM5.59629 9.09517H7.32706V7.3644H5.59629V9.09517ZM3.69258 7.0197H5.25027V5.46201H3.69258V7.0197ZM7.67314 11.0003H9.40391V9.44258H7.67314V11.0003ZM5.59629 7.0197H7.32706V5.46201H5.59629V7.0197ZM9.74912 11.0003H11.3068V9.44258H9.74912V11.0003ZM7.67314 9.09517H9.40391V7.3644H7.67314V9.09517ZM5.76916 4.42335V2.86566C5.76916 2.81878 5.75204 2.77821 5.71778 2.74396C5.68353 2.7097 5.64296 2.69258 5.59609 2.69258H5.24993C5.20306 2.69258 5.16249 2.7097 5.12824 2.74396C5.09398 2.77821 5.07686 2.81878 5.07686 2.86566V4.42335C5.07686 4.47022 5.09398 4.51079 5.12824 4.54504C5.16249 4.5793 5.20306 4.59642 5.24993 4.59642H5.59609C5.64296 4.59642 5.68353 4.5793 5.71778 4.54504C5.75204 4.51079 5.76916 4.47022 5.76916 4.42335ZM9.74912 9.09517H11.3068V7.3644H9.74912V9.09517ZM7.67314 7.0197H9.40391V5.46201H7.67314V7.0197ZM9.74912 7.0197H11.3068V5.46201H9.74912V7.0197ZM9.92375 4.42335V2.86566C9.92375 2.81878 9.90663 2.77821 9.87237 2.74396C9.83812 2.7097 9.79755 2.69258 9.75068 2.69258H9.40452C9.35765 2.69258 9.31708 2.7097 9.28283 2.74396C9.24857 2.77821 9.23145 2.81878 9.23145 2.86566V4.42335C9.23145 4.47022 9.24857 4.51079 9.28283 4.54504C9.31708 4.5793 9.35765 4.59642 9.40452 4.59642H9.75068C9.79755 4.59642 9.83812 4.5793 9.87237 4.54504C9.90663 4.51079 9.92375 4.47022 9.92375 4.42335ZM12 4.07692V11C12 11.1875 11.9315 11.3498 11.7945 11.4868C11.6575 11.6238 11.4952 11.6923 11.3077 11.6923H3.69231C3.50481 11.6923 3.34255 11.6238 3.20553 11.4868C3.06851 11.3498 3 11.1875 3 11V4.07692C3 3.88942 3.06851 3.72717 3.20553 3.59014C3.34255 3.45312 3.50481 3.38462 3.69231 3.38462H4.38462V2.86539C4.38462 2.6274 4.46935 2.42368 4.63882 2.25421C4.80829 2.08474 5.01202 2 5.25 2H5.59615C5.83414 2 6.03786 2.08474 6.20733 2.25421C6.3768 2.42368 6.46154 2.6274 6.46154 2.86539V3.38462H8.53846V2.86539C8.53846 2.6274 8.6232 2.42368 8.79267 2.25421C8.96214 2.08474 9.16586 2 9.40385 2H9.75C9.98798 2 10.1917 2.08474 10.3612 2.25421C10.5307 2.42368 10.6154 2.6274 10.6154 2.86539V3.38462H11.3077C11.4952 3.38462 11.6575 3.45312 11.7945 3.59014C11.9315 3.72717 12 3.88942 12 4.07692Z" fill="white"/>
</svg>
