<svg width="44" height="44" viewBox="0 0 44 44" fill="none" xmlns="http://www.w3.org/2000/svg">
<path d="M21.9851 0C9.83582 0 0 9.85075 0 22C0 34.1493 9.85075 44 21.9851 44C34.1343 44 43.9701 34.1493 43.9701 22C43.9701 9.85075 34.1194 0 21.9851 0Z" fill="#6996A3"/>
<path fill-rule="evenodd" clip-rule="evenodd" d="M31.868 19.8734C31.8886 19.8921 31.9095 19.9109 31.9307 19.93C32.6685 20.5913 33.686 21.4108 35.2632 21.4108V18.8948C34.4746 18.8948 33.9531 18.521 33.3299 17.9603C33.3054 17.9384 33.2808 17.9162 33.256 17.894C32.5346 17.2455 31.6825 16.4795 30.0101 16.4795C28.2803 16.4795 27.3645 17.299 26.6395 17.9603C26.0289 18.521 25.6092 18.8948 24.6679 18.8948C23.7351 18.8948 23.3269 18.5276 22.713 17.9752L22.6964 17.9603C21.9714 17.299 21.0683 16.4795 19.3385 16.4795C17.6214 16.4795 16.7056 17.299 15.9806 17.9603C15.37 18.521 14.963 18.8948 14.0218 18.8948C13.101 18.8948 12.7036 18.5371 12.1032 17.9966C12.0899 17.9846 12.0765 17.9725 12.063 17.9603C11.338 17.299 10.295 16.4795 8.73047 16.4795V18.9955C9.50636 18.9955 10.0533 19.3693 10.6765 19.93C10.685 19.9377 10.6935 19.9455 10.702 19.9532C11.4222 20.6104 12.2994 21.4108 14.009 21.4108C15.7262 21.4108 16.642 20.5913 17.367 19.93L17.3835 19.9151C17.9975 19.3627 18.4056 18.9955 19.3385 18.9955C20.2714 18.9955 20.6795 19.3627 21.2935 19.9151L21.31 19.93C22.035 20.5913 22.9381 21.4108 24.6679 21.4108C26.3742 21.4108 27.2766 20.6017 28.0118 19.9426L28.0259 19.93C28.6364 19.3693 29.0434 18.9955 29.9847 18.9955C30.8939 18.9955 31.2809 19.3443 31.868 19.8734ZM31.9307 25.742C32.6685 26.4033 33.686 27.2228 35.2505 27.2228H35.2632V24.7068C34.4746 24.7068 33.9531 24.333 33.3299 23.7723C33.3054 23.7504 33.2808 23.7282 33.256 23.706C32.5346 23.0575 31.6825 22.2915 30.0101 22.2915C28.2803 22.2915 27.3645 23.111 26.6395 23.7723C26.0289 24.333 25.6092 24.7068 24.6679 24.7068C23.7351 24.7068 23.3269 24.3396 22.713 23.7872L22.6964 23.7723C21.9714 23.111 21.0683 22.2915 19.3385 22.2915C17.6214 22.2915 16.7056 23.111 15.9806 23.7723C15.37 24.333 14.963 24.7068 14.0218 24.7068C13.101 24.7068 12.7036 24.3491 12.1032 23.8086C12.0899 23.7966 12.0765 23.7845 12.063 23.7723C11.338 23.111 10.295 22.2915 8.73047 22.2915V24.8075C9.50636 24.8075 10.0533 25.1813 10.6765 25.742C10.685 25.7497 10.6935 25.7574 10.702 25.7652C11.4222 26.4224 12.2994 27.2228 14.009 27.2228C15.7262 27.2228 16.642 26.4033 17.367 25.742L17.3835 25.7271C17.9975 25.1747 18.4056 24.8075 19.3385 24.8075C20.2714 24.8075 20.6795 25.1747 21.2935 25.7271L21.31 25.742C22.035 26.4033 22.9381 27.2228 24.6679 27.2228C26.3742 27.2228 27.2766 26.4137 28.0118 25.7546L28.0259 25.742C28.6364 25.1813 29.0434 24.8075 29.9847 24.8075C30.8939 24.8075 31.2809 25.1563 31.868 25.6854C31.8886 25.7041 31.9095 25.7229 31.9307 25.742Z" fill="white"/>
</svg>
