<?xml version="1.0" encoding="UTF-8"?>
<svg width="14px" height="6px" viewBox="0 0 14 6" version="1.1" xmlns="http://www.w3.org/2000/svg" xmlns:xlink="http://www.w3.org/1999/xlink">
    <!-- Generator: sketchtool 51.2 (57519) - http://www.bohemiancoding.com/sketch -->
    <title>B1605FD4-1BEA-439A-B801-21A6599A1954</title>
    <desc>Created with sketchtool.</desc>
    <defs></defs>
    <g id="Ikoner" stroke="none" stroke-width="1" fill="none" fill-rule="evenodd">
        <g id="10.1.1-Ikoner-samleark" transform="translate(-143.000000, -27.000000)" fill="#000000">
            <path d="M156.839087,32.7272727 C156.031529,32.7272727 155.506288,32.3042672 155.125489,31.9628942 C154.803779,31.6734694 154.606814,31.4805195 154.120966,31.4805195 C153.635118,31.4805195 153.425022,31.6734694 153.109877,31.9628942 C152.729078,32.3042672 152.262927,32.7272727 151.376583,32.7272727 C150.483674,32.7272727 150.017523,32.3042672 149.643289,31.9628942 C149.321579,31.6734694 149.111482,31.4805195 148.625635,31.4805195 C148.139787,31.4805195 147.929691,31.6734694 147.607981,31.9628942 C147.233747,32.3042672 146.76103,32.7272727 145.874686,32.7272727 C144.981777,32.7272727 144.528757,32.3042672 144.154523,31.9628942 C143.832813,31.6734694 143.550496,31.4805195 143.15,31.4805195 L143.15,30.1818182 C143.957558,30.1818182 144.495929,30.6048237 144.870163,30.9461967 C145.191873,31.2356215 145.395404,31.4285714 145.881252,31.4285714 C146.3671,31.4285714 146.577196,31.2356215 146.89234,30.9461967 C147.266574,30.6048237 147.739291,30.1818182 148.625635,30.1818182 C149.518544,30.1818182 149.984695,30.6048237 150.358929,30.9461967 C150.680639,31.2356215 150.890735,31.4285714 151.376583,31.4285714 C151.862431,31.4285714 152.079093,31.2356215 152.394237,30.9461967 C152.768471,30.6048237 153.241188,30.1818182 154.134097,30.1818182 C155.027006,30.1818182 155.466895,30.6048237 155.847695,30.9461967 C156.169405,31.2356215 156.438591,31.4285714 156.845652,31.4285714 L156.845652,32.7272727 L156.839087,32.7272727 Z M155.125489,28.7810761 C154.803779,28.4916512 154.606814,28.2987013 154.120966,28.2987013 C153.635118,28.2987013 153.425022,28.4916512 153.109877,28.7810761 C152.729078,29.122449 152.262927,29.5454545 151.376583,29.5454545 C150.483674,29.5454545 150.017523,29.122449 149.643289,28.7810761 C149.321579,28.4916512 149.111482,28.2987013 148.625635,28.2987013 C148.139787,28.2987013 147.929691,28.4916512 147.607981,28.7810761 C147.233747,29.122449 146.76103,29.5454545 145.874686,29.5454545 C144.981777,29.5454545 144.528757,29.122449 144.154523,28.7810761 C143.832813,28.4916512 143.550496,28.2987013 143.15,28.2987013 L143.15,27 C143.957558,27 144.495929,27.4230056 144.870163,27.7643785 C145.191873,28.0538033 145.395404,28.2467532 145.881252,28.2467532 C146.3671,28.2467532 146.577196,28.0538033 146.89234,27.7643785 C147.266574,27.4230056 147.739291,27 148.625635,27 C149.518544,27 149.984695,27.4230056 150.358929,27.7643785 C150.680639,28.0538033 150.890735,28.2467532 151.376583,28.2467532 C151.862431,28.2467532 152.079093,28.0538033 152.394237,27.7643785 C152.768471,27.4230056 153.241188,27 154.134097,27 C155.027006,27 155.466895,27.4230056 155.847695,27.7643785 C156.169405,28.0538033 156.438591,28.2467532 156.845652,28.2467532 L156.845652,29.5454545 C156.031529,29.5454545 155.506288,29.122449 155.125489,28.7810761 Z" id="Vann"></path>
        </g>
    </g>
</svg>