<svg xmlns="http://www.w3.org/2000/svg" width="24" height="24" viewBox="0 0 24 24" fill="none">
<path d="M12.5 23C12.0833 23 11.7292 22.8583 11.4375 22.575C11.1458 22.2917 11 21.9417 11 21.525C11 21.325 11.0375 21.1333 11.1125 20.95C11.1875 20.7667 11.3 20.6083 11.45 20.475L12.5 19.5L13.55 20.475C13.7 20.6083 13.8125 20.7667 13.8875 20.95C13.9625 21.1333 14 21.325 14 21.525C14 21.9417 13.8542 22.2917 13.5625 22.575C13.2708 22.8583 12.9167 23 12.5 23ZM9.05 21.5L8 20.45L10.95 17.5L12 18.55L9.05 21.5ZM15.5 20L14 18.5L15.5 17L17 18.5L15.5 20ZM6.5 20L5 18.5L6.5 17L8 18.5L6.5 20ZM7.5 16C5.98333 16 4.6875 15.4625 3.6125 14.3875C2.5375 13.3125 2 12.0167 2 10.5C2 9.11667 2.45833 7.90833 3.375 6.875C4.29167 5.84167 5.425 5.23333 6.775 5.05C7.30833 4.1 8.0375 3.35417 8.9625 2.8125C9.8875 2.27083 10.9 2 12 2C13.5 2 14.8042 2.47917 15.9125 3.4375C17.0208 4.39583 17.6917 5.59167 17.925 7.025C19.075 7.125 20.0417 7.6 20.825 8.45C21.6083 9.3 22 10.3167 22 11.5C22 12.75 21.5625 13.8125 20.6875 14.6875C19.8125 15.5625 18.75 16 17.5 16H7.5ZM7.5 14H17.5C18.2 14 18.7917 13.7583 19.275 13.275C19.7583 12.7917 20 12.2 20 11.5C20 10.8 19.7583 10.2083 19.275 9.725C18.7917 9.24167 18.2 9 17.5 9H16V8C16 6.9 15.6083 5.95833 14.825 5.175C14.0417 4.39167 13.1 4 12 4C11.2 4 10.4708 4.21667 9.8125 4.65C9.15417 5.08333 8.65833 5.66667 8.325 6.4L8.075 7H7.45C6.5 7.03333 5.6875 7.3875 5.0125 8.0625C4.3375 8.7375 4 9.55 4 10.5C4 11.4667 4.34167 12.2917 5.025 12.975C5.70833 13.6583 6.53333 14 7.5 14Z" fill="currentColor"/>
</svg>
