<?xml version="1.0" encoding="UTF-8"?><svg id="Layer_2" xmlns="http://www.w3.org/2000/svg" viewBox="0 0 70 45"><defs><style>.cls-1{fill:#044962;}.cls-2{fill:#d7e2e6;}</style></defs><g id="Layer_1-2"><g><rect class="cls-2" x="0" width="70" height="45"/><path class="cls-1" d="M25.81,21.19c-.72-.41-1.63-.16-2.05,.56-3.11,5.44-10.51,5.55-10.64,5.55H0v3H13.13c.38,0,9.25-.08,13.25-7.07,.41-.72,.16-1.64-.56-2.05Z"/><path class="cls-1" d="M25.81,13.34c-.72-.41-1.63-.16-2.05,.56-3.12,5.46-10.57,5.55-10.64,5.55H0v3H13.13c.38,0,9.25-.08,13.25-7.06,.41-.72,.16-1.64-.56-2.05Z"/><polygon class="cls-1" points="30.69 19.45 45.8 19.88 59.24 24.11 70 20.41 70 21.39 59.48 26.1 45.88 22.4 34.14 24.96 30.69 19.45"/></g></g></svg>