<?xml version="1.0" encoding="UTF-8"?><svg id="Layer_2" xmlns="http://www.w3.org/2000/svg" viewBox="0 0 70 45"><defs><style>.cls-1{fill:#044962;}.cls-2{fill:#d7e2e6;}</style></defs><g id="Layer_1-2"><g><rect class="cls-2" width="70" height="45"/><path class="cls-1" d="M3.44,25.81c-.44,0-.85-.3-.97-.74-.14-.53,.18-1.08,.71-1.22,3.69-.98,7.24-3.33,10.99-5.81,6.42-4.25,13.7-9.07,24.32-9.13h0c.55,0,1,.44,1,.99,0,.55-.44,1-.99,1.01-10.02,.06-17.04,4.71-23.23,8.8-3.9,2.58-7.58,5.01-11.58,6.08-.09,.02-.17,.03-.26,.03Z"/><path class="cls-1" d="M37.26,37.18c-.55,0-1-.45-1-1v-15.93c0-.36,.19-.69,.5-.87l4.97-2.87-4.64-.85c-.42-.08-.74-.41-.81-.83-.07-.42,.14-.84,.51-1.04l11.68-6.28c.05-.03,.1-.05,.16-.07L65.25,1.97c.52-.18,1.09,.11,1.26,.64,.17,.52-.11,1.09-.64,1.26l-16.53,5.46-9.09,4.89,4.51,.82c.41,.07,.73,.4,.81,.81,.07,.41-.12,.83-.48,1.04l-6.82,3.95v15.35c0,.55-.45,1-1,1Z"/><path class="cls-1" d="M25.39,40.72c-.55,0-1-.45-1-1V22.14c0-.35,.19-.68,.49-.86l3.08-1.8-2.34-1.49c-.29-.19-.47-.51-.46-.86,0-.35,.19-.67,.49-.84l12.34-7.25c.47-.28,1.09-.12,1.37,.36,.28,.48,.12,1.09-.36,1.37l-10.94,6.42,2.34,1.5c.29,.19,.47,.51,.46,.86,0,.35-.19,.67-.49,.84l-3.99,2.34v17c0,.55-.45,1-1,1Z"/><path class="cls-1" d="M37.26,37.18c-.34,0-.66-.17-.85-.48-.29-.47-.14-1.09,.33-1.38,.32-.2,8.16-4.91,28.7-7.49,.57-.06,1.05,.32,1.12,.87,.07,.55-.32,1.05-.87,1.12-20.12,2.53-27.82,7.16-27.9,7.21-.16,.1-.34,.15-.52,.15Z"/><path class="cls-1" d="M25.76,40.47c-.11,0-.22-.04-.31-.11-.22-.17-.25-.49-.08-.7l4-5.05v-15.09c0-.28,.22-.5,.5-.5s.5,.22,.5,.5v15.27c0,.11-.04,.22-.11,.31l-4.11,5.19c-.1,.12-.24,.19-.39,.19Z"/><path class="cls-1" d="M37.26,20.75c-.28,0-.5-.22-.5-.5v-6.07c0-.28,.22-.5,.5-.5s.5,.22,.5,.5v6.07c0,.28-.22,.5-.5,.5Z"/><path class="cls-1" d="M37.26,20.75c-.23,0-.44-.16-.49-.4-.06-.27,.12-.53,.39-.59,15.36-3.17,27.73-6.19,27.86-6.22,.27-.06,.54,.1,.6,.37,.07,.27-.1,.54-.37,.6-.12,.03-12.51,3.06-27.89,6.23-.03,0-.07,.01-.1,.01Z"/><path class="cls-1" d="M4.13,31.08c-.23,0-.44-.16-.49-.4-.06-.27,.12-.54,.39-.59,8.19-1.71,21-8.32,21.12-8.39,.25-.13,.55-.03,.67,.21,.13,.25,.03,.55-.21,.67-.13,.07-13.06,6.74-21.38,8.48-.03,0-.07,.01-.1,.01Z"/><path class="cls-1" d="M38.5,14.52c-.28,0-.5-.22-.5-.5v-4.09c0-.28,.22-.5,.5-.5s.5,.22,.5,.5v4.09c0,.28-.22,.5-.5,.5Z"/><path class="cls-1" d="M29.87,31.08c-.19,0-.37-.11-.45-.29-.12-.25-.01-.55,.24-.67l7.39-3.5c.25-.12,.55-.01,.67,.24,.12,.25,.01,.55-.24,.67l-7.39,3.5c-.07,.03-.14,.05-.21,.05Z"/></g></g></svg>