<?xml version="1.0" encoding="UTF-8"?><svg id="Layer_2" xmlns="http://www.w3.org/2000/svg" viewBox="0 0 70 45"><defs><style>.cls-1,.cls-2{fill:#044962;}.cls-3{fill:#d7e2e6;}.cls-2{fill-rule:evenodd;}</style></defs><g id="Layer_1-2"><rect class="cls-3" width="70" height="45"/><path class="cls-1" d="m44.9,34.33c0,2.49-2.02,4.51-4.51,4.51s-4.51-2.02-4.51-4.51,4.51-9.38,4.51-9.38c0,0,4.51,6.89,4.51,9.38Z"/><path class="cls-2" d="m46.36,14.56l-1.36.26,1.51.84c.12.07.2.17.24.3.04.13.02.26-.05.38-.08.12-.18.2-.32.23-.14.03-.27.02-.39-.05l-1.51-.83.45,1.25c.07.2.04.36-.1.5-.14.13-.3.19-.49.16-.19-.03-.32-.14-.39-.33l-.83-2.35-2.2-1.22v2.45l1.69,1.86c.09.09.13.2.14.31s-.02.21-.09.29c-.06.08-.14.15-.23.2-.09.05-.19.06-.3.04-.11-.02-.21-.08-.3-.17l-.91-1v1.68c0,.14-.05.25-.15.35-.1.1-.22.15-.37.15s-.26-.05-.37-.15c-.1-.1-.15-.22-.15-.35v-1.68l-.91,1c-.09.09-.19.15-.3.17-.11.02-.21,0-.3-.04-.09-.05-.17-.11-.23-.2-.06-.08-.09-.18-.09-.29,0-.11.05-.21.14-.31l1.69-1.86v-2.45l-2.2,1.22-.83,2.35c-.07.19-.2.3-.39.33-.19.03-.36-.03-.49-.16-.14-.13-.17-.3-.1-.5l.45-1.25-1.51.83c-.12.07-.25.08-.39.05-.14-.03-.24-.11-.32-.23-.07-.12-.09-.25-.05-.38.04-.13.12-.23.24-.3l1.51-.84-1.36-.26c-.16-.03-.27-.11-.34-.23-.07-.12-.09-.24-.07-.36.02-.12.09-.23.21-.31.11-.09.25-.11.41-.08l2.52.49,2.2-1.23-2.2-1.23-2.52.49s-.06,0-.11,0c-.15,0-.27-.05-.36-.14-.09-.09-.14-.2-.15-.31-.01-.11.02-.23.09-.34.07-.11.18-.18.32-.2l1.36-.26-1.51-.84c-.12-.07-.2-.17-.24-.3-.04-.13-.02-.26.05-.38.07-.12.18-.2.32-.24.14-.04.27-.02.39.05l1.51.83-.45-1.25c-.07-.2-.04-.36.1-.5.14-.13.3-.19.49-.16.19.03.32.14.39.33l.83,2.35,2.2,1.22v-2.45l-1.69-1.86c-.09-.09-.13-.2-.14-.31,0-.11.02-.21.09-.29.06-.08.14-.15.23-.2.09-.05.19-.06.3-.04.11.02.21.08.3.17l.91,1v-1.68c0-.14.05-.25.15-.35.1-.1.22-.15.37-.15s.26.05.37.15c.1.1.15.22.15.35v1.68l.91-1c.09-.09.19-.15.3-.17.11-.02.21,0,.3.04.09.05.17.11.23.2.06.08.09.18.09.29s-.05.21-.14.31l-1.69,1.86v2.45l2.2-1.22.83-2.35c.07-.19.2-.3.39-.33.19-.03.36.03.49.16.14.13.17.3.1.5l-.45,1.25,1.51-.83c.12-.07.25-.08.39-.05.14.03.24.11.32.23.07.12.09.25.05.38-.04.13-.12.23-.24.3l-1.51.84,1.36.26c.15.03.25.09.32.2.07.11.1.22.09.34-.01.11-.06.22-.15.31-.09.09-.21.14-.36.14-.05,0-.08,0-.11,0l-2.52-.49-2.2,1.23,2.2,1.23,2.52-.49c.16-.03.29,0,.41.08.11.09.18.19.21.31.02.12,0,.24-.07.36-.07.12-.18.2-.34.23Z"/><path class="cls-1" d="m62.24,34.33c0,2.49-2.02,4.51-4.51,4.51s-4.51-2.02-4.51-4.51,4.51-9.38,4.51-9.38c0,0,4.51,6.89,4.51,9.38Z"/><path class="cls-2" d="m63.69,14.56l-1.36.26,1.51.84c.12.07.2.17.24.3.04.13.02.26-.05.38-.08.12-.18.2-.32.23-.14.03-.27.02-.39-.05l-1.51-.83.45,1.25c.07.2.04.36-.1.5-.14.13-.3.19-.49.16-.19-.03-.32-.14-.39-.33l-.83-2.35-2.2-1.22v2.45l1.69,1.86c.09.09.13.2.14.31s-.02.21-.09.29c-.06.08-.14.15-.23.2-.09.05-.19.06-.3.04-.11-.02-.21-.08-.3-.17l-.91-1v1.68c0,.14-.05.25-.15.35-.1.1-.22.15-.37.15s-.26-.05-.37-.15c-.1-.1-.15-.22-.15-.35v-1.68l-.91,1c-.09.09-.19.15-.3.17-.11.02-.21,0-.3-.04-.09-.05-.17-.11-.23-.2-.06-.08-.09-.18-.09-.29,0-.11.05-.21.14-.31l1.69-1.86v-2.45l-2.2,1.22-.83,2.35c-.07.19-.2.3-.39.33-.19.03-.36-.03-.49-.16-.14-.13-.17-.3-.1-.5l.45-1.25-1.51.83c-.12.07-.25.08-.39.05-.14-.03-.24-.11-.32-.23-.07-.12-.09-.25-.05-.38.04-.13.12-.23.24-.3l1.51-.84-1.36-.26c-.16-.03-.27-.11-.34-.23-.07-.12-.09-.24-.07-.36.02-.12.09-.23.21-.31.11-.09.25-.11.41-.08l2.52.49,2.2-1.23-2.2-1.23-2.52.49s-.06,0-.11,0c-.15,0-.27-.05-.36-.14-.09-.09-.14-.2-.15-.31-.01-.11.02-.23.09-.34.07-.11.18-.18.32-.2l1.36-.26-1.51-.84c-.12-.07-.2-.17-.24-.3-.04-.13-.02-.26.05-.38.07-.12.18-.2.32-.24.14-.04.27-.02.39.05l1.51.83-.45-1.25c-.07-.2-.04-.36.1-.5.14-.13.3-.19.49-.16.19.03.32.14.39.33l.83,2.35,2.2,1.22v-2.45l-1.69-1.86c-.09-.09-.13-.2-.14-.31,0-.11.02-.21.09-.29.06-.08.14-.15.23-.2.09-.05.19-.06.3-.04.11.02.21.08.3.17l.91,1v-1.68c0-.14.05-.25.15-.35.1-.1.22-.15.37-.15s.26.05.37.15c.1.1.15.22.15.35v1.68l.91-1c.09-.09.19-.15.3-.17.11-.02.21,0,.3.04.09.05.17.11.23.2.06.08.09.18.09.29s-.05.21-.14.31l-1.69,1.86v2.45l2.2-1.22.83-2.35c.07-.19.2-.3.39-.33.19-.03.36.03.49.16.14.13.17.3.1.5l-.45,1.25,1.51-.83c.12-.07.25-.08.39-.05.14.03.24.11.32.23.07.12.09.25.05.38-.04.13-.12.23-.24.3l-1.51.84,1.36.26c.15.03.25.09.32.2.07.11.1.22.09.34-.01.11-.06.22-.15.31-.09.09-.21.14-.36.14-.05,0-.08,0-.11,0l-2.52-.49-2.2,1.23,2.2,1.23,2.52-.49c.16-.03.29,0,.41.08.11.09.18.19.21.31.02.12,0,.24-.07.36-.07.12-.18.2-.34.23Z"/><path class="cls-1" d="m10.33,15.5c-3.48,0-6.31-2.83-6.31-6.31s2.83-6.31,6.31-6.31,6.31,2.83,6.31,6.31-2.83,6.31-6.31,6.31Zm0-11.63c-2.93,0-5.31,2.38-5.31,5.31s2.38,5.31,5.31,5.31,5.31-2.38,5.31-5.31-2.38-5.31-5.31-5.31Z"/><path class="cls-1" d="m2.83,26.17c-.07,0-.14-.01-.21-.04-.25-.11-.36-.41-.25-.66l3.06-6.73c.12-.25.41-.36.66-.25.25.11.36.41.25.66l-3.06,6.73c-.08.18-.27.29-.46.29Z"/><path class="cls-1" d="m20.38,5.92c-.2,0-.39-.12-.47-.33-.1-.26.04-.55.29-.64l6.92-2.59c.26-.1.55.04.64.29.1.26-.04.55-.29.64l-6.92,2.59c-.06.02-.12.03-.17.03Z"/><path class="cls-1" d="m16.68,26.65c-.2,0-.39-.12-.47-.33l-2.59-6.92c-.1-.26.04-.55.29-.64.26-.1.55.03.64.29l2.59,6.92c.1.26-.04.55-.29.64-.06.02-.12.03-.17.03Z"/><path class="cls-1" d="m26.82,17.19c-.07,0-.14-.01-.21-.04l-6.73-3.06c-.25-.11-.36-.41-.25-.66.12-.25.41-.36.66-.25l6.73,3.06c.25.11.36.41.25.66-.08.18-.27.29-.46.29Z"/></g></svg>