<?xml version="1.0" encoding="UTF-8"?><svg id="Layer_2" xmlns="http://www.w3.org/2000/svg" viewBox="0 0 70 45"><defs><style>.cls-1{fill:#044962;}.cls-2{fill:#d7e2e6;}</style></defs><g id="Layer_1-2"><g><rect class="cls-2" width="70" height="45"/><g><rect class="cls-1" x="19.42" y="18.84" width="3" height="33.31" transform="translate(-15.76 54.25) rotate(-86.56)"/><rect class="cls-1" x="40.51" y="33.99" width="25.24" height="3" transform="translate(-2.65 4.33) rotate(-4.56)"/></g><g><path class="cls-1" d="M39.09,29.8c-.25,0-.5-.09-.69-.28-.4-.38-.41-1.02-.03-1.41,2.87-3,4.45-6.92,4.45-11.05s-1.58-8.05-4.45-11.05c-.38-.4-.37-1.03,.03-1.41,.4-.38,1.03-.37,1.41,.03,3.23,3.37,5.01,7.78,5.01,12.43s-1.78,9.06-5.01,12.43c-.2,.2-.46,.31-.72,.31Z"/><path class="cls-1" d="M33.15,25.35c-.27,0-.54-.11-.74-.33-.37-.41-.34-1.04,.06-1.41,1.95-1.78,3.03-4.11,3.03-6.55s-1.08-4.77-3.03-6.55c-.41-.37-.44-1-.06-1.41,.37-.41,1-.44,1.41-.06,2.38,2.17,3.68,5.02,3.68,8.03s-1.31,5.86-3.68,8.03c-.19,.18-.43,.26-.67,.26Z"/><circle class="cls-1" cx="28.37" cy="17.06" r="2.19"/></g></g></g></svg>