<?xml version="1.0" encoding="UTF-8"?><svg id="Layer_2" xmlns="http://www.w3.org/2000/svg" viewBox="0 0 70 45"><defs><style>.cls-1,.cls-2{fill:#044962;}.cls-3{fill:#d7e2e6;}.cls-2{fill-rule:evenodd;}</style></defs><g id="Layer_1-2"><g><rect class="cls-3" width="70" height="45"/><g><path class="cls-2" d="M16.02,36.59l-1.22,.23,1.36,.75c.11,.06,.18,.15,.22,.27,.03,.12,.02,.23-.05,.34-.07,.11-.16,.18-.29,.21-.12,.03-.24,.02-.35-.05l-1.36-.75,.4,1.13c.06,.18,.03,.33-.09,.45-.12,.12-.27,.17-.44,.14-.17-.02-.29-.12-.35-.3l-.75-2.12-1.98-1.1v2.21l1.52,1.68c.08,.08,.12,.18,.12,.28s-.02,.18-.08,.26c-.06,.07-.13,.13-.21,.18-.08,.04-.17,.06-.27,.04-.1-.02-.19-.07-.27-.16l-.82-.9v1.51c0,.12-.05,.23-.14,.32-.09,.09-.2,.13-.33,.13s-.24-.04-.33-.13c-.09-.09-.14-.2-.14-.32v-1.51l-.82,.9c-.08,.08-.17,.14-.27,.16-.1,.02-.19,0-.27-.04-.08-.04-.15-.1-.21-.18-.06-.07-.09-.16-.08-.26,0-.1,.05-.19,.12-.28l1.52-1.68v-2.21l-1.98,1.1-.75,2.12c-.06,.17-.18,.27-.35,.3-.17,.02-.32-.02-.44-.14-.12-.12-.15-.27-.09-.45l.4-1.13-1.36,.75c-.11,.06-.23,.08-.35,.05-.12-.03-.22-.1-.29-.21-.06-.11-.08-.22-.05-.34,.03-.12,.1-.21,.22-.27l1.36-.75-1.22-.23c-.14-.03-.24-.1-.31-.2-.06-.11-.08-.22-.06-.33,.02-.11,.08-.2,.19-.28,.1-.08,.22-.1,.37-.07l2.27,.44,1.98-1.11-1.98-1.11-2.27,.44s-.05,0-.1,0c-.13,0-.24-.04-.32-.13-.08-.08-.13-.18-.14-.28,0-.1,.02-.2,.08-.3,.06-.1,.16-.16,.29-.18l1.22-.23-1.36-.75c-.11-.06-.18-.15-.22-.27-.03-.12-.02-.23,.05-.34,.06-.11,.16-.18,.29-.21,.13-.03,.24-.02,.35,.05l1.36,.75-.4-1.13c-.06-.18-.03-.33,.09-.45,.12-.12,.27-.17,.44-.14,.17,.02,.29,.12,.35,.3l.75,2.12,1.98,1.1v-2.21l-1.52-1.68c-.08-.08-.12-.18-.12-.27,0-.1,.02-.18,.08-.26,.06-.07,.13-.13,.21-.18,.08-.04,.17-.06,.27-.04,.1,.02,.19,.07,.27,.16l.82,.9v-1.51c0-.12,.05-.23,.14-.32,.09-.09,.2-.13,.33-.13s.24,.04,.33,.13c.09,.09,.14,.2,.14,.32v1.51l.82-.9c.08-.08,.17-.14,.27-.16,.1-.02,.19,0,.27,.04,.08,.04,.15,.1,.21,.18,.06,.07,.09,.16,.08,.26s-.05,.19-.12,.27l-1.52,1.68v2.21l1.98-1.1,.75-2.12c.06-.17,.18-.27,.35-.3,.17-.02,.32,.02,.44,.14,.12,.12,.15,.27,.09,.45l-.4,1.13,1.36-.75c.11-.06,.23-.08,.35-.05,.12,.03,.22,.1,.29,.21,.06,.11,.08,.22,.05,.34-.03,.12-.1,.21-.22,.27l-1.36,.75,1.22,.23c.13,.02,.23,.08,.29,.18,.06,.1,.09,.2,.08,.3,0,.1-.06,.2-.14,.28-.08,.08-.19,.13-.32,.13-.04,0-.08,0-.1,0l-2.27-.44-1.98,1.11,1.98,1.11,2.27-.44c.14-.03,.26,0,.37,.07,.1,.08,.16,.17,.19,.28,.02,.11,0,.22-.06,.33-.06,.11-.17,.18-.31,.2Z"/><path class="cls-2" d="M32.25,36.59l-1.22,.23,1.36,.75c.11,.06,.18,.15,.22,.27,.03,.12,.02,.23-.05,.34-.07,.11-.16,.18-.29,.21-.12,.03-.24,.02-.35-.05l-1.36-.75,.4,1.13c.06,.18,.03,.33-.09,.45-.12,.12-.27,.17-.44,.14-.17-.02-.29-.12-.35-.3l-.75-2.12-1.98-1.1v2.21l1.52,1.68c.08,.08,.12,.18,.12,.28s-.02,.18-.08,.26c-.06,.07-.13,.13-.21,.18-.08,.04-.17,.06-.27,.04-.1-.02-.19-.07-.27-.16l-.82-.9v1.51c0,.12-.05,.23-.14,.32-.09,.09-.2,.13-.33,.13s-.24-.04-.33-.13c-.09-.09-.14-.2-.14-.32v-1.51l-.82,.9c-.08,.08-.17,.14-.27,.16-.1,.02-.19,0-.27-.04-.08-.04-.15-.1-.21-.18-.06-.07-.09-.16-.08-.26,0-.1,.05-.19,.12-.28l1.52-1.68v-2.21l-1.98,1.1-.75,2.12c-.06,.17-.18,.27-.35,.3-.17,.02-.32-.02-.44-.14-.12-.12-.15-.27-.09-.45l.4-1.13-1.36,.75c-.11,.06-.23,.08-.35,.05-.12-.03-.22-.1-.29-.21-.06-.11-.08-.22-.05-.34,.03-.12,.1-.21,.22-.27l1.36-.75-1.22-.23c-.14-.03-.24-.1-.31-.2-.06-.11-.08-.22-.06-.33,.02-.11,.08-.2,.19-.28,.1-.08,.22-.1,.37-.07l2.27,.44,1.98-1.11-1.98-1.11-2.27,.44s-.05,0-.1,0c-.13,0-.24-.04-.32-.13-.08-.08-.13-.18-.14-.28,0-.1,.02-.2,.08-.3,.06-.1,.16-.16,.29-.18l1.22-.23-1.36-.75c-.11-.06-.18-.15-.22-.27-.03-.12-.02-.23,.05-.34,.06-.11,.16-.18,.29-.21,.13-.03,.24-.02,.35,.05l1.36,.75-.4-1.13c-.06-.18-.03-.33,.09-.45,.12-.12,.27-.17,.44-.14,.17,.02,.29,.12,.35,.3l.75,2.12,1.98,1.1v-2.21l-1.52-1.68c-.08-.08-.12-.18-.12-.27,0-.1,.02-.18,.08-.26,.06-.07,.13-.13,.21-.18,.08-.04,.17-.06,.27-.04,.1,.02,.19,.07,.27,.16l.82,.9v-1.51c0-.12,.05-.23,.14-.32,.09-.09,.2-.13,.33-.13s.24,.04,.33,.13c.09,.09,.14,.2,.14,.32v1.51l.82-.9c.08-.08,.17-.14,.27-.16,.1-.02,.19,0,.27,.04,.08,.04,.15,.1,.21,.18,.06,.07,.09,.16,.08,.26s-.05,.19-.12,.27l-1.52,1.68v2.21l1.98-1.1,.75-2.12c.06-.17,.18-.27,.35-.3,.17-.02,.32,.02,.44,.14,.12,.12,.15,.27,.09,.45l-.4,1.13,1.36-.75c.11-.06,.23-.08,.35-.05,.12,.03,.22,.1,.29,.21,.06,.11,.08,.22,.05,.34-.03,.12-.1,.21-.22,.27l-1.36,.75,1.22,.23c.13,.02,.23,.08,.29,.18,.06,.1,.09,.2,.08,.3,0,.1-.06,.2-.14,.28-.08,.08-.19,.13-.32,.13-.04,0-.08,0-.1,0l-2.27-.44-1.98,1.11,1.98,1.11,2.27-.44c.14-.03,.26,0,.37,.07,.1,.08,.16,.17,.19,.28,.02,.11,0,.22-.06,.33-.06,.11-.17,.18-.31,.2Z"/><path class="cls-2" d="M64.71,36.59l-1.22,.23,1.36,.75c.11,.06,.18,.15,.22,.27,.03,.12,.02,.23-.05,.34-.07,.11-.16,.18-.29,.21-.12,.03-.24,.02-.35-.05l-1.36-.75,.4,1.13c.06,.18,.03,.33-.09,.45-.12,.12-.27,.17-.44,.14-.17-.02-.29-.12-.35-.3l-.75-2.12-1.98-1.1v2.21l1.52,1.68c.08,.08,.12,.18,.12,.28s-.02,.18-.08,.26c-.06,.07-.13,.13-.21,.18-.08,.04-.17,.06-.27,.04-.1-.02-.19-.07-.27-.16l-.82-.9v1.51c0,.12-.05,.23-.14,.32-.09,.09-.2,.13-.33,.13s-.24-.04-.33-.13c-.09-.09-.14-.2-.14-.32v-1.51l-.82,.9c-.08,.08-.17,.14-.27,.16-.1,.02-.19,0-.27-.04-.08-.04-.15-.1-.21-.18-.06-.07-.09-.16-.08-.26,0-.1,.05-.19,.12-.28l1.52-1.68v-2.21l-1.98,1.1-.75,2.12c-.06,.17-.18,.27-.35,.3-.17,.02-.32-.02-.44-.14-.12-.12-.15-.27-.09-.45l.4-1.13-1.36,.75c-.11,.06-.23,.08-.35,.05-.12-.03-.22-.1-.29-.21-.06-.11-.08-.22-.05-.34,.03-.12,.1-.21,.22-.27l1.36-.75-1.22-.23c-.14-.03-.24-.1-.31-.2-.06-.11-.08-.22-.06-.33,.02-.11,.08-.2,.19-.28,.1-.08,.22-.1,.37-.07l2.27,.44,1.98-1.11-1.98-1.11-2.27,.44s-.05,0-.1,0c-.13,0-.24-.04-.32-.13-.08-.08-.13-.18-.14-.28,0-.1,.02-.2,.08-.3,.06-.1,.16-.16,.29-.18l1.22-.23-1.36-.75c-.11-.06-.18-.15-.22-.27-.03-.12-.02-.23,.05-.34,.06-.11,.16-.18,.29-.21,.13-.03,.24-.02,.35,.05l1.36,.75-.4-1.13c-.06-.18-.03-.33,.09-.45,.12-.12,.27-.17,.44-.14,.17,.02,.29,.12,.35,.3l.75,2.12,1.98,1.1v-2.21l-1.52-1.68c-.08-.08-.12-.18-.12-.27,0-.1,.02-.18,.08-.26,.06-.07,.13-.13,.21-.18,.08-.04,.17-.06,.27-.04,.1,.02,.19,.07,.27,.16l.82,.9v-1.51c0-.12,.05-.23,.14-.32,.09-.09,.2-.13,.33-.13s.24,.04,.33,.13c.09,.09,.14,.2,.14,.32v1.51l.82-.9c.08-.08,.17-.14,.27-.16,.1-.02,.19,0,.27,.04,.08,.04,.15,.1,.21,.18,.06,.07,.09,.16,.08,.26s-.05,.19-.12,.27l-1.52,1.68v2.21l1.98-1.1,.75-2.12c.06-.17,.18-.27,.35-.3,.17-.02,.32,.02,.44,.14,.12,.12,.15,.27,.09,.45l-.4,1.13,1.36-.75c.11-.06,.23-.08,.35-.05,.12,.03,.22,.1,.29,.21,.06,.11,.08,.22,.05,.34-.03,.12-.1,.21-.22,.27l-1.36,.75,1.22,.23c.13,.02,.23,.08,.29,.18,.06,.1,.09,.2,.08,.3,0,.1-.06,.2-.14,.28-.08,.08-.19,.13-.32,.13-.04,0-.08,0-.1,0l-2.27-.44-1.98,1.11,1.98,1.11,2.27-.44c.14-.03,.26,0,.37,.07,.1,.08,.16,.17,.19,.28,.02,.11,0,.22-.06,.33-.06,.11-.17,.18-.31,.2Z"/><path class="cls-2" d="M48.48,36.59l-1.22,.23,1.36,.75c.11,.06,.18,.15,.22,.27,.03,.12,.02,.23-.05,.34-.07,.11-.16,.18-.29,.21-.12,.03-.24,.02-.35-.05l-1.36-.75,.4,1.13c.06,.18,.03,.33-.09,.45-.12,.12-.27,.17-.44,.14-.17-.02-.29-.12-.35-.3l-.75-2.12-1.98-1.1v2.21l1.52,1.68c.08,.08,.12,.18,.12,.28s-.02,.18-.08,.26c-.06,.07-.13,.13-.21,.18-.08,.04-.17,.06-.27,.04-.1-.02-.19-.07-.27-.16l-.82-.9v1.51c0,.12-.05,.23-.14,.32-.09,.09-.2,.13-.33,.13s-.24-.04-.33-.13c-.09-.09-.14-.2-.14-.32v-1.51l-.82,.9c-.08,.08-.17,.14-.27,.16-.1,.02-.19,0-.27-.04-.08-.04-.15-.1-.21-.18-.06-.07-.09-.16-.08-.26,0-.1,.05-.19,.12-.28l1.52-1.68v-2.21l-1.98,1.1-.75,2.12c-.06,.17-.18,.27-.35,.3-.17,.02-.32-.02-.44-.14-.12-.12-.15-.27-.09-.45l.4-1.13-1.36,.75c-.11,.06-.23,.08-.35,.05-.12-.03-.22-.1-.29-.21-.06-.11-.08-.22-.05-.34,.03-.12,.1-.21,.22-.27l1.36-.75-1.22-.23c-.14-.03-.24-.1-.31-.2-.06-.11-.08-.22-.06-.33,.02-.11,.08-.2,.19-.28,.1-.08,.22-.1,.37-.07l2.27,.44,1.98-1.11-1.98-1.11-2.27,.44s-.05,0-.1,0c-.13,0-.24-.04-.32-.13-.08-.08-.13-.18-.14-.28,0-.1,.02-.2,.08-.3,.06-.1,.16-.16,.29-.18l1.22-.23-1.36-.75c-.11-.06-.18-.15-.22-.27-.03-.12-.02-.23,.05-.34,.06-.11,.16-.18,.29-.21,.13-.03,.24-.02,.35,.05l1.36,.75-.4-1.13c-.06-.18-.03-.33,.09-.45,.12-.12,.27-.17,.44-.14,.17,.02,.29,.12,.35,.3l.75,2.12,1.98,1.1v-2.21l-1.52-1.68c-.08-.08-.12-.18-.12-.27,0-.1,.02-.18,.08-.26,.06-.07,.13-.13,.21-.18,.08-.04,.17-.06,.27-.04,.1,.02,.19,.07,.27,.16l.82,.9v-1.51c0-.12,.05-.23,.14-.32,.09-.09,.2-.13,.33-.13s.24,.04,.33,.13c.09,.09,.14,.2,.14,.32v1.51l.82-.9c.08-.08,.17-.14,.27-.16,.1-.02,.19,0,.27,.04,.08,.04,.15,.1,.21,.18,.06,.07,.09,.16,.08,.26s-.05,.19-.12,.27l-1.52,1.68v2.21l1.98-1.1,.75-2.12c.06-.17,.18-.27,.35-.3,.17-.02,.32,.02,.44,.14,.12,.12,.15,.27,.09,.45l-.4,1.13,1.36-.75c.11-.06,.23-.08,.35-.05,.12,.03,.22,.1,.29,.21,.06,.11,.08,.22,.05,.34-.03,.12-.1,.21-.22,.27l-1.36,.75,1.22,.23c.13,.02,.23,.08,.29,.18,.06,.1,.09,.2,.08,.3,0,.1-.06,.2-.14,.28-.08,.08-.19,.13-.32,.13-.04,0-.08,0-.1,0l-2.27-.44-1.98,1.11,1.98,1.11,2.27-.44c.14-.03,.26,0,.37,.07,.1,.08,.16,.17,.19,.28,.02,.11,0,.22-.06,.33-.06,.11-.17,.18-.31,.2Z"/></g><path class="cls-1" d="M61.37,24.54H8.84c-.27,0-.53-.11-.72-.31s-.29-.46-.28-.73c.1-2.51,1.12-4.86,2.87-6.64,1.9-1.96,4.55-3.08,7.29-3.08,.17,0,.32,0,.48,0,1.53-2.9,4.88-4.38,8.04-3.59,2.83-4.88,7.99-7.87,13.68-7.87h0c7.51,0,13.91,5.25,15.45,12.54,3.75,1.24,6.42,4.62,6.72,8.59,.02,.28-.07,.55-.26,.76s-.46,.32-.73,.32Zm-51.42-2H60.22c-.62-2.85-2.8-5.17-5.69-5.92-.38-.1-.67-.41-.73-.8-1.13-6.65-6.85-11.49-13.59-11.49h0c-5.22,0-9.93,2.88-12.3,7.53-.23,.46-.77,.66-1.25,.48-2.61-1.02-5.58,.28-6.62,2.88-.17,.42-.6,.68-1.04,.62-.32-.04-.7-.06-.97-.05-2.2,0-4.33,.9-5.86,2.48-1.16,1.17-1.91,2.67-2.19,4.28Z"/></g></g></svg>