<?xml version="1.0" encoding="UTF-8"?><svg id="Layer_2" xmlns="http://www.w3.org/2000/svg" viewBox="0 0 70 45"><defs><style>.cls-1{fill:#044962;}.cls-2{fill:#81a4b0;}.cls-3{fill:#d7e2e6;}</style></defs><g id="Layer_1-2"><g><rect class="cls-3" width="70" height="45"/><circle class="cls-1" cx="24.97" cy="33.2" r="3.54"/><path class="cls-2" d="M24.97,28.16c-.55,0-1-.45-1-1V11.49c0-.55,.45-1,1-1s1,.45,1,1v15.66c0,.55-.45,1-1,1Z"/><g><path class="cls-1" d="M47.95,39.19c-.55,0-1-.45-1-1V15.29c0-.55,.45-1,1-1s1,.45,1,1v22.9c0,.55-.45,1-1,1Z"/><polygon class="cls-1" points="51.34 19.27 47.95 15.88 44.56 19.27 44.56 16.39 47.95 13 51.34 16.39 51.34 19.27"/></g><path class="cls-1" d="M20.73,20.09h-3.73c-.28,0-.5-.22-.5-.5s.22-.5,.5-.5h3.73c.28,0,.5,.22,.5,.5s-.22,.5-.5,.5Z"/><path class="cls-1" d="M20.73,28.19h-3.73c-.28,0-.5-.22-.5-.5s.22-.5,.5-.5h3.73c.28,0,.5,.22,.5,.5s-.22,.5-.5,.5Z"/><path class="cls-1" d="M20.73,11.99h-3.73c-.28,0-.5-.22-.5-.5s.22-.5,.5-.5h3.73c.28,0,.5,.22,.5,.5s-.22,.5-.5,.5Z"/><path class="cls-1" d="M26.82,41.27h-3.57c-4,0-7.26-3.26-7.26-7.26V11.07c0-4,3.26-7.26,7.26-7.26h3.57c4,0,7.26,3.26,7.26,7.26v22.94c0,4-3.26,7.26-7.26,7.26ZM23.26,5.8c-2.9,0-5.26,2.36-5.26,5.26v22.94c0,2.9,2.36,5.26,5.26,5.26h3.57c2.9,0,5.26-2.36,5.26-5.26V11.07c0-2.9-2.36-5.26-5.26-5.26h-3.57Z"/><path class="cls-1" d="M24.97,34.2c-.55,0-1-.45-1-1v-10.66c0-.55,.45-1,1-1s1,.45,1,1v10.66c0,.55-.45,1-1,1Z"/></g></g></svg>