<?xml version="1.0" encoding="UTF-8"?><svg id="Layer_2" xmlns="http://www.w3.org/2000/svg" viewBox="0 0 70 45"><defs><style>.cls-1,.cls-2{fill:#044962;}.cls-3{fill:#d7e2e6;}.cls-2{fill-rule:evenodd;}</style></defs><g id="Layer_1-2"><g><rect class="cls-3" width="70" height="45"/><g><path class="cls-1" d="M61.86,25.55c0,3.11-2.52,5.64-5.64,5.64s-5.64-2.52-5.64-5.64,5.64-11.73,5.64-11.73c0,0,5.64,8.62,5.64,11.73Z"/><path class="cls-1" d="M19.41,25.55c0,3.11-2.52,5.64-5.64,5.64s-5.64-2.52-5.64-5.64,5.64-11.73,5.64-11.73c0,0,5.64,8.62,5.64,11.73Z"/><path class="cls-2" d="M42.17,24.58l-1.63,.31,1.82,1.01c.15,.08,.25,.2,.29,.36,.04,.16,.02,.31-.06,.46-.09,.14-.22,.24-.38,.28-.16,.04-.32,.02-.47-.06l-1.82-1,.54,1.51c.08,.24,.05,.44-.12,.6-.16,.16-.36,.22-.59,.19-.23-.03-.39-.16-.47-.4l-1-2.83-2.65-1.47v2.95l2.03,2.24c.1,.11,.16,.24,.17,.37s-.03,.25-.11,.34c-.08,.1-.17,.18-.28,.24-.11,.06-.23,.08-.36,.05-.13-.03-.25-.09-.36-.21l-1.09-1.21v2.02c0,.16-.06,.3-.19,.42-.12,.12-.27,.18-.44,.18s-.32-.06-.44-.18c-.12-.12-.19-.26-.19-.42v-2.02l-1.09,1.21c-.1,.11-.22,.18-.36,.21-.13,.03-.25,0-.36-.05-.11-.06-.2-.14-.28-.24-.08-.1-.11-.21-.11-.34,0-.13,.06-.25,.17-.37l2.03-2.24v-2.95l-2.65,1.47-1,2.83c-.08,.23-.24,.36-.47,.4-.23,.03-.43-.03-.59-.19-.16-.16-.2-.36-.12-.6l.54-1.51-1.82,1c-.15,.08-.31,.1-.47,.06-.16-.04-.29-.13-.38-.28-.08-.14-.11-.3-.06-.46,.04-.16,.14-.28,.29-.36l1.82-1.01-1.63-.31c-.19-.04-.33-.13-.41-.27-.08-.14-.11-.29-.08-.44,.03-.15,.11-.27,.25-.38,.14-.1,.3-.14,.49-.1l3.03,.58,2.65-1.48-2.65-1.48-3.03,.58s-.07,0-.13,0c-.18,0-.32-.06-.43-.17-.11-.11-.17-.24-.19-.38-.01-.14,.02-.27,.11-.41,.08-.13,.21-.21,.39-.24l1.63-.31-1.82-1.01c-.15-.08-.25-.2-.29-.36-.04-.16-.02-.31,.06-.46,.08-.14,.21-.24,.38-.28,.17-.04,.33-.02,.47,.07l1.82,1-.54-1.51c-.08-.24-.05-.44,.12-.6,.16-.16,.36-.22,.59-.19,.23,.03,.39,.16,.47,.4l1,2.83,2.65,1.47v-2.95l-2.03-2.24c-.1-.11-.16-.24-.17-.37,0-.13,.03-.25,.11-.34,.08-.1,.17-.18,.28-.24,.11-.06,.23-.08,.36-.05,.13,.03,.25,.09,.36,.21l1.09,1.21v-2.02c0-.16,.06-.3,.19-.42,.12-.12,.27-.18,.44-.18s.32,.06,.44,.18c.12,.12,.19,.26,.19,.42v2.02l1.09-1.21c.1-.11,.22-.18,.36-.21,.13-.03,.25,0,.36,.05,.11,.06,.2,.14,.28,.24,.08,.1,.11,.21,.11,.34s-.06,.25-.17,.37l-2.03,2.24v2.95l2.65-1.47,1-2.83c.08-.23,.24-.36,.47-.4,.23-.03,.43,.03,.59,.19,.16,.16,.2,.36,.12,.6l-.54,1.51,1.82-1c.15-.08,.31-.1,.47-.06,.16,.04,.29,.13,.38,.28,.08,.14,.11,.3,.06,.46-.04,.16-.14,.28-.29,.36l-1.82,1.01,1.63,.31c.18,.03,.31,.11,.39,.24,.08,.13,.12,.27,.11,.41-.01,.14-.07,.26-.19,.38-.11,.11-.25,.17-.43,.17-.06,0-.1,0-.13,0l-3.03-.58-2.65,1.48,2.65,1.48,3.03-.58c.19-.04,.35,0,.49,.1,.14,.1,.22,.23,.25,.38,.03,.15,0,.29-.08,.44-.08,.14-.22,.24-.41,.27Z"/></g></g></g></svg>