<?xml version="1.0" encoding="UTF-8"?>
<svg xmlns="http://www.w3.org/2000/svg" id="Layer_2" viewBox="0 0 70 45">
   <defs>
      <style>.cls-1,.cls-2{fill:#fff;}.cls-3{fill:#8eadb8;}.cls-2{fill-rule:evenodd;}</style>
   </defs>
   <g id="Layer_1-2">
      <g>
         <rect class="cls-3" width="70" height="45" />
         <g>
            <path class="cls-1" d="M22.39,36.21l-3.02-1.11v-1.17l4.22,1.82v.94l-4.22,1.82v-1.17l3.02-1.13Z" />
            <path class="cls-1" d="M26.86,35.22h.72c.36,0,.65-.1,.87-.28,.21-.19,.32-.45,.32-.81s-.09-.6-.27-.79c-.18-.19-.45-.28-.81-.28-.32,0-.58,.09-.79,.28-.21,.18-.31,.42-.31,.72h-1.19c0-.37,.1-.7,.29-1,.19-.3,.46-.53,.81-.7,.35-.17,.74-.25,1.17-.25,.71,0,1.27,.18,1.67,.53s.61,.85,.61,1.49c0,.32-.1,.62-.31,.9-.2,.28-.47,.49-.79,.64,.39,.13,.69,.34,.89,.63,.2,.29,.31,.63,.31,1.03,0,.64-.22,1.15-.66,1.52-.44,.38-1.01,.57-1.73,.57s-1.24-.18-1.68-.55c-.44-.37-.65-.85-.65-1.46h1.19c0,.31,.1,.57,.31,.76s.49,.29,.85,.29,.66-.1,.87-.29c.21-.2,.32-.48,.32-.85s-.11-.66-.33-.86c-.22-.2-.55-.3-.99-.3h-.7v-.94Z" />
            <path class="cls-1" d="M35.8,36.32c0,1.02-.19,1.79-.57,2.31-.38,.52-.96,.78-1.75,.78s-1.35-.25-1.74-.76c-.39-.51-.59-1.26-.6-2.25v-1.23c0-1.02,.19-1.79,.57-2.3,.38-.51,.97-.77,1.75-.77s1.36,.25,1.74,.75c.38,.5,.58,1.24,.59,2.24v1.23Zm-1.19-1.33c0-.67-.09-1.16-.27-1.47-.18-.31-.47-.47-.87-.47s-.67,.15-.85,.44c-.18,.29-.28,.75-.29,1.38v1.61c0,.66,.09,1.16,.28,1.48,.19,.33,.48,.49,.87,.49s.66-.15,.84-.45c.18-.3,.28-.77,.29-1.41v-1.61Z" />
            <path class="cls-1" d="M40.1,38.46c.3,0,.54-.09,.74-.26,.2-.17,.3-.39,.31-.64h1.12c-.01,.33-.12,.64-.31,.92-.19,.29-.45,.51-.78,.68-.33,.17-.68,.25-1.06,.25-.74,0-1.33-.24-1.76-.72-.43-.48-.65-1.14-.65-1.98v-.12c0-.8,.21-1.45,.64-1.93s1.02-.72,1.76-.72c.63,0,1.14,.18,1.54,.55s.6,.85,.62,1.44h-1.12c-.01-.3-.12-.55-.31-.75-.19-.2-.44-.29-.74-.29-.38,0-.68,.14-.89,.42-.21,.28-.31,.7-.32,1.27v.19c0,.57,.1,1,.31,1.28,.21,.28,.51,.42,.9,.42Z" />
            <path class="cls-1" d="M44.28,34.03l.03,.55c.37-.43,.88-.65,1.52-.65,.71,0,1.19,.27,1.45,.81,.38-.54,.92-.81,1.62-.81,.58,0,1.02,.16,1.3,.48,.29,.32,.43,.8,.44,1.43v3.47h-1.19v-3.44c0-.34-.07-.58-.22-.74s-.39-.23-.73-.23c-.27,0-.49,.07-.66,.22-.17,.15-.29,.33-.36,.57v3.62h-1.18v-3.48c-.02-.62-.33-.93-.95-.93-.48,0-.81,.19-1.01,.58v3.83h-1.19v-5.28h1.12Z" />
         </g>
         <g>
            <path class="cls-2" d="M42.12,18.85l-1.63,.31,1.82,1.01c.15,.08,.25,.2,.29,.36,.04,.16,.02,.31-.06,.46-.09,.14-.22,.24-.38,.28-.16,.04-.32,.02-.47-.06l-1.82-1,.54,1.51c.08,.24,.05,.44-.12,.6-.16,.16-.36,.22-.59,.19-.23-.03-.39-.16-.47-.4l-1-2.83-2.65-1.47v2.95l2.03,2.24c.1,.11,.16,.24,.17,.37s-.03,.25-.11,.34c-.08,.1-.17,.18-.28,.24-.11,.06-.23,.08-.36,.05-.13-.03-.25-.09-.36-.21l-1.09-1.21v2.02c0,.16-.06,.3-.19,.42-.12,.12-.27,.18-.44,.18s-.32-.06-.44-.18c-.12-.12-.19-.26-.19-.42v-2.02l-1.09,1.21c-.1,.11-.22,.18-.36,.21-.13,.03-.25,0-.36-.05-.11-.06-.2-.14-.28-.24-.08-.1-.11-.21-.11-.34,0-.13,.06-.25,.17-.37l2.03-2.24v-2.95l-2.65,1.47-1,2.83c-.08,.23-.24,.36-.47,.4-.23,.03-.43-.03-.59-.19-.16-.16-.2-.36-.12-.6l.54-1.51-1.82,1c-.15,.08-.31,.1-.47,.06-.16-.04-.29-.13-.38-.28-.08-.14-.11-.3-.06-.46,.04-.16,.14-.28,.29-.36l1.82-1.01-1.63-.31c-.19-.04-.33-.13-.41-.27-.08-.14-.11-.29-.08-.44,.03-.15,.11-.27,.25-.38,.14-.1,.3-.14,.49-.1l3.03,.58,2.65-1.48-2.65-1.48-3.03,.58s-.07,0-.13,0c-.18,0-.32-.06-.43-.17-.11-.11-.17-.24-.19-.38-.01-.14,.02-.27,.11-.41,.08-.13,.21-.21,.39-.24l1.63-.31-1.82-1.01c-.15-.08-.25-.2-.29-.36-.04-.16-.02-.31,.06-.46,.08-.14,.21-.24,.38-.28,.17-.04,.33-.02,.47,.07l1.82,1-.54-1.51c-.08-.24-.05-.44,.12-.6,.16-.16,.36-.22,.59-.19,.23,.03,.39,.16,.47,.4l1,2.83,2.65,1.47v-2.95l-2.03-2.24c-.1-.11-.16-.24-.17-.37,0-.13,.03-.25,.11-.34,.08-.1,.17-.18,.28-.24,.11-.06,.23-.08,.36-.05,.13,.03,.25,.09,.36,.21l1.09,1.21v-2.02c0-.16,.06-.3,.19-.42,.12-.12,.27-.18,.44-.18s.32,.06,.44,.18c.12,.12,.19,.26,.19,.42v2.02l1.09-1.21c.1-.11,.22-.18,.36-.21,.13-.03,.25,0,.36,.05,.11,.06,.2,.14,.28,.24,.08,.1,.11,.21,.11,.34s-.06,.25-.17,.37l-2.03,2.24v2.95l2.65-1.47,1-2.83c.08-.23,.24-.36,.47-.4,.23-.03,.43,.03,.59,.19,.16,.16,.2,.36,.12,.6l-.54,1.51,1.82-1c.15-.08,.31-.1,.47-.06,.16,.04,.29,.13,.38,.28,.08,.14,.11,.3,.06,.46-.04,.16-.14,.28-.29,.36l-1.82,1.01,1.63,.31c.18,.03,.31,.11,.39,.24,.08,.13,.12,.27,.11,.41-.01,.14-.07,.26-.19,.38-.11,.11-.25,.17-.43,.17-.06,0-.1,0-.13,0l-3.03-.58-2.65,1.48,2.65,1.48,3.03-.58c.19-.04,.35,0,.49,.1,.14,.1,.22,.23,.25,.38,.03,.15,0,.29-.08,.44-.08,.14-.22,.24-.41,.27Z" />
            <path class="cls-2" d="M64.87,18.85l-1.63,.31,1.82,1.01c.15,.08,.25,.2,.29,.36,.04,.16,.02,.31-.06,.46-.09,.14-.22,.24-.38,.28-.16,.04-.32,.02-.47-.06l-1.82-1,.54,1.51c.08,.24,.05,.44-.12,.6-.16,.16-.36,.22-.59,.19-.23-.03-.39-.16-.47-.4l-1-2.83-2.65-1.47v2.95l2.03,2.24c.1,.11,.16,.24,.17,.37s-.03,.25-.11,.34c-.08,.1-.17,.18-.28,.24-.11,.06-.23,.08-.36,.05-.13-.03-.25-.09-.36-.21l-1.09-1.21v2.02c0,.16-.06,.3-.19,.42-.12,.12-.27,.18-.44,.18s-.32-.06-.44-.18c-.12-.12-.19-.26-.19-.42v-2.02l-1.09,1.21c-.1,.11-.22,.18-.36,.21-.13,.03-.25,0-.36-.05-.11-.06-.2-.14-.28-.24-.08-.1-.11-.21-.11-.34,0-.13,.06-.25,.17-.37l2.03-2.24v-2.95l-2.65,1.47-1,2.83c-.08,.23-.24,.36-.47,.4-.23,.03-.43-.03-.59-.19-.16-.16-.2-.36-.12-.6l.54-1.51-1.82,1c-.15,.08-.31,.1-.47,.06-.16-.04-.29-.13-.38-.28-.08-.14-.11-.3-.06-.46,.04-.16,.14-.28,.29-.36l1.82-1.01-1.63-.31c-.19-.04-.33-.13-.41-.27-.08-.14-.11-.29-.08-.44,.03-.15,.11-.27,.25-.38,.14-.1,.3-.14,.49-.1l3.03,.58,2.65-1.48-2.65-1.48-3.03,.58s-.07,0-.13,0c-.18,0-.32-.06-.43-.17-.11-.11-.17-.24-.19-.38-.01-.14,.02-.27,.11-.41,.08-.13,.21-.21,.39-.24l1.63-.31-1.82-1.01c-.15-.08-.25-.2-.29-.36-.04-.16-.02-.31,.06-.46,.08-.14,.21-.24,.38-.28,.17-.04,.33-.02,.47,.07l1.82,1-.54-1.51c-.08-.24-.05-.44,.12-.6,.16-.16,.36-.22,.59-.19,.23,.03,.39,.16,.47,.4l1,2.83,2.65,1.47v-2.95l-2.03-2.24c-.1-.11-.16-.24-.17-.37,0-.13,.03-.25,.11-.34,.08-.1,.17-.18,.28-.24,.11-.06,.23-.08,.36-.05,.13,.03,.25,.09,.36,.21l1.09,1.21v-2.02c0-.16,.06-.3,.19-.42,.12-.12,.27-.18,.44-.18s.32,.06,.44,.18c.12,.12,.19,.26,.19,.42v2.02l1.09-1.21c.1-.11,.22-.18,.36-.21,.13-.03,.25,0,.36,.05,.11,.06,.2,.14,.28,.24,.08,.1,.11,.21,.11,.34s-.06,.25-.17,.37l-2.03,2.24v2.95l2.65-1.47,1-2.83c.08-.23,.24-.36,.47-.4,.23-.03,.43,.03,.59,.19,.16,.16,.2,.36,.12,.6l-.54,1.51,1.82-1c.15-.08,.31-.1,.47-.06,.16,.04,.29,.13,.38,.28,.08,.14,.11,.3,.06,.46-.04,.16-.14,.28-.29,.36l-1.82,1.01,1.63,.31c.18,.03,.31,.11,.39,.24,.08,.13,.12,.27,.11,.41-.01,.14-.07,.26-.19,.38-.11,.11-.25,.17-.43,.17-.06,0-.1,0-.13,0l-3.03-.58-2.65,1.48,2.65,1.48,3.03-.58c.19-.04,.35,0,.49,.1,.14,.1,.22,.23,.25,.38,.03,.15,0,.29-.08,.44-.08,.14-.22,.24-.41,.27Z" />
            <path class="cls-2" d="M19.47,18.85l-1.63,.31,1.82,1.01c.15,.08,.25,.2,.29,.36,.04,.16,.02,.31-.06,.46-.09,.14-.22,.24-.38,.28-.16,.04-.32,.02-.47-.06l-1.82-1,.54,1.51c.08,.24,.05,.44-.12,.6-.16,.16-.36,.22-.59,.19-.23-.03-.39-.16-.47-.4l-1-2.83-2.65-1.47v2.95l2.03,2.24c.1,.11,.16,.24,.17,.37s-.03,.25-.11,.34c-.08,.1-.17,.18-.28,.24-.11,.06-.23,.08-.36,.05-.13-.03-.25-.09-.36-.21l-1.09-1.21v2.02c0,.16-.06,.3-.19,.42-.12,.12-.27,.18-.44,.18s-.32-.06-.44-.18c-.12-.12-.19-.26-.19-.42v-2.02l-1.09,1.21c-.1,.11-.22,.18-.36,.21-.13,.03-.25,0-.36-.05-.11-.06-.2-.14-.28-.24-.08-.1-.11-.21-.11-.34,0-.13,.06-.25,.17-.37l2.03-2.24v-2.95l-2.65,1.47-1,2.83c-.08,.23-.24,.36-.47,.4-.23,.03-.43-.03-.59-.19-.16-.16-.2-.36-.12-.6l.54-1.51-1.82,1c-.15,.08-.31,.1-.47,.06-.16-.04-.29-.13-.38-.28-.08-.14-.11-.3-.06-.46,.04-.16,.14-.28,.29-.36l1.82-1.01-1.63-.31c-.19-.04-.33-.13-.41-.27-.08-.14-.11-.29-.08-.44,.03-.15,.11-.27,.25-.38,.14-.1,.3-.14,.49-.1l3.03,.58,2.65-1.48-2.65-1.48-3.03,.58s-.07,0-.13,0c-.18,0-.32-.06-.43-.17-.11-.11-.17-.24-.19-.38-.01-.14,.02-.27,.11-.41,.08-.13,.21-.21,.39-.24l1.63-.31-1.82-1.01c-.15-.08-.25-.2-.29-.36-.04-.16-.02-.31,.06-.46,.08-.14,.21-.24,.38-.28,.17-.04,.33-.02,.47,.07l1.82,1-.54-1.51c-.08-.24-.05-.44,.12-.6,.16-.16,.36-.22,.59-.19,.23,.03,.39,.16,.47,.4l1,2.83,2.65,1.47v-2.95l-2.03-2.24c-.1-.11-.16-.24-.17-.37,0-.13,.03-.25,.11-.34,.08-.1,.17-.18,.28-.24,.11-.06,.23-.08,.36-.05,.13,.03,.25,.09,.36,.21l1.09,1.21v-2.02c0-.16,.06-.3,.19-.42,.12-.12,.27-.18,.44-.18s.32,.06,.44,.18c.12,.12,.19,.26,.19,.42v2.02l1.09-1.21c.1-.11,.22-.18,.36-.21,.13-.03,.25,0,.36,.05,.11,.06,.2,.14,.28,.24,.08,.1,.11,.21,.11,.34s-.06,.25-.17,.37l-2.03,2.24v2.95l2.65-1.47,1-2.83c.08-.23,.24-.36,.47-.4,.23-.03,.43,.03,.59,.19,.16,.16,.2,.36,.12,.6l-.54,1.51,1.82-1c.15-.08,.31-.1,.47-.06,.16,.04,.29,.13,.38,.28,.08,.14,.11,.3,.06,.46-.04,.16-.14,.28-.29,.36l-1.82,1.01,1.63,.31c.18,.03,.31,.11,.39,.24,.08,.13,.12,.27,.11,.41-.01,.14-.07,.26-.19,.38-.11,.11-.25,.17-.43,.17-.06,0-.1,0-.13,0l-3.03-.58-2.65,1.48,2.65,1.48,3.03-.58c.19-.04,.35,0,.49,.1,.14,.1,.22,.23,.25,.38,.03,.15,0,.29-.08,.44-.08,.14-.22,.24-.41,.27Z" />
         </g>
      </g>
   </g>
</svg>