<?xml version="1.0" encoding="UTF-8"?><svg id="Layer_2" xmlns="http://www.w3.org/2000/svg" viewBox="0 0 70 45"><defs><style>.cls-1{fill:#fff;}.cls-2{fill:#8eadb8;}</style></defs><g id="Layer_1-2"><g><rect class="cls-2" width="70" height="45"/><g><rect class="cls-1" x="4.3" y="37.87" width="6" height="3"/><path class="cls-1" d="M49.82,40.87h-9.88v-3h9.88v3Zm-19.76,0h-9.88v-3h9.88v3Z"/><rect class="cls-1" x="59.7" y="37.87" width="6" height="3"/></g><path class="cls-1" d="M53.05,20.92H7.54c-.55,0-1-.45-1-1s.45-1,1-1H53.05c3.27,0,5.93-2.66,5.93-5.93s-2.66-5.93-5.93-5.93-5.93,2.66-5.93,5.93c0,.55-.45,1-1,1s-1-.45-1-1c0-4.37,3.56-7.93,7.93-7.93s7.93,3.56,7.93,7.93-3.56,7.93-7.93,7.93Z"/><path class="cls-1" d="M44.5,33.91c-2.68,0-4.86-2.18-4.86-4.86,0-.55,.45-1,1-1s1,.45,1,1c0,1.58,1.28,2.86,2.86,2.86s2.86-1.28,2.86-2.86-1.28-2.86-2.86-2.86H19.17c-.55,0-1-.45-1-1s.45-1,1-1h25.33c2.68,0,4.86,2.18,4.86,4.86s-2.18,4.86-4.86,4.86Z"/></g></g></svg>