<?xml version="1.0" encoding="UTF-8"?><svg id="Layer_2" xmlns="http://www.w3.org/2000/svg" viewBox="0 0 70 45"><defs><style>.cls-1{fill:#fff;}.cls-2{fill:#8eadb8;}</style></defs><g id="Layer_1-2"><g><rect class="cls-2" width="70" height="45"/><rect class="cls-1" x="4.18" y="32.83" width="61.41" height="3"/><g><polygon class="cls-1" points="10.1 27.16 9.21 26.95 7.02 16.37 7.99 16.16 9.97 25.69 17.47 15.96 18.26 16.57 10.1 27.16"/><polygon class="cls-1" points="12.22 18 11.34 17.8 9.14 7.21 10.12 7.01 12.1 16.53 19.59 6.8 20.39 7.41 12.22 18"/></g><g><polygon class="cls-1" points="31.66 27.16 30.78 26.95 28.58 16.37 29.56 16.16 31.54 25.69 39.03 15.96 39.83 16.57 31.66 27.16"/><polygon class="cls-1" points="33.79 18 32.91 17.8 30.71 7.21 31.69 7.01 33.66 16.53 41.16 6.8 41.95 7.41 33.79 18"/></g><g><polygon class="cls-1" points="53.23 27.16 52.35 26.95 50.15 16.37 51.13 16.16 53.11 25.69 60.6 15.96 61.39 16.57 53.23 27.16"/><polygon class="cls-1" points="55.36 18 54.47 17.8 52.28 7.21 53.26 7.01 55.23 16.53 62.73 6.8 63.52 7.41 55.36 18"/></g></g></g></svg>