<svg width="224" height="128" viewBox="0 0 224 128" fill="none" xmlns="http://www.w3.org/2000/svg">
<path fill-rule="evenodd" clip-rule="evenodd" d="M111.795 8.00308L179.24 108.807C179.722 109.432 179.982 110.142 180.02 110.938C180.057 111.734 179.944 112.482 179.678 113.182C179.33 113.89 178.822 114.467 178.154 114.913C177.486 115.358 176.779 115.619 176.032 115.693L62.4874 127.073C61.7404 127.148 60.9954 127.033 60.2523 126.729C59.5092 126.425 58.8968 125.96 58.415 125.335C58.0161 124.702 57.7563 123.991 57.6355 123.204C57.5146 122.417 57.6283 121.669 57.9765 120.96L104.076 8.7767C104.424 8.06848 104.909 7.47278 105.531 6.98958C106.154 6.50639 106.88 6.22321 107.71 6.14002C108.54 6.05683 109.308 6.19029 110.013 6.54038C110.719 6.89048 111.313 7.37804 111.795 8.00308ZM117.783 87.4107L110.062 88.1845C108.48 81.7765 111.57 77.2202 114.314 73.1755C116.304 70.2412 118.112 67.5763 117.82 64.669C117.451 60.981 114.911 58.7522 111.012 59.143C107.878 59.4571 105.509 61.2466 103.538 63.9274L98.1915 59.8847C101.162 55.6291 105.625 52.3881 111.358 51.8135C119.309 51.0167 125.481 54.8215 126.321 63.1962C126.793 67.9115 124.333 71.4347 121.898 74.9232C119.293 78.6536 116.717 82.3443 117.783 87.4107ZM120.842 98.6671C121.188 102.125 118.919 104.913 115.709 105.235C112.498 105.556 109.797 103.266 109.451 99.8087C109.104 96.3513 111.297 93.5706 114.507 93.2488C117.718 92.927 120.495 95.2097 120.842 98.6671Z" fill="#EE7B04"/>
<path d="M110.062 88.1849L117.783 87.4111C115.72 77.607 127.299 72.9543 126.321 63.1966C125.481 54.8219 119.309 51.0171 111.359 51.8139C105.625 52.3885 101.163 55.6295 98.1917 59.8851L103.539 63.9278C105.509 61.247 107.878 59.4575 111.012 59.1434C114.911 58.7527 117.451 60.9814 117.82 64.6694C118.513 71.5843 107.332 77.1283 110.062 88.1849ZM115.709 105.235C118.92 104.913 121.188 102.125 120.842 98.6675C120.495 95.2101 117.718 92.9274 114.508 93.2492C111.297 93.571 109.105 96.3517 109.451 99.8091C109.798 103.267 112.498 105.557 115.709 105.235Z" fill="white"/>
<path opacity="0.5" fill-rule="evenodd" clip-rule="evenodd" d="M38.8488 8.42885L59.0478 63.4573C59.203 63.8058 59.2441 64.169 59.1713 64.5471C59.0984 64.9252 58.9598 65.2635 58.7556 65.5621C58.5114 65.8551 58.207 66.0682 57.8426 66.2015C57.4781 66.3347 57.1161 66.3764 56.7567 66.3265L2.12904 58.7407C1.76965 58.6908 1.43277 58.5521 1.11839 58.3245C0.804019 58.097 0.569274 57.809 0.414143 57.4605C0.298951 57.1176 0.257811 56.7544 0.290733 56.3707C0.323656 55.9871 0.462219 55.6488 0.706416 55.3558L35.135 7.91315C35.3792 7.62015 35.675 7.39561 36.0223 7.23952C36.3696 7.08343 36.7429 7.03311 37.1422 7.08856C37.5415 7.14401 37.887 7.29414 38.1786 7.53896C38.4703 7.78377 38.6936 8.0804 38.8488 8.42885ZM32.6183 46.4085L28.9035 45.8927C28.8902 42.7027 30.8607 40.9145 32.6099 39.3271C33.8789 38.1756 35.0314 37.1297 35.2256 35.731C35.472 33.9567 34.5329 32.6206 32.6571 32.3601C31.1492 32.1507 29.8328 32.7214 28.6019 33.7562L26.5509 31.2484C28.431 29.5879 30.8961 28.5738 33.6546 28.9569C37.4796 29.4881 39.9455 31.9781 39.386 36.0073C39.071 38.2759 37.5144 39.6506 35.9731 41.0118C34.325 42.4673 32.6944 43.9074 32.6183 46.4085ZM32.7729 52.044C32.5419 53.7074 31.1588 54.7587 29.6141 54.5442C28.0693 54.3297 27.0618 52.9464 27.2928 51.283C27.5238 49.6195 28.8701 48.5631 30.4148 48.7776C31.9596 48.9922 33.0039 50.3805 32.7729 52.044Z" fill="#6996A3"/>
<path opacity="0.5" fill-rule="evenodd" clip-rule="evenodd" d="M38.8488 8.42885L59.0478 63.4573C59.203 63.8058 59.2441 64.169 59.1713 64.5471C59.0984 64.9252 58.9598 65.2635 58.7556 65.5621C58.5114 65.8551 58.207 66.0682 57.8426 66.2015C57.4781 66.3347 57.1161 66.3764 56.7567 66.3265L2.12904 58.7407C1.76965 58.6908 1.43277 58.5521 1.11839 58.3245C0.804017 58.097 0.569269 57.809 0.414142 57.4605C0.298948 57.1176 0.257813 56.7544 0.290734 56.3707C0.323655 55.9871 0.462214 55.6488 0.706415 55.3558L35.135 7.91315C35.3792 7.62015 35.675 7.39561 36.0223 7.23952C36.3696 7.08343 36.7429 7.03311 37.1422 7.08856C37.5415 7.14401 37.887 7.29415 38.1786 7.53896C38.4703 7.78377 38.6936 8.0804 38.8488 8.42885ZM32.6183 46.4085L28.9035 45.8927C28.8902 42.7027 30.8607 40.9145 32.6099 39.3271C33.8789 38.1756 35.0314 37.1297 35.2256 35.731C35.472 33.9567 34.5329 32.6206 32.6571 32.3601C31.1492 32.1507 29.8328 32.7214 28.6019 33.7562L26.5509 31.2484C28.431 29.5879 30.8961 28.5738 33.6546 28.9569C37.4796 29.4881 39.9455 31.9781 39.386 36.0073C39.071 38.2759 37.5144 39.6506 35.9731 41.0118C34.325 42.4673 32.6944 43.9074 32.6183 46.4085ZM32.7729 52.044C32.5419 53.7074 31.1588 54.7587 29.6141 54.5442C28.0693 54.3297 27.0618 52.9464 27.2928 51.283C27.5238 49.6195 28.8701 48.5631 30.4148 48.7776C31.9596 48.9922 33.0039 50.3805 32.7729 52.044Z" fill="#6996A3"/>
<path d="M28.9036 45.8924L32.6183 46.4083C32.7656 41.5683 38.7342 40.7016 39.3861 36.0071C39.9456 31.9779 37.4797 29.4878 33.6546 28.9567C30.8962 28.5736 28.4311 29.5877 26.551 31.2482L28.602 33.756C29.8329 32.7212 31.1493 32.1505 32.6572 32.3599C34.533 32.6203 35.4721 33.9564 35.2257 35.7308C34.7637 39.0576 28.8807 40.3883 28.9036 45.8924ZM29.6141 54.5439C31.1589 54.7585 32.542 53.7072 32.773 52.0437C33.004 50.3803 31.9596 48.9919 30.4149 48.7774C28.8702 48.5629 27.5238 49.6193 27.2928 51.2827C27.0619 52.9462 28.0694 54.3294 29.6141 54.5439Z" fill="white"/>
<path opacity="0.4" fill-rule="evenodd" clip-rule="evenodd" d="M202.158 14.5028L215.494 57.9383C215.599 58.2144 215.616 58.4973 215.544 58.7869C215.471 59.0765 215.35 59.3326 215.179 59.5551C214.978 59.7717 214.734 59.924 214.446 60.0119C214.158 60.0998 213.876 60.117 213.6 60.0633L171.635 51.9106C171.359 51.8569 171.104 51.7355 170.871 51.5462C170.637 51.357 170.467 51.1243 170.362 50.8481C170.287 50.5779 170.27 50.295 170.312 49.9994C170.353 49.7039 170.474 49.4478 170.676 49.2312L199.305 13.9486C199.506 13.732 199.744 13.5705 200.02 13.4642C200.295 13.3579 200.586 13.3345 200.893 13.3941C201.199 13.4537 201.461 13.5844 201.676 13.786C201.892 13.9877 202.052 14.2266 202.158 14.5028ZM195.749 43.6388L192.895 43.0844C193.018 40.6148 194.618 39.313 196.038 38.1575C197.069 37.3192 198.004 36.5578 198.213 35.4833C198.478 34.1202 197.807 33.0469 196.366 32.7669C195.207 32.5419 194.165 32.9287 193.169 33.6782L191.686 31.6515C193.211 30.4448 195.161 29.7628 197.28 30.1745C200.218 30.7454 202.023 32.7757 201.422 35.8709C201.083 37.6136 199.821 38.6126 198.571 39.6018C197.235 40.6596 195.912 41.7061 195.749 43.6388ZM195.633 48.0071C195.385 49.2849 194.271 50.0408 193.084 49.8103C191.897 49.5798 191.175 48.467 191.424 47.1892C191.672 45.9113 192.758 45.1499 193.945 45.3805C195.131 45.611 195.882 46.7292 195.633 48.0071Z" fill="#6996A3"/>
<path d="M192.895 43.084L195.749 43.6384C196.065 39.8984 200.721 39.4769 201.422 35.8705C202.023 32.7753 200.218 30.745 197.28 30.1742C195.161 29.7625 193.211 30.4445 191.686 31.6512L193.169 33.6778C194.165 32.9283 195.207 32.5416 196.366 32.7666C197.807 33.0465 198.478 34.1199 198.213 35.4829C197.717 38.0386 193.108 38.8229 192.895 43.084ZM193.084 49.8099C194.271 50.0405 195.385 49.2845 195.633 48.0067C195.882 46.7289 195.131 45.6106 193.945 45.3801C192.758 45.1496 191.672 45.911 191.424 47.1888C191.175 48.4667 191.897 49.5794 193.084 49.8099Z" fill="white"/>
</svg>
