<svg width="327" height="231" viewBox="0 0 327 231" fill="none" xmlns="http://www.w3.org/2000/svg">
<g style="mix-blend-mode:multiply">
<path d="M34 30.5L-5.5 0V230.5C-0.333333 230.333 10.6 230.1 13 230.5C16 231 33 219 50 205.5C67 192 53 201 63 194.5C73 188 68.5 191 74.5 188.5C80.5 186 88.5 190 99.5 194.5C110.5 199 149 203 156.5 201C164 199 172 189.5 182.5 181.5C193 173.5 199 167.5 205 164.5C211 161.5 232 158.5 237.5 158.5H269.5C280.5 158.5 304.5 137.5 313 133C319.8 129.4 324.833 118.167 326.5 113C319 110.667 301.4 106.5 291 108.5C278 111 272.5 119.5 269.5 119.5H232C228 119.5 216.667 99.1667 211.5 89C201 78 179.4 55.7 177 54.5C174 53 137.5 40 134 40H113L63 45.5L34 30.5Z" fill="#EE7B04"/>
<g style="mix-blend-mode:multiply" opacity="0.6">
<path d="M26.5 189L-9 204C-13 197.333 -21.5 183 -23.5 179C-26 174 -28 138.5 -28 129.5C-28 120.5 -19 65 3 65C18.5 66.5 23.5 72 39.5 74C55.5 76 47.5 73.5 59.5 74C71.5 74.5 81.5 77 99 85C116.5 93 122 91 134.5 92C146.805 92.9844 149.904 93.4843 164.785 95.8847L165.5 96C181 98.5 177.5 105.5 181.5 111.5C185.5 117.5 192.5 121.5 196.5 125.5C200.5 129.5 207.5 131.5 216 136.5C224.5 141.5 232 136.5 235 138.5C238 140.5 259 136 262.5 136.5C265.3 136.9 266.667 141.333 267 143.5L237.5 147H212.5C209 147 194 146 181.5 147C171.5 147.8 164.333 156.667 162 161L134.5 171.5H105L77.5 165L53 161L35.5 171.5L26.5 189Z" fill="#DB7100"/>
</g>
</g>
</svg>
