<svg width="89" height="80" viewBox="0 0 89 80" fill="none" xmlns="http://www.w3.org/2000/svg">
<path d="M75.4647 23.1881C75.2153 22.9981 73.7591 22.047 71.096 20.3346C68.433 18.6222 65.0533 17.0144 60.957 15.511C56.8607 14.0077 52.2953 13.0601 47.2607 12.6683C42.2262 12.2764 37.1917 13.3163 32.1573 15.788C27.1229 18.2597 23.2213 21.607 20.4525 25.8301C17.6837 30.0531 15.6414 34.2447 14.3258 38.4052C13.0101 42.5656 12.2154 46.2228 11.9417 49.3771C11.668 52.5313 11.53 54.2651 11.5277 54.5787C11.6078 55.06 11.7457 55.4999 11.9414 55.8985C12.1371 56.297 12.4008 56.6752 12.7327 57.0329C12.9409 57.139 14.3765 58.0482 17.0396 59.7605C19.682 61.431 23.0462 63.0074 27.1323 64.4897C31.2183 65.9721 35.7683 66.8882 40.7822 67.2381C45.8168 67.63 50.8512 66.5901 55.8856 64.1183C60.9201 61.6466 64.8216 58.2993 67.5905 54.0763C70.3593 49.8533 72.4066 45.6721 73.7326 41.5326C75.0586 37.3932 75.8584 33.7464 76.1321 30.5922C76.4058 27.438 76.5335 25.6832 76.5152 25.3277C76.5175 25.0142 76.4105 24.6372 76.1942 24.1966C75.9779 23.7561 75.7348 23.4199 75.4647 23.1881ZM53.2594 58.7693C49.6514 60.5407 45.9771 61.3814 42.2363 61.2916C38.4954 61.2017 34.993 60.6694 31.7289 59.6947C28.4648 58.72 25.5627 57.5545 23.0225 56.1984C20.5242 54.8216 18.6717 53.7526 17.4649 52.9914C17.5374 51.6542 17.7928 49.5763 18.2313 46.7577C18.7118 43.9185 19.5749 40.9045 20.8208 37.7155C22.0668 34.5265 23.798 31.4247 26.0146 28.41C28.2731 25.3747 31.2064 22.9714 34.8144 21.2C38.4224 19.4286 42.0968 18.5878 45.8376 18.6777C49.5784 18.7675 53.0808 19.2998 56.3449 20.2746C59.609 21.2493 62.5111 22.4147 65.0513 23.7709C67.5496 25.1477 69.3918 26.1957 70.578 26.9149C70.4423 28.3353 70.1552 30.4547 69.7167 33.2733C69.2362 36.1125 68.3835 39.1214 67.1586 42.3001C65.9337 45.4788 64.2129 48.5754 61.9963 51.5902C59.7797 54.6049 56.8675 56.9979 53.2594 58.7693ZM38.7691 29.255C35.8323 30.6969 33.8196 32.9867 32.7308 36.1246C31.6421 39.2624 31.8186 42.2997 33.2604 45.2364C34.7228 48.2151 37.0283 50.2332 40.1768 51.2907C43.3254 52.3482 46.368 52.1561 49.3047 50.7142C52.2415 49.2724 54.2542 46.9826 55.343 43.8447C56.4318 40.7069 56.2449 37.6486 54.7825 34.6699C53.3407 31.7332 51.0455 29.7361 47.897 28.6786C44.7485 27.6211 41.7059 27.8132 38.7691 29.255ZM46.6785 45.3652C45.2102 46.0861 43.6941 46.1796 42.1303 45.6457C40.5665 45.1118 39.4139 44.0897 38.6724 42.5794C37.9515 41.111 37.858 39.5949 38.3919 38.0311C38.9258 36.4674 39.9269 35.325 41.3953 34.6041C42.8637 33.8832 44.3797 33.7897 45.9435 34.3236C47.5073 34.8575 48.6496 35.8586 49.3705 37.327C50.112 38.8373 50.2158 40.3744 49.6819 41.9381C49.148 43.5019 48.1469 44.6442 46.6785 45.3652Z" fill="#DAE5E8"/>
</svg>
