<svg width="78" height="82" viewBox="0 0 78 82" fill="none" xmlns="http://www.w3.org/2000/svg">
<path d="M13.4062 39.2552C21.5312 26.767 25.5938 18.3106 25.5938 13.8861C25.5938 7.24937 20.1372 1.8692 13.4062 1.8692C6.67528 1.8692 1.21875 7.24937 1.21875 13.8861C1.21875 18.3106 5.28125 26.767 13.4062 39.2552Z" fill="#DAE5E8"/>
<path d="M19.3306 13.8861L10.1899 19.4247V8.34741L19.3306 13.8861Z" fill="white"/>
<path d="M64.5938 71.6564C72.7188 59.1682 76.7812 50.7118 76.7812 46.2873C76.7812 39.6505 71.3247 34.2704 64.5938 34.2704C57.8628 34.2704 52.4062 39.6505 52.4062 46.2873C52.4062 50.7118 56.4688 59.1682 64.5938 71.6564Z" fill="#DAE5E8"/>
<path d="M69.2993 51.8012H60.1587V42.1085H69.2993V51.8012Z" fill="white"/>
<path d="M13.4064 42.1823H13.4062C12.2783 42.1823 11.3828 43.1142 11.3828 44.2401C11.3828 45.366 12.2783 46.2978 13.4062 46.2978H33.4646C35.7833 46.4839 37.371 47.0301 38.376 47.8931C39.362 48.7399 39.8565 49.9529 39.8565 51.6489C39.8565 52.9178 39.4649 53.9203 38.4117 55.0008C37.3284 56.1123 35.5591 57.2912 32.8037 58.8676C32.8037 58.8676 32.8037 58.8676 32.8037 58.8676L32.5207 59.0295L32.5207 59.0296C29.372 60.8312 27.1618 62.2965 25.7447 63.8698C24.298 65.476 23.6884 67.1814 23.6884 69.4017C23.6884 71.9949 24.5732 74.1122 26.2883 75.6866C27.9894 77.2481 30.4633 78.2358 33.5782 78.6792L33.6133 78.6842L33.6488 78.6842L64.5949 78.6782H64.5951C65.723 78.6774 66.6179 77.745 66.6172 76.6191C66.6165 75.4931 65.7204 74.5619 64.5924 74.5627L33.894 74.5835C31.6871 74.258 30.1513 73.6529 29.1715 72.8051C28.2085 71.9717 27.7353 70.8629 27.7353 69.4017C27.7353 68.2538 28.1027 67.3304 29.1127 66.3116C30.1521 65.263 31.8524 64.1342 34.5052 62.6163L34.7881 62.4545L34.7881 62.4544C38.0345 60.597 40.3161 59.0782 41.7801 57.437C43.2731 55.7632 43.9034 53.9776 43.9034 51.6489C43.9034 48.8338 42.9929 46.5727 41.2107 44.958C39.441 43.3548 36.8693 42.4412 33.6398 42.1884L33.6204 42.1869L33.6009 42.1869L13.4064 42.1823Z" fill="#DAE5E8" stroke="#DAE5E8"/>
</svg>
