<svg width="74" height="70" viewBox="0 0 74 70" fill="none" xmlns="http://www.w3.org/2000/svg">
<g clip-path="url(#clip0)">
<path d="M66.25 43.9062L62.9688 56.25H62.8906L59.2969 69.6875L36.0938 63.4375L35.7812 63.5156L11.3281 56.9531L11.25 56.7969L4.76562 55.0781L6.01562 50.4688H6.09375L18.125 5.39062H18.0469L19.375 0.625L62.1094 12.1094V11.9531L73.9062 15.1562L66.25 43.75V43.9062ZM67.8906 18.5938L22.8125 6.48438L13.9844 39.6875L58.9844 51.7969L67.8906 18.5938ZM27.5 28.3594L30.5469 33.4375L38.2812 26.0938L42.2656 33.0469L52.7344 23.8281L55.3125 45.2344L20.7812 35.9375L27.5 28.3594ZM29.7656 23.2812C28.776 23.0208 28.0339 22.4479 27.5391 21.5625C27.0443 20.6771 26.9271 19.7396 27.1875 18.75C27.4479 17.8125 28.0208 17.0833 28.9062 16.5625C29.7917 16.0417 30.7031 15.9115 31.6406 16.1719C32.6302 16.4323 33.3854 17.0052 33.9062 17.8906C34.4271 18.776 34.5573 19.7135 34.2969 20.7031C34.0365 21.6927 33.4635 22.4349 32.5781 22.9297C31.6927 23.4245 30.7552 23.5417 29.7656 23.2812ZM51.0156 6.01562L50 6.32812L40.5469 3.75L54.5312 0L56.7188 8.125L51.25 6.64062L51.0156 6.01562ZM6.01562 18.125L9.0625 29.6875L6.5625 39.2188L0 14.6094L14.1406 10.8594L12.6562 16.3281L6.01562 18.125ZM14.6094 69.2188L12.0312 59.6875L31.0156 64.7656L14.6094 69.2188Z" fill="#DAE5E8"/>
</g>
<defs>
<clipPath id="clip0">
<rect width="73.9062" height="69.6875" fill="white"/>
</clipPath>
</defs>
</svg>
