<svg width="68" height="81" viewBox="0 0 68 81" fill="none" xmlns="http://www.w3.org/2000/svg">
<path fill-rule="evenodd" clip-rule="evenodd" d="M21.9917 8.28352C28.0923 5.98562 34.0988 6.1974 40.0115 8.91886C45.9241 11.6403 50.0436 16.0894 52.3702 22.2661C53.5335 25.3545 54.103 29.1784 54.0789 33.7378C54.0548 38.2973 53.617 42.7281 52.7657 47.0304C51.9143 51.3326 51.0031 55.4014 50.0321 59.2368C49.0611 63.0722 48.1754 66.1645 47.3749 68.5137L45.9702 71.9436C45.1172 71.4686 43.9829 70.8436 42.5674 70.0685C41.1519 69.2935 38.5177 67.6693 34.6647 65.1958C30.8118 62.7224 27.3162 60.2282 24.1779 57.7131C21.0396 55.198 17.914 52.1947 14.8011 48.7031C11.6882 45.2114 9.55015 41.9215 8.38686 38.8331C6.0603 32.6564 6.22097 26.5951 8.8689 20.6492C11.5168 14.7033 15.891 10.5814 21.9917 8.28352ZM34.1989 40.6923C39.9521 38.5253 42.8593 32.1046 40.6923 26.3514C38.5252 20.5982 32.1046 17.691 26.3514 19.8581C20.5982 22.0251 17.691 28.4457 19.8581 34.199C22.0251 39.9522 28.4457 42.8593 34.1989 40.6923Z" fill="#DAE5E8"/>
</svg>
