<svg width="65" height="64" viewBox="0 0 65 64" fill="none" xmlns="http://www.w3.org/2000/svg">
<g clip-path="url(#clip0)">
<path d="M65.1954 14.1576L51.6483 0.711115C50.6931 -0.237038 49.7378 -0.237038 48.7826 0.711115L0.716436 48.4202C-0.238812 49.3684 -0.238812 50.3165 0.716436 51.2646L14.2635 64.7111C15.2188 65.6593 16.174 65.6593 17.1293 64.7111L65.1954 17.1313C65.5428 16.7865 65.7164 16.3125 65.7164 15.7091C65.7164 15.1057 65.5428 14.5886 65.1954 14.1576ZM58.4219 17.9071L54.7746 14.1576C54.3404 13.7266 53.8193 13.7266 53.2114 14.1576C52.7772 14.7609 52.7772 15.2781 53.2114 15.7091L56.989 19.3293L54.7746 21.5273L49.4339 16.3556C48.9997 15.7522 48.5221 15.7522 48.001 16.3556C47.48 16.8727 47.48 17.3468 48.001 17.7778L53.2114 23.0788L50.997 25.2768L47.3497 21.5273C46.9155 21.0101 46.4379 21.0101 45.9168 21.5273C45.3958 22.0444 45.3958 22.5616 45.9168 23.0788L49.5641 26.699L47.3497 28.897L42.009 23.7253C41.488 23.1219 41.0104 23.1219 40.5762 23.7253C40.142 24.1562 40.142 24.6303 40.5762 25.1475L45.9168 30.4485L43.7024 32.6465L39.9249 28.897C39.4038 28.466 38.9262 28.466 38.492 28.897C37.8841 29.3279 37.8841 29.8451 38.492 30.4485L42.1393 34.0687L39.9249 36.2667L34.5842 30.9657C34.15 30.5347 33.6724 30.5347 33.1513 30.9657C32.7171 31.569 32.7171 32.0862 33.1513 32.5172L38.492 37.6889L36.2776 40.0162L32.5 36.2667C32.0658 35.7495 31.5882 35.7495 31.0671 36.2667C30.5461 36.7838 30.5461 37.2579 31.0671 37.6889L34.7144 41.4384L32.5 43.6364L27.2896 38.3354C26.6817 37.9044 26.1607 37.9044 25.7265 38.3354C25.2923 38.8525 25.2923 39.3697 25.7265 39.8869L31.0671 45.0586L28.4619 47.6444L24.6844 43.895C24.2502 43.2916 23.7726 43.2916 23.2515 43.895C22.6436 44.3259 22.6436 44.8 23.2515 45.3172L26.8988 48.9374L15.8267 60.1859L5.27555 49.8424L50.2154 5.23637L60.6363 15.7091L58.4219 17.9071ZM17.2595 48.4202C16.5648 47.7306 15.7832 47.3859 14.9148 47.3859C14.0464 47.3859 13.3083 47.7306 12.7004 48.4202C12.0925 49.0236 11.7886 49.7562 11.7886 50.6182C11.7886 51.4801 12.0925 52.2128 12.7004 52.8162C13.3083 53.5057 14.0464 53.8505 14.9148 53.8505C15.7832 53.8505 16.5648 53.5057 17.2595 52.8162C17.8674 52.2128 18.1713 51.4801 18.1713 50.6182C18.1713 49.7562 17.8674 49.0236 17.2595 48.4202Z" fill="#DAE5E8"/>
</g>
<defs>
<clipPath id="clip0">
<rect width="65" height="64" fill="white"/>
</clipPath>
</defs>
</svg>
