<svg width="375" height="518" viewBox="0 0 375 518" fill="none" xmlns="http://www.w3.org/2000/svg">
<path fill-rule="evenodd" clip-rule="evenodd" d="M410.879 303.977C415.216 299.669 419.113 295.453 421.672 289.815C424.339 283.951 426.033 277.849 427.568 271.61C429.084 265.439 430.053 259.146 430.551 252.815C431.016 246.949 430.383 241.082 430.908 235.235C432.073 222.364 436.522 210.802 441.151 198.889C443.46 192.973 445.858 188.089 450.616 183.761C455.064 179.721 460.432 176.614 465.444 173.324C470.749 169.837 476.159 166.561 481.356 162.91C486.466 159.32 490.947 154.961 495.484 150.695C504.112 142.591 509.506 130.901 511.444 119.273C513.542 106.73 512.085 94.2365 512.509 81.6254C512.918 69.3598 511.039 57.3317 504.238 46.88C497.493 36.5111 486.962 29.9283 479.542 20.1587C475.66 15.0541 471.753 10.1862 468.879 4.41193C466.216 -0.936653 465.098 -6.91561 462.774 -12.3951C460.249 -18.3682 456.694 -23.1805 452.694 -28.2524C448.873 -33.0978 445.112 -37.942 440.955 -42.5118C436.715 -47.1767 432.328 -51.7025 428.584 -56.7829C426.478 -59.6456 424.359 -62.4615 422.124 -65.2253C420.303 -67.4659 417.599 -69.2291 415.396 -71.0584C413.032 -73.0251 410.893 -74.9841 408.909 -77.3338C406.982 -79.6237 405.46 -82.2718 403.448 -84.4745C399.36 -88.9572 394.198 -91.8624 388.586 -93.9751C382.852 -96.1379 376.962 -98.1557 370.744 -97.6361C365.28 -97.1768 359.4 -95.238 354.51 -92.7659C349.1 -90.032 344.536 -86.9211 340.727 -82.142C337.083 -77.5668 332.788 -72.127 330.601 -66.6738C325.877 -54.9092 325.879 -42.0761 322.868 -29.9053C321.492 -24.3307 318.534 -18.7205 314.896 -14.2924C310.908 -9.44451 305.84 -5.83616 301.621 -1.24644C297.81 2.89835 293.7 7.85526 292.103 13.3354C290.288 19.5498 291.215 24.9125 292.994 30.9824C294.381 35.7005 297.363 41.5258 295.316 46.4781C292.967 52.1704 286.797 54.3269 281.406 55.9548C275.643 57.6983 269.571 58.5702 263.728 60.0452C257.851 61.5207 252.246 62.8132 246.139 62.7508C232.938 62.6192 223.405 55.1464 215.077 45.6067C211.13 41.0809 207.796 35.4087 205.037 30.0931C202.326 24.868 200.048 19.5744 198.307 13.9314C197.366 10.8937 196.672 8.16975 194.818 5.57263C192.97 2.99098 190.946 1.11243 188.262 -0.597365C183.076 -3.89337 177.534 -6.50757 173.233 -11.018C168.995 -15.4603 165.485 -20.5779 161.508 -25.2589C157.584 -29.8905 154.222 -35.1862 151.968 -40.8631C149.825 -46.2507 143.911 -50.1792 139.401 -53.4118C134.343 -57.0399 129.286 -60.6646 124.226 -64.2943C118.985 -68.0461 113.491 -71.5384 108.482 -75.5905C103.887 -79.3015 100.314 -84.2327 96.1772 -88.431C87.3775 -97.3624 77.9097 -105.49 72.4291 -117.02C69.8981 -122.346 65.9845 -126.849 61.1484 -130.31C56.0024 -133.989 51.1081 -135.058 44.8658 -134.666C41.7806 -134.475 39.2064 -133.865 36.2862 -132.884C33.176 -131.838 31.5287 -130.852 28.9624 -128.775C24.098 -124.835 20.1983 -119.86 16.4764 -114.87C13.0767 -110.313 9.80919 -104.773 8.35134 -99.2374C6.81367 -93.3937 4.8915 -87.2268 4.74903 -81.139C4.68481 -78.3686 4.45652 -75.4898 5.10231 -72.7784C5.78511 -69.9388 6.71644 -67.1868 7.52187 -64.3891C9.25905 -58.3658 10.6599 -52.4539 11.072 -46.1635C11.2773 -43.0951 11.6023 -39.9289 11.424 -36.8608C11.2553 -33.8341 10.2747 -30.9464 9.41212 -28.065C7.58744 -21.972 5.9465 -15.8278 4.04413 -9.75949C2.17776 -3.78555 0.773736 2.17808 -0.463497 8.30706C-1.67905 14.3391 -4.38426 19.8295 -7.17143 25.2582C-9.96796 30.7053 -14.2222 34.9369 -18.5173 39.1924C-22.9696 43.6054 -26.5846 48.3218 -29.8509 53.6701C-36.5912 64.7186 -44.4453 74.9804 -51.0773 86.1134C-57.6835 97.2092 -64.3563 108.313 -70.1417 119.86C-75.7545 131.061 -81.4494 142.175 -87.3645 153.218C-90.3488 158.789 -93.4549 164.311 -95.7124 170.225C-97.8911 175.919 -98.6725 181.761 -98.4455 187.85C-97.4761 213.889 -85.9251 237.41 -68.7708 256.602C-52.3898 274.925 -32.0188 290.039 -10.9419 302.516C-0.115597 308.92 10.7671 315.763 22.1679 321.103C33.8097 326.556 45.5856 331.773 57.4386 336.746C80.5087 346.411 102.178 359.286 125.865 367.49C137.594 371.55 149.963 375.669 162.417 373.194C168.212 372.04 173.944 371.057 179.407 368.751C185.096 366.35 190.288 363.076 195.499 359.781C200.648 356.522 205.395 352.743 207.198 346.671C208.899 340.944 207.803 334.91 206.745 329.159C204.585 317.415 199.859 304.349 203.322 292.513C205.062 286.578 207.469 281.149 211.502 276.393C215.525 271.649 220.562 268.626 225.585 265.095C230.876 261.374 235.923 258.509 242.075 256.499C244.469 255.715 247.412 255.999 249.932 255.868C253.16 255.702 256.401 255.803 259.636 255.812C265.505 255.829 271.424 254.654 277.164 256.025C283.254 257.476 288.873 260.806 294.684 263.092C305.766 267.455 317.097 273.508 324.728 282.932C328.441 287.518 329.809 293.475 331.052 299.09C331.702 302.017 332.132 305.142 333.348 307.898C334.583 310.689 336.257 313.401 337.96 315.929C341.157 320.681 344.684 325.661 349.804 328.486C354.22 330.923 361.546 330.927 366.214 329.32C374.169 326.566 381.728 322.662 388.792 318.078C396.109 313.328 403.802 309.058 410.879 303.977Z" stroke="#DAE5E8" stroke-width="1.5" stroke-linecap="round" stroke-linejoin="round"/>
<path fill-rule="evenodd" clip-rule="evenodd" d="M385.431 295.409C390.435 292.066 396.047 289.025 399.538 283.949C403.194 278.629 404.009 272.814 404.029 266.513C404.042 261.094 398.701 255.958 394.382 253.394C389.011 250.205 384.248 246.572 379.302 242.763C375.583 239.899 368.832 235.694 369.179 230.361C369.605 223.766 375.522 221.752 380.148 218.266C384.966 214.632 388.618 209.756 393.969 206.775C399.561 203.658 404.922 200.66 409.688 196.358C414.218 192.262 417.691 187.007 422.06 182.731C426.523 178.373 431.808 175.312 437.008 171.958C447.449 165.228 458.186 159.013 468.161 151.588C473.149 147.87 478.251 144.214 482.133 139.279C485.81 134.594 488.892 128.949 490.771 123.297C494.733 111.387 493.434 99.5703 493.104 87.2721C492.942 81.2597 492.958 74.7068 490.925 68.9617C488.816 63.0115 486.541 57.2671 483.398 51.771C477.341 41.1678 468.356 32.3763 460.826 22.8315C456.977 17.9509 453.971 12.9916 450.967 7.57431C447.871 1.99368 444.417 -2.88569 440.255 -7.72195C432.237 -17.0302 424.223 -26.8512 414.444 -34.3937C409.559 -38.1556 404.228 -40.5792 398.896 -43.5895C393.318 -46.735 389.071 -50.7772 385.084 -55.7721C381.438 -60.3396 377.514 -65.4838 371.62 -67.2203C368.859 -68.0341 365.826 -68.4653 362.938 -68.2683C360.51 -68.1027 357.409 -65.9363 355.27 -64.9332C349.795 -62.3557 344.967 -59.0253 341.982 -53.6131C339.016 -48.2481 337.461 -42.2636 335.879 -36.3727C332.776 -24.8584 328.131 -12.3463 319.335 -3.92188C314.767 0.456546 309.989 4.17772 306.546 9.58052C303.569 14.2446 300.874 20.1813 301.321 25.7801C302.168 36.4877 312.175 49.5874 299.928 57.5491C294.796 60.8826 288.893 61.6829 282.928 62.3832C276.569 63.1334 270.491 64.6721 264.235 65.9826C258.098 67.2673 251.979 67.7041 245.725 67.5864C239.825 67.4798 233.842 67.082 228.446 64.4897C223.044 61.8978 218.682 57.3384 214.603 53.0514C210.177 48.3957 206.484 43.1121 202.604 38.0091C195.129 28.1814 189.446 17.1038 181.665 7.53548C177.802 2.78485 172.635 -1.10094 168.33 -5.45913C164.175 -9.65966 160.13 -14.0392 156.191 -18.4453C152.166 -22.9533 148.155 -27.5648 143.767 -31.7266C139.227 -36.0351 135.022 -40.895 130.218 -44.901C125.295 -48.9943 120.268 -52.8243 114.936 -56.3736C109.623 -59.9101 103.913 -62.3202 97.9855 -64.6218C92.2985 -66.8231 86.9219 -69.7862 80.9881 -71.3026C74.851 -72.8705 68.3447 -72.9304 62.0903 -73.9619C56.6633 -74.8607 50.316 -76.6352 45.0526 -74.4292C42.1381 -73.2088 40.8236 -72.4228 39.1701 -69.6589C37.7115 -67.2246 37.2265 -64.4308 36.3352 -61.7631C34.2519 -55.5481 32.8725 -49.2221 31.2286 -42.8886C29.6782 -36.9203 26.6283 -31.4559 23.424 -26.2355C20.0029 -20.6681 17.2517 -14.7115 14.5123 -8.78763C11.9274 -3.19237 9.52104 2.30055 7.9249 8.27197C4.56299 20.8644 -1.16605 32.3317 -9.30185 42.5067C-17.177 52.3565 -23.203 63.1741 -29.7465 73.9175C-36.4334 84.8934 -42.7095 96.3467 -48.5894 107.778C-54.5166 119.294 -60.0663 131.007 -65.8855 142.578C-71.2375 153.222 -77.7229 164.692 -79.6578 176.593C-83.5809 200.783 -75.1774 226.489 -59.647 245.089C-51.2672 255.124 -41.7637 263.593 -31.6841 271.881C-21.9887 279.846 -10.9691 285.531 -0.142407 291.734C5.29208 294.846 10.5985 298.155 16.1353 301.083C21.6955 304.017 27.5203 306.451 33.3339 308.849C44.8976 313.622 56.9011 317.3 68.4341 322.116C79.9385 326.927 90.7048 333.357 102.054 338.539C113.885 343.943 126.049 347.463 138.718 350.294C150.473 352.921 162.488 348.454 173.235 343.945C178.488 341.744 184.315 338.053 186.466 332.5C188.717 326.7 188.07 320.701 188.146 314.614C188.218 308.303 189.555 302.082 190.491 295.856C191.384 289.92 190.735 283.806 193.286 278.205C195.831 272.601 199.613 267.368 202.864 262.159C205.833 257.402 211.282 254.375 216.766 253.616C219.455 253.241 222.204 253.015 224.769 252.089C227.806 250.995 230.789 249.881 233.933 249.145C240.225 247.671 246.285 247.427 252.737 247.424C264.445 247.421 277.103 243.277 288.652 246.756C291.694 247.672 294.667 248.843 297.602 250.06C300.463 251.245 303.007 251.211 306.094 251.041C308.896 250.891 311.185 250.035 313.482 248.415C315.246 247.174 316.805 244.605 318.781 243.854C323.553 242.036 326.909 249.975 328.098 253.14C330.01 258.227 334.767 261.855 336.513 267.049C340.151 277.857 340.831 290.812 351.525 297.382C356.866 300.668 362.82 302.824 369.137 302.001C375.204 301.218 380.187 298.416 385.431 295.409Z" stroke="#DAE5E8" stroke-width="1.5" stroke-linecap="round" stroke-linejoin="round"/>
<path fill-rule="evenodd" clip-rule="evenodd" d="M466.415 135.715C474.337 126.046 479.465 115.014 479.505 102.3C479.525 96.0981 479.178 89.835 478.891 83.6474C478.586 76.9874 476.871 71.2082 474.341 65.0588C469.663 53.6969 462.88 43.4332 455.138 33.9648C447.164 24.2082 440.072 13.9372 431.554 4.62602C423.086 -4.63552 415.203 -13.8593 404.958 -21.2941C399.953 -24.9294 394.775 -28.0703 389.097 -30.548C383.188 -33.1354 377.463 -36.4653 371.404 -38.6731C368.529 -39.7248 365.513 -40.4999 362.422 -40.5418C359.737 -40.5778 356.563 -38.7865 354.149 -37.7381C348.528 -35.3045 345.714 -29.6741 343.016 -24.5148C340.2 -19.1318 337.828 -13.5723 335.16 -8.12514C332.48 -2.63648 328.345 1.45085 324.404 6.00919C320.225 10.8489 315.849 15.368 313.066 21.1977C310.439 26.7004 311.796 31.9118 313.113 37.4954C314.518 43.4477 315.199 49.847 315.665 55.9429C316.101 61.6219 311.491 65.3706 306.534 67.0271C303.821 67.9298 300.463 67.7011 297.645 67.8368C294.737 67.968 291.794 67.9249 288.881 68.0317C282.927 68.2452 277.03 68.704 271.213 70.0358C259.328 72.7536 246.619 73.4685 234.468 72.1571C228.505 71.5122 223.327 68.8714 219.1 64.6776C214.728 60.347 210.091 56.0927 206.249 51.2717C202.144 46.1311 197.99 41.0309 193.889 35.8846C190.037 31.0448 186.812 25.8017 183.377 20.6702C179.893 15.4695 176.21 10.3601 172.017 5.70261C167.942 1.18384 163.207 -2.7615 158.752 -6.90269C153.981 -11.3333 149.44 -15.9476 144.866 -20.5897C140.535 -24.9868 135.332 -28.3681 130.525 -32.2008C125.527 -36.1776 120.969 -39.8558 115.245 -42.7615C109.795 -45.5269 104.278 -48.2948 98.578 -50.5076C86.7873 -55.0851 75.0248 -56.9869 63.0389 -51.862C59.946 -50.5358 57.4299 -49.3055 54.776 -47.2421C52.3586 -45.3664 50.5122 -42.9428 48.7055 -40.5077C44.9953 -35.5268 41.3837 -30.6551 37.2743 -25.9827C28.975 -16.5494 21.3464 -6.14029 16.3763 5.49258C13.895 11.2875 12.1443 17.4021 9.71869 23.2357C7.39529 28.8307 4.32364 34.3125 1.13328 39.4524C-2.38056 45.111 -6.27971 50.5096 -9.7311 56.2028C-13.046 61.6676 -15.8529 67.4565 -18.9507 73.0478C-31.1899 95.1519 -40.647 118.558 -52.1465 141.013C-55.1658 146.901 -58.2472 152.758 -60.8444 158.849C-63.4101 164.858 -64.9686 170.707 -65.9518 177.167C-67.7268 188.82 -66.1238 202.067 -62.5101 213.226C-58.5527 225.436 -52.1123 235.202 -43.117 244.307C-34.1964 253.327 -24.1885 261.367 -13.1665 267.633C-7.6968 270.744 -1.83721 273.195 3.72233 276.146C9.1523 279.036 14.5873 281.845 20.1962 284.379C31.1442 289.323 43.3092 293.115 55.2597 294.274C61.5078 294.876 67.7706 294.734 73.9002 296.166C79.7193 297.529 85.1057 301.987 90.2207 304.95C95.5623 308.048 100.097 311.438 104.789 315.416C109.547 319.445 114.51 323.103 120.136 325.833C125.612 328.492 131.504 329.549 137.381 330.936C143.067 332.282 148.938 334.029 154.842 333.096C160.554 332.192 166.599 329.39 169.797 324.31C172.89 319.403 173.201 313.929 173.098 308.272C172.873 295.804 172.456 283.363 175.155 271.113C175.764 268.34 174.651 267.929 172.122 266.56C169.858 265.336 166.843 264.221 164.245 264.066C161.324 263.894 158.032 265.335 155.239 266.082C152.434 266.828 149.904 268.116 147.527 269.756C145.14 271.4 143.425 273.76 141.159 275.5C138.998 277.165 136.101 278.179 133.611 279.24C130.814 280.428 127.844 281.169 125.036 282.37C122.103 283.62 119.228 284.73 116.191 285.727C110.764 287.506 105.678 286.686 100.96 283.404C96.4914 280.3 91.692 276.391 90.1754 270.934C88.4565 264.738 86.4695 258.576 85.3175 252.243C84.1815 246.016 85.7711 240.287 87.2234 234.253C88.5991 228.549 90.8936 222.866 95.8356 219.416C98.3107 217.687 101.22 216.306 104.025 215.229C106.867 214.137 109.96 213.88 112.862 212.96C124.536 209.258 133.513 199.905 146.096 198.959C151.744 198.535 158.216 200.894 162.765 204.225C167.704 207.835 172.598 211.783 177.177 215.831C179.702 218.061 181.88 219.713 183.318 222.761C184.463 225.193 185.884 227.581 185.895 230.321C185.91 233.376 185.479 236.419 185.514 239.471C185.538 241.587 186.223 245.58 187.273 247.38C188.293 249.124 190.306 249.202 192.122 249.192C195.267 249.168 196.372 248.182 199.044 246.462C203.703 243.455 209.112 239.993 214.865 239.729C217.601 239.601 220.403 240.596 223.173 240.58C226.033 240.563 229.023 240.633 231.863 240.291C238.28 239.525 244.635 239.026 251.094 239.114C257.28 239.199 262.839 238.372 268.9 237.399C274.977 236.426 281.061 235.491 286.841 233.299C292.462 231.173 297.439 227.794 302.093 224.007C306.951 220.054 310.774 215.099 314.947 210.452C319.259 205.658 323.644 201.508 328.732 197.523C333.082 194.114 339.003 192.452 344.399 191.364C350.384 190.152 356.698 190.266 362.774 189.837C366.049 189.607 369.322 189.417 372.593 189.183C375.528 188.971 377.848 187.794 380.357 186.296C382.687 184.903 384.18 182.767 386.262 181.105C388.682 179.169 391.108 177.333 393.787 175.772C399.02 172.725 404.945 171.206 410.17 168.076C414.762 165.327 419.07 162.221 424.057 160.257C429.427 158.141 434.594 155.841 439.749 153.236C444.497 150.832 449.468 148.827 453.896 145.839C458.364 142.827 462.407 139.315 466.415 135.715Z" stroke="#DAE5E8" stroke-width="1.5" stroke-linecap="round" stroke-linejoin="round"/>
<path fill-rule="evenodd" clip-rule="evenodd" d="M455.668 129.261C459.467 124.371 462.718 119.522 464.759 113.617C466.719 107.934 467.205 101.911 467.131 95.9317C467.047 89.5075 466.96 83.2621 465.743 76.9382C464.56 70.8028 461.584 64.9065 458.971 59.2611C456.519 53.9582 453.827 48.4189 450.246 43.7886C446.211 38.5672 442.125 33.3846 438.072 28.1768C430.471 18.4018 421.243 10.4133 412.207 2.03708C403.176 -6.3413 394.325 -15.0925 381.873 -17.7849C376.131 -19.0246 370.263 -19.6459 364.831 -16.8893C359.34 -14.1004 353.321 -11.4647 349.913 -6.0713C346.845 -1.20489 345.775 4.7024 340.765 8.19897C335.702 11.7311 331.249 16.038 328.023 21.3447C321.333 32.3544 322.673 45.2199 323.89 57.5372C324.507 63.8383 321.447 68.2376 316.614 71.8052C314.525 73.3457 311.215 73.9763 308.761 74.7111C306.072 75.5095 302.184 74.6454 299.46 74.4866C293.633 74.1523 287.99 73.012 282.123 73.6455C275.782 74.3255 269.569 75.6242 263.265 76.5085C251.467 78.1634 238.367 79.4406 226.878 75.7351C221.167 73.8906 217.115 69.7061 213.037 65.5232C208.507 60.8729 203.888 56.4424 199.657 51.5136C191.762 42.3084 185.01 32.4101 178.263 22.3666C174.815 17.2271 171.528 11.96 167.36 7.36087C163.064 2.6238 157.782 -1.32656 152.95 -5.49861C143.272 -13.8629 133.109 -21.0806 122.55 -28.2642C117.461 -31.7241 112.228 -33.7213 106.313 -35.3203C100.271 -36.9513 94.6585 -39.9018 88.5346 -41.2232C76.3818 -43.8495 63.3655 -38.7498 54.2036 -30.7971C45.3637 -23.1261 36.6371 -14.0225 29.8869 -4.44563C26.149 0.855347 22.6091 6.13045 20.1725 12.1663C17.7932 18.0833 15.4993 23.9291 12.6848 29.6584C7.16918 40.8849 0.118601 51.2422 -5.56681 62.3636C-11.3935 73.7721 -17.2632 85.1729 -22.3352 96.9453C-27.3417 108.563 -31.0933 120.65 -36.1561 132.245C-38.7007 138.071 -41.2388 143.912 -44.0388 149.621C-46.7811 155.215 -49.5802 160.52 -51.3506 166.529C-54.8542 178.415 -54.913 190.771 -51.5984 202.679C-50.0115 208.389 -48.266 214.327 -45.3209 219.504C-42.2834 224.845 -38.2071 229.192 -33.7949 233.412C-29.0918 237.906 -24.3775 242.383 -19.0479 246.135C-14.2399 249.523 -8.53696 251.983 -3.14278 254.269C2.72836 256.76 8.48798 259.69 14.5543 261.673C20.5035 263.623 26.471 265.53 32.4319 267.444C35.2162 268.337 38.125 269.63 41.0554 269.89C44.1722 270.163 47.407 270.013 50.5234 269.787C56.3922 269.36 61.6638 266.833 64.6248 261.569C67.5701 256.335 67.9973 249.807 70.0682 244.19C72.2626 238.258 74.0804 232.271 73.9994 225.886C73.9253 219.811 73.3352 213.736 73.9284 207.674C74.4754 202.051 75.2933 195.5 81.4847 193.346C84.1849 192.405 87.6158 192.827 90.4017 192.937C93.237 193.048 96.1654 193.59 98.9337 194.195C105.203 195.57 111.357 197.232 117.809 196.186C123.878 195.196 129.314 192.018 135.471 191.151C141.274 190.336 147.155 190.029 152.937 191.188C165.369 193.677 175.339 203.064 185.424 210.238C190.35 213.737 194.834 218.083 200.02 221.181C205.114 224.225 211.233 226.042 216.858 227.855C222.98 229.83 228.76 231.023 235.217 230.964C241.468 230.907 247.754 230.788 254.005 230.625C260.166 230.466 266.292 229.569 272.396 228.725C278.361 227.899 284.327 226.087 289.307 222.605C299.703 215.335 307.536 205.128 315.923 195.761C320.149 191.035 325.103 187.89 330.292 184.332C334.91 181.159 340.155 177.434 345.747 176.362C370.98 171.535 393.292 159.589 416.884 150.017C430.672 144.416 444.376 139.23 455.668 129.261Z" stroke="#DAE5E8" stroke-width="1.5" stroke-linecap="round" stroke-linejoin="round"/>
<path fill-rule="evenodd" clip-rule="evenodd" d="M448.266 118.094C449.8 115.431 451.437 112.791 452.529 109.909C453.73 106.727 454.197 103.483 454.719 100.139C455.672 94.0241 455.579 88.0584 455.03 81.9293C454.501 76.0269 452.474 70.0922 450.246 64.6362C447.895 58.8987 445.239 53.0865 441.664 47.9981C434.621 37.9748 426.338 28.0448 416.842 20.2797C407.521 12.651 396.46 4.58613 384.408 2.24284C378.66 1.12026 373.155 2.81781 368.94 6.89823C364.383 11.306 360.784 15.818 355.242 19.0982C350.098 22.1462 345.129 25.6418 341.098 30.0879C337.004 34.6054 333.956 40.667 331.96 46.3988C330.048 51.9093 331.781 57.8728 330.938 63.5012C330.012 69.7132 327.146 74.58 321.224 77.2605C315.705 79.7632 310.119 81.3142 304 80.5368C297.843 79.7585 291.816 78.5843 285.584 78.5287C273.176 78.4207 260.732 81.9313 248.422 83.2518C242.62 83.8756 236.085 82.9905 230.424 81.6587C224.838 80.3466 219.195 77.9355 215.016 73.8992C210.434 69.468 205.608 65.2249 201.149 60.6722C196.546 55.9614 192.805 50.6227 188.883 45.3546C181.531 35.4885 175.181 24.9707 167.983 15.0039C160.516 4.67719 149.883 -3.02449 139.422 -10.0858C134.196 -13.6158 128.462 -16.3672 122.904 -19.3232C117.682 -22.0953 112.587 -24.6339 106.918 -26.3363C100.751 -28.192 94.6135 -30.2301 88.2916 -31.4761C81.9229 -32.7331 75.9815 -31.3999 69.8734 -29.686C57.9431 -26.3394 49.3003 -16.3949 40.9514 -7.84543C36.4722 -3.25741 32.6558 1.82621 29.0732 7.12366C25.7016 12.1186 23.5962 17.7748 21.1509 23.2404C15.9403 34.872 9.46384 45.8229 3.70603 57.179C-1.96287 68.3611 -7.80068 79.5547 -12.2764 91.2847C-14.5232 97.175 -16.8389 103.038 -18.6494 109.081C-20.4855 115.214 -21.7873 121.485 -24.0027 127.498C-26.2368 133.549 -28.8554 139.429 -30.973 145.528C-32.9178 151.129 -35.6098 156.528 -37.433 162.149C-39.3469 168.049 -40.8166 174.346 -40.7034 180.58C-40.6027 186.397 -40.1466 193.1 -38.1575 198.618C-36.1234 204.252 -33.7196 210.046 -29.2649 214.24C-24.6089 218.613 -19.4138 222.338 -14.4149 226.295C-9.37639 230.291 -4.33555 234.242 1.08746 237.705C6.08901 240.897 11.7843 243.142 17.2639 245.384C23.0182 247.744 28.9569 250.187 35.2004 250.852C37.8441 251.133 41.0887 252.011 43.7372 251.505C46.3899 251.01 49.4028 249.21 51.4921 247.577C60.9921 240.151 61.2509 226.215 62.2576 215.321C62.8359 209.067 62.7736 202.645 63.8191 196.452C64.7852 190.728 66.6491 185.159 72.0894 182.254C77.4019 179.419 82.2124 178.945 88.0725 180.209C93.9417 181.477 99.7073 183.3 105.616 184.39C108.703 184.959 111.725 185.683 114.874 185.623C117.917 185.564 120.812 185.307 123.825 184.93C130.274 184.126 136.637 183.405 143.138 183.103C149.132 182.822 155.457 182.846 161.054 185.273C166.714 187.729 171.82 191.415 176.863 194.931C181.986 198.5 187.046 202.197 192.436 205.354C197.931 208.572 203.808 210.586 209.591 213.182C215.029 215.623 219.702 219.461 225.431 221.292C231.13 223.119 237.21 222.704 243.105 223.039C255.518 223.744 268.56 223.171 280.563 219.805C285.797 218.338 290.744 213.275 294.427 209.524C298.592 205.288 302.651 200.905 306.673 196.534C310.872 191.96 314.863 187.416 319.764 183.573C324.663 179.732 329.37 175.581 334.437 171.97C344.468 164.815 357.562 162.198 369.306 158.978C375.29 157.337 380.933 154.4 386.531 151.777C391.664 149.372 396.975 147.445 402.192 145.239C413.826 140.313 425.222 134.81 435.983 128.176C440.587 125.338 444.469 121.904 448.266 118.094Z" stroke="#DAE5E8" stroke-width="1.5" stroke-linecap="round" stroke-linejoin="round"/>
<path fill-rule="evenodd" clip-rule="evenodd" d="M436.844 111.229C440.274 105.898 442.675 101.158 443.062 94.7074C443.449 88.3165 442.717 82.5411 441.46 76.2782C440.28 70.3407 438.617 64.4484 435.909 59.0215C433.111 53.4064 428.916 48.4557 425.187 43.4379C421.625 38.6366 417.397 34.3916 412.572 30.8607C407.391 27.0784 402.488 23.6182 396.194 22.0026C393.384 21.2788 390.346 20.8992 387.454 20.7024C384.444 20.4924 381.465 21.6465 378.591 22.4222C372.943 23.9492 367.14 25.9022 361.719 28.0871C359.216 29.0974 356.88 29.9885 354.819 31.748C352.22 33.9685 350.243 36.4169 348.15 39.1118C344.423 43.903 340.702 48.7681 339.076 54.6973C337.431 60.7057 337.843 67.1711 336.475 73.2754C335.107 79.3868 330.035 81.9314 324.704 84.0855C319.25 86.2939 312.354 86.7643 306.549 86.2342C300.577 85.6836 294.702 83.686 288.684 83.6882C282.3 83.6889 275.946 84.0129 269.604 84.7919C263.499 85.5423 257.435 87.4901 251.346 87.9267C245.127 88.3757 239.158 87.4573 233.056 86.3995C226.961 85.3448 221.745 83.7494 216.444 80.4825C211.364 77.3507 207.092 72.8065 202.907 68.6027C198.275 63.9522 194.021 59.2742 190.087 54.0158C182.667 44.1101 175.472 34.0865 168.801 23.6596C165.413 18.3604 161.928 13.2482 157.536 8.72802C153.07 4.1369 147.684 0.467502 142.4 -3.09039C132.248 -9.92178 120.157 -14.3834 108.668 -18.3964C102.569 -20.5272 96.2553 -22.1732 89.96 -23.5978C84.1086 -24.9166 78.4548 -24.2128 72.6805 -22.9953C67.3103 -21.8654 61.4677 -18.5594 57.3632 -14.9585C52.6788 -10.8407 47.7261 -6.79482 43.4627 -2.23036C34.335 7.5493 28.4645 18.731 22.7803 30.7272C11.9632 53.549 -0.79544 75.4217 -8.23979 99.6801C-11.8594 111.472 -13.7313 123.703 -17.5235 135.427C-21.335 147.203 -25.5742 159.345 -26.0478 171.813C-26.2562 177.271 -26.2071 183.966 -23.3478 188.843C-20.1621 194.283 -15.5429 198.194 -10.8003 202.282C-5.95267 206.458 -1.04607 210.385 4.18864 214.068C9.34139 217.69 14.0482 221.823 19.919 224.231C22.5568 225.307 25.3762 225.963 28.1877 226.45C30.697 226.885 33.9145 227.859 36.4447 227.303C41.4441 226.203 45.864 220.614 47.5271 216.094C49.6354 210.351 51.3167 204.358 52.6247 198.387C53.9466 192.358 53.7259 186.413 57.9674 181.423C61.7128 177.012 67.2818 173.712 72.8281 172.157C78.5426 170.553 84.0165 171.129 89.8033 172.302C101.869 174.739 113.658 178.875 126.144 177.612C132.554 176.962 138.967 176.219 145.352 175.333C150.93 174.556 156.749 174.35 162.007 176.694C167.73 179.245 172.425 183.608 177.412 187.324C182.579 191.173 188.002 194.507 193.58 197.729C199.176 200.956 204.74 203.351 210.797 205.561C216.322 207.584 221.461 210.493 226.969 212.475C238.76 216.711 251.329 218.155 263.736 216.731C270.107 215.99 275.78 215.101 281.524 212.15C286.732 209.469 290.753 205.031 294.819 200.929C303.625 192.037 311.887 182.567 321.178 174.185C325.531 170.258 329.867 166.002 335.019 163.126C340.173 160.242 345.877 158.354 351.278 155.994C362.971 150.894 374.9 146.475 386.569 141.315C390.922 139.39 395.686 138.489 400.013 136.515C404.701 134.373 409.119 131.558 413.552 128.942C422.102 123.891 429.277 117.597 436.844 111.229Z" stroke="#DAE5E8" stroke-width="1.5" stroke-linecap="round" stroke-linejoin="round"/>
<path fill-rule="evenodd" clip-rule="evenodd" d="M425.119 104.186C426.643 101.521 427.867 99.4086 428.508 96.4168C429.159 93.4032 429.064 90.3219 428.971 87.2654C428.778 81.1527 426.862 75.3412 424.491 69.7907C422.087 64.1752 418.787 58.9231 416.247 53.3611C413.851 48.1233 409.603 43.4608 404.228 41.0985C398.673 38.6478 392.493 37.6978 386.441 37.6936C380.121 37.6935 373.767 37.6709 367.541 38.8715C361.467 40.0423 357.294 44.567 353.317 48.9546C349.29 53.4005 346.598 57.9196 345.536 63.8475C344.479 69.7397 344.957 76.4781 342.371 81.9798C339.706 87.6511 334.082 89.8305 328.569 91.792C317.332 95.7929 304.637 91.3531 293.381 89.5723C287.236 88.597 280.937 89.3165 274.751 89.4999C268.52 89.6899 262.655 90.6467 256.517 91.7123C250.234 92.7967 244.443 92.1595 238.193 91.1914C232.387 90.2901 226.441 89.607 220.928 87.4715C209.207 82.9352 200.471 72.3611 192.448 63.108C184.586 54.0348 177.408 43.9889 170.785 33.9846C167.218 28.6023 163.92 23.0177 160.199 17.743C156.551 12.5677 152.133 8.50528 147.142 4.6605C137.449 -2.80664 125.719 -7.3671 114.109 -10.8805C108.217 -12.6649 102.262 -14.1834 96.3116 -15.757C90.0806 -17.4069 83.9807 -18.714 77.4855 -17.8044C71.8734 -17.008 66.2236 -13.8318 61.7224 -10.5007C56.7334 -6.80755 51.8774 -2.92554 47.4708 1.45781C38.4225 10.4562 32.2064 21.6739 26.6407 33.0487C20.9883 44.6026 15.014 55.9982 10.2298 67.9489C7.86697 73.8471 4.94008 79.5081 2.53403 85.3951C0.246538 90.9984 -1.09248 97.1378 -2.5567 102.996C-5.5843 115.099 -6.62102 127.499 -9.31897 139.642C-10.0737 143.044 -10.8175 146.45 -11.5436 149.857C-12.0727 152.341 -12.7057 155.194 -12.3297 157.733C-11.9397 160.374 -11.8955 163.517 -10.9396 166.032C-9.93383 168.657 -8.02944 171.397 -6.26096 173.569C1.53298 183.149 10.4774 191.558 23.2216 192.797C28.7281 193.332 32.4482 188.965 35.4082 184.984C39.2413 179.836 43.1774 175.863 48.9258 172.889C54.3754 170.067 60.1301 167.601 65.8746 165.451C71.588 163.313 76.9175 163.22 82.8696 164.071C95.2484 165.835 106.845 170.726 119.431 171.506C125.513 171.881 131.513 170.212 137.316 168.646C143.041 167.107 148.925 166.283 154.851 166.617C157.732 166.781 160.618 166.668 163.307 167.822C166.194 169.06 168.867 170.426 171.362 172.361C176.241 176.137 179.931 181.2 184.724 185.09C189.594 189.035 195.352 191.755 200.836 194.732C206.395 197.755 212.245 200.035 218.152 202.261C229.704 206.616 240.96 211.525 253.49 212.008C265.354 212.466 277.887 209.46 286.843 201.403C291.559 197.158 296.409 193.006 300.834 188.457C305.268 183.902 308.746 178.516 312.963 173.769C316.854 169.393 321.179 164.925 325.732 161.242C330.74 157.198 336.074 154.289 341.685 151.191C346.779 148.374 351.874 145.144 357.425 143.292C363.2 141.36 369.115 139.825 374.62 137.184C380.374 134.42 385.878 131.812 391.947 129.798C397.683 127.899 402.671 124.751 407.601 121.291C414.428 116.501 419.951 110.702 425.119 104.186Z" stroke="#DAE5E8" stroke-width="1.5" stroke-linecap="round" stroke-linejoin="round"/>
<path fill-rule="evenodd" clip-rule="evenodd" d="M397.853 114.684C401.769 110.041 405.448 105.186 407.972 99.6163C409.237 96.8187 410.227 93.9551 411.022 90.9917C411.815 88.0302 410.548 85.0678 409.794 82.1464C409.208 79.887 407.107 78.1569 405.547 76.4977C403.224 74.0209 400.861 71.5893 398.475 69.1698C394.293 64.9288 390.831 59.8802 386.306 55.9984C382.667 52.8797 375.711 50.7791 371.105 52.5956C365.496 54.8146 359.993 57.705 357.026 63.2981C355.66 65.8727 354.616 68.8443 354.47 71.7722C354.324 74.7161 354.533 77.6252 353.827 80.5206C352.435 86.2696 347.901 90.7836 343.456 94.3654C339.248 97.7542 333.047 101.654 327.613 102.268C321.864 102.915 316.153 101.617 310.679 99.9417C304.631 98.0973 298.729 96.2447 292.465 95.251C286.471 94.3042 280.363 94.4964 274.308 94.5684C268.104 94.6399 262.078 95.9894 255.929 96.499C250.279 96.9675 244.326 95.9473 238.749 95.1294C232.427 94.2015 226.199 93.4245 220.063 91.5896C214.467 89.9176 209.5 86.1772 205.206 82.3344C200.666 78.2715 196.839 73.612 192.905 68.9847C188.89 64.2744 184.81 59.6658 181.123 54.6911C173.646 44.6107 166.289 34.5716 159.59 23.954C156.194 18.5652 152.917 13.6615 147.871 9.65958C143.183 5.93375 137.878 2.6459 132.414 0.188994C126.416 -2.50543 120.546 -4.71375 114.158 -6.31578C107.875 -7.89499 101.482 -8.98772 95.1596 -10.3998C89.4147 -11.6852 84.1464 -12.9784 78.2528 -11.6962C72.2301 -10.3875 67.0923 -7.24447 62.0936 -3.7716C51.8292 3.35494 43.9598 12.4054 37.319 22.9416C30.6464 33.5294 25.4523 45.2217 20.1557 56.5499C17.3381 62.571 15.0538 68.7662 12.5181 74.9042C10.1034 80.7671 7.73065 86.4945 5.98644 92.6015C2.62063 104.41 0.877017 116.915 0.721442 129.173C0.686413 132.191 0.804798 135.203 0.781724 138.215C0.759738 141.165 0.115037 144.365 0.502151 147.301C0.85519 150.022 1.25146 152.962 2.57203 155.408C4.01043 158.08 6.21818 160.343 8.24478 162.568C12.1488 166.851 16.398 170.337 22.4737 169.782C25.2896 169.529 27.944 168.045 30.619 167.175C33.4011 166.269 36.1656 165.365 38.9796 164.563C44.8785 162.892 50.533 160.666 56.3154 158.658C61.6769 156.802 68.0435 154.705 73.7884 155.444C86.2375 157.048 97.8818 162.252 110.165 164.555C115.851 165.624 122.009 166.098 127.585 164.413C133.504 162.62 139.058 160.688 145.261 160.178C151.356 159.677 157.38 159.092 163.484 159.575C169.535 160.055 173.75 163.54 177.841 167.659C181.885 171.733 184.492 177.112 188.934 180.792C193.833 184.857 199.72 187.564 205.291 190.594C216.307 196.594 228.722 201.173 240.76 204.64C246.4 206.27 252.371 206.992 258.236 206.535C263.797 206.104 270.694 205.205 275.805 202.855C281.018 200.46 285.76 195.995 290.127 192.345C294.993 188.273 299.3 184.117 302.88 178.838C309.815 168.591 317.211 157.621 327.097 149.999C332.118 146.125 337.002 142.119 341.88 138.068C346.352 134.354 352.231 134.055 357.797 133.41C363.363 132.762 369.066 131.36 373.98 128.584C376.67 127.063 379.407 125.224 382.243 124.001C385.024 122.81 387.811 121.647 390.405 120.081C393.076 118.473 395.422 116.634 397.853 114.684Z" stroke="#DAE5E8" stroke-width="1.5" stroke-linecap="round" stroke-linejoin="round"/>
<path fill-rule="evenodd" clip-rule="evenodd" d="M371.227 118.85C376.071 115.269 381.426 111.597 383.909 105.88C384.931 103.528 385.245 100.628 385.386 98.0871C385.568 94.6742 385.013 93.2433 383.262 90.3157C381.196 86.8617 375.837 84.8148 372.731 87.7379C368.462 91.7548 366.155 97.3081 361.436 100.882C357.41 103.933 344.947 108.84 350.466 115.74C352.944 118.842 356.839 120.344 360.617 121.081C364.174 121.772 367.911 120.064 371.227 118.85Z" stroke="#DAE5E8" stroke-width="1.5" stroke-linecap="round" stroke-linejoin="round"/>
<path fill-rule="evenodd" clip-rule="evenodd" d="M299.231 176.404C302.321 171.031 305.678 165.765 308.63 160.318C311.593 154.85 313.862 148.904 317.194 143.643C318.896 140.964 320.98 138.598 322.69 135.937C324.284 133.449 325.214 130.361 325.865 127.503C327.11 122.04 325.283 117.686 321.005 114.42C316.074 110.658 309.844 108.142 304.286 105.444C299.106 102.923 292.528 101.742 286.88 100.79C281.107 99.8174 274.727 99.3583 268.871 99.733C262.571 100.131 256.285 100.896 249.965 100.459C243.652 100.018 237.351 98.6948 231.069 97.9533C225.496 97.2942 219.504 96.5152 214.463 93.858C209.092 91.0254 204.121 87.3542 200.017 82.8498C195.876 78.3072 192.445 73.216 188.37 68.6548C179.903 59.1757 172.243 49.2263 164.772 38.9458C157.608 29.088 152.764 17.5148 142.591 10.2908C132.754 3.30712 120.502 -1.25839 108.654 -3.11898C102.734 -4.05127 96.7871 -4.84746 90.8549 -5.69058C87.9957 -6.1 85.3692 -6.67374 82.5111 -6.20836C79.3158 -5.68639 76.4908 -5.28159 73.5507 -3.91806C62.3831 1.25877 53.3107 8.99505 46.0639 18.9363C42.1326 24.33 38.3214 29.696 35.1389 35.5742C32.1746 41.0504 29.6529 46.7703 27.007 52.4051C21.6839 63.7333 16.977 75.3906 12.9973 87.2688C10.9832 93.2793 9.95712 99.5759 9.03981 105.835C8.24287 111.266 7.47513 117.801 8.39631 123.235C9.38254 129.053 10.1579 135.436 12.7148 140.83C13.9408 143.419 15.1694 146.358 17.6923 147.979C20.2447 149.62 22.9681 150.838 25.8662 151.741C38.0406 155.542 49.967 150.735 62.0154 148.683C74.0307 146.639 86.7031 151.655 97.9014 155.447C103.189 157.234 109.478 159.705 115.129 159.569C118.154 159.493 121.241 159.546 124.207 158.844C127.166 158.142 130.005 157.094 132.936 156.318C139.309 154.63 145.616 154.232 152.124 153.35C157.968 152.557 163.648 151.121 169.475 152.919C181.482 156.623 185.923 170.25 195.309 177.334C205.277 184.858 217.429 189.632 228.752 194.651C234.474 197.195 240.102 199.46 246.257 200.723C251.955 201.888 257.939 201.128 263.602 200.141C267.142 199.523 270.419 198.999 273.704 197.46C276.993 195.921 280.071 194.198 282.959 191.991C289.222 187.209 294.677 182.903 299.231 176.404Z" stroke="#DAE5E8" stroke-width="1.5" stroke-linecap="round" stroke-linejoin="round"/>
<path fill-rule="evenodd" clip-rule="evenodd" d="M291.805 178.664C295.427 173.143 298.23 167.503 300.838 161.438C303.143 156.079 303.881 149.908 303.938 144.093C303.965 141.032 303.681 137.978 303.445 134.925C303.204 131.803 303.393 128.609 303.042 125.502C302.685 122.331 301.951 119.873 300.352 117.102C298.873 114.541 296.422 113.402 293.893 112.06C288.722 109.316 282.85 107.221 277.11 106.092C271.098 104.901 265.066 105.086 258.964 105.052C246.627 104.982 234.113 102.511 221.959 100.515C209.449 98.4579 200.217 89.5631 192.546 80.0669C188.74 75.3635 185.422 70.3866 181.305 65.9078C177.11 61.3477 173.063 56.6096 169.328 51.6628C165.622 46.7513 161.756 41.9124 158.319 36.8057C154.775 31.5366 151.831 25.8802 148.096 20.732C144.644 15.9657 139.889 12.7181 134.653 10.106C129.015 7.29162 123.256 4.68689 117.212 2.87226C111.296 1.10012 105.336 0.84209 99.2283 0.454575C95.9623 0.24965 92.6961 0.0146934 89.4287 -0.184835C86.8232 -0.34644 83.9067 -0.739567 81.3334 -0.194631C68.3717 2.54005 59.4695 10.5935 51.2738 20.5376C47.4955 25.1149 43.3996 29.9348 40.4065 35.0648C37.0697 40.7785 34.1529 46.6668 31.4421 52.6983C26.2736 64.1945 22.207 75.8081 18.3354 87.7938C16.451 93.6329 15.8735 99.6391 15.2368 105.709C14.6646 111.197 15.0593 117.387 17.0308 122.568C19.2001 128.267 21.6025 133.52 26.4838 137.438C30.6208 140.756 36.4225 142.928 41.7972 142.461C48.1765 141.9 54.3947 141.543 60.8058 141.606C66.3592 141.662 72.4913 141.624 77.8834 143.128C84.1854 144.886 90.4335 146.812 96.6703 148.781C102.674 150.677 108.149 152.875 114.453 153.701C119.858 154.409 125.681 152.218 130.792 150.65C136.697 148.831 142.887 148.195 148.975 147.278C152.007 146.822 154.968 146.003 157.936 145.249C160.7 144.55 163.582 144.807 166.399 145.103C172.29 145.716 177.913 148.976 182.308 152.8C186.863 156.768 189.34 162.464 193.606 166.632C198.267 171.185 203.412 174.353 208.909 177.758C214.247 181.069 219.597 184.065 225.252 186.801C230.859 189.511 236.387 192.839 242.404 194.586C260.096 199.728 279.137 190.552 291.805 178.664Z" stroke="#DAE5E8" stroke-width="1.5" stroke-linecap="round" stroke-linejoin="round"/>
<path fill-rule="evenodd" clip-rule="evenodd" d="M282.212 179.622C287.08 175.548 290.382 171.85 292.592 165.808C294.846 159.663 295.448 153.89 295.312 147.39C295.063 135.519 289.655 123.58 279.62 116.93C276.963 115.165 274.146 113.782 271.239 112.475C268.675 111.329 265.602 111.29 262.846 110.971C256.759 110.264 250.735 109.787 244.696 108.616C232.898 106.322 219.695 106.037 208.754 100.728C197.737 95.3924 190.624 83.9776 183.78 74.3985C180.158 69.3326 175.491 65.1777 171.511 60.4085C167.454 55.5385 163.463 50.5969 159.595 45.5744C152.325 36.1409 147.803 23.6798 137.674 16.9016C127.651 10.1958 115.658 5.73283 103.573 5.51969C91.2681 5.30218 78.9307 3.91153 68.1259 10.9671C63.1002 14.2509 59.1996 19.1088 55.418 23.6899C51.2116 28.7807 46.6708 33.6327 42.9695 39.1079C39.4131 44.3753 36.8856 50.4774 34.3751 56.2832C31.9148 61.9707 29.7359 67.6885 27.9426 73.6203C26.1814 79.451 24.3507 85.4561 23.3082 91.4605C22.198 97.8194 21.9415 103.867 22.6665 110.315C23.3014 115.982 26.71 121.713 30.0979 126.125C33.8639 131.029 39.1234 132.635 45.069 132.974C51.2293 133.324 57.4068 133.617 63.5095 134.576C69.4458 135.505 75.4195 135.971 81.2128 137.656C87.4063 139.455 93.5207 141.443 99.617 143.555C105.056 145.441 110.633 147.894 116.506 147.788C122.654 147.671 128.435 144.94 134.382 143.562C140.647 142.117 146.997 141.206 153.155 139.341C156.164 138.428 159.108 137.717 162.197 137.082C165.007 136.508 166.985 137.013 169.712 137.863C175.565 139.696 181.711 141.864 186.707 145.475C191.498 148.94 193.206 155.467 196.826 159.927C198.808 162.367 200.628 164.415 203.177 166.264C205.503 167.953 207.981 169.436 210.371 171.035C215.529 174.473 220.701 177.568 226.173 180.486C231.688 183.424 237.159 187.181 243.212 188.857C248.807 190.412 255.223 190.102 260.901 189.135C267.444 188.022 273.003 185.008 278.687 181.766C279.883 181.085 281.038 180.342 282.212 179.622Z" stroke="#DAE5E8" stroke-width="1.5" stroke-linecap="round" stroke-linejoin="round"/>
<path fill-rule="evenodd" clip-rule="evenodd" d="M276.493 176.183C281.499 172.372 285.341 168.757 286.68 162.322C287.887 156.508 287.196 150.507 285.97 144.725C284.757 138.98 282.303 133.453 278.032 129.34C273.413 124.894 268.623 121.532 262.732 118.987C257.014 116.511 250.622 115.459 244.563 114.124C238.574 112.804 232.615 111.517 226.576 110.413C220.579 109.318 214.324 108.746 208.487 106.959C202.56 105.147 198.261 100.623 194.363 96.0176C190.159 91.0587 186.223 86.2777 182.858 80.6977C179.658 75.3945 175.871 70.561 171.673 66.0081C163.096 56.6956 154.977 47.4704 148.184 36.7654C145.04 31.8048 142.177 26.2719 137.431 22.6314C132.456 18.8208 126.848 16.1157 121.011 13.8733C109.27 9.36847 95.7431 9.87587 83.3901 11.2947C70.5438 12.7631 63.3631 23.0003 55.2345 31.8016C51.0255 36.3606 46.9711 40.7765 43.901 46.2033C40.7184 51.8199 38.0128 57.7203 35.8681 63.8122C33.816 69.6274 32.7202 75.7838 31.5887 81.8296C30.5035 87.6213 29.3149 93.9979 29.7715 99.9035C30.2513 106.097 31.7286 111.417 35.2661 116.549C38.8373 121.733 44.5442 123.525 50.4226 124.642C56.6662 125.826 62.9238 126.907 69.1829 127.982C75.0466 128.987 80.6959 129.647 86.3077 131.729C92.266 133.942 98.1626 136.34 104.185 138.384C107.31 139.448 110.344 140.404 113.612 140.952C116.743 141.479 119.26 141.143 122.408 140.702C128.285 139.875 134.069 137.69 139.859 136.344C145.898 134.937 151.51 132.647 157.363 130.691C162.851 128.853 168.426 129.593 173.958 130.819C180.212 132.201 186.49 133.068 191.472 137.424C196.001 141.378 197.81 146.925 200.71 151.987C203.958 157.647 208.098 161.143 213.399 164.88C218.593 168.538 223.99 171.853 229.702 174.636C235.278 177.356 240.786 180.596 246.81 182.214C251.844 183.568 256.927 183.435 262.021 182.564C267.355 181.654 271.885 178.931 276.493 176.183Z" stroke="#DAE5E8" stroke-width="1.5" stroke-linecap="round" stroke-linejoin="round"/>
<path fill-rule="evenodd" clip-rule="evenodd" d="M270.946 172.852C275.126 168.93 279.151 164.949 278.342 158.742C277.967 155.853 277.187 152.879 276.468 150.057C275.792 147.403 275.432 143.716 274.089 141.349C270.811 135.597 266.439 132.663 260.797 129.472C255.433 126.437 250.596 122.932 244.838 120.622C239.263 118.383 233.503 117.21 227.576 116.385C221.834 115.592 215.34 114.384 209.645 116.227C205.645 117.524 199.603 119.496 200.138 124.955C200.424 127.912 200.477 130.533 201.595 133.325C202.805 136.346 204.289 139.253 205.781 142.143C208.519 147.437 210.807 152.237 215.364 156.276C219.783 160.197 225.181 163.162 230.316 166.037C235.591 168.991 240.929 171.619 246.653 173.585C249.614 174.602 252.626 176.065 255.772 176.059C258.838 176.057 261.819 176.122 264.75 175.148C266.84 174.456 268.905 173.659 270.946 172.852Z" stroke="#DAE5E8" stroke-width="1.5" stroke-linecap="round" stroke-linejoin="round"/>
<path fill-rule="evenodd" clip-rule="evenodd" d="M261.257 167.03C265.922 162.855 267.692 159.111 265.612 153.027C264.765 150.553 264.295 148.141 262.36 146.327C260.107 144.21 257.631 142.546 254.985 140.978C252.64 139.592 250.326 137.712 248.625 135.573C246.764 133.238 245.56 130.366 243.089 128.601C240.425 126.698 238.082 125.283 234.933 124.326C232.06 123.454 228.876 123.77 225.911 123.739C221.047 123.686 215.958 127.569 215.461 132.596C214.918 138.123 218.469 144.494 221.763 148.639C225.599 153.466 230.895 156.325 236.052 159.554C238.491 161.086 240.961 162.529 243.614 163.668C246.245 164.799 248.832 165.202 251.638 165.74C254.714 166.329 258.093 167.341 261.257 167.03Z" stroke="#DAE5E8" stroke-width="1.5" stroke-linecap="round" stroke-linejoin="round"/>
<path fill-rule="evenodd" clip-rule="evenodd" d="M278.295 49.5733C272.3 51.1576 266.241 52.4776 260.345 54.3998C254.784 56.2143 249.078 58.2525 243.149 57.008C231.954 54.6521 220.963 45.3311 215.78 35.2693C214.278 32.3636 213.306 30.2012 212.738 27.0179C212.227 24.14 212.173 21.4219 212.17 18.52C212.169 15.2786 212.229 12.0419 212.232 8.80382C212.234 5.85382 211.727 2.92617 211.788 -0.029544C211.918 -6.58847 214.188 -12.134 215.681 -18.4306C216.343 -21.2188 216.141 -23.7218 215.893 -26.5523C215.667 -29.2056 216.802 -31.9554 217.846 -34.3437C220.117 -39.5181 222.365 -46.5856 226.771 -50.3309C231.083 -53.9955 237.228 -54.7505 242.637 -53.497C248.877 -52.0474 255.149 -50.7591 261.365 -49.1983C264.474 -48.4224 267.575 -47.7025 270.722 -47.0953C273.865 -46.4844 275.672 -46.3973 278.795 -47.0981C282.036 -47.8318 285.231 -48.4068 288.525 -48.8594C291.46 -49.2576 294.01 -48.9191 296.943 -48.5518C299.312 -48.2591 302.24 -47.6635 304.113 -46.0857C306.023 -44.4787 307.375 -40.9 307.813 -38.512C308.347 -35.5844 307.858 -32.4298 307.227 -29.5677C306.63 -26.8653 306.421 -23.85 305.15 -21.3613C302.343 -15.8675 298.648 -11.5911 294.532 -7.0773C287.142 1.0179 282.667 9.8492 283.341 21.0387C283.665 26.4709 285.235 31.6696 285.554 37.0879C285.901 42.9215 282.546 46.1267 278.295 49.5733Z" stroke="#DAE5E8" stroke-width="1.5" stroke-linecap="round" stroke-linejoin="round"/>
<path fill-rule="evenodd" clip-rule="evenodd" d="M153.426 243.38C157.846 239.558 163.363 235.919 165.675 230.34C167.991 224.758 165.164 219.935 161.611 215.571C159.955 213.541 157.574 211.771 155.188 210.729C152.173 209.409 150.23 209.458 146.979 209.882C141.588 210.576 137.3 215.04 134.485 219.522C132.084 223.354 130.845 228.132 129.025 232.269C128.411 233.663 126.829 235.724 127.168 237.239C127.504 238.72 129.027 240.032 130.176 240.896C133.663 243.521 137.979 245.287 142.18 246.446C146.319 247.582 150.1 245.827 153.426 243.38Z" stroke="#DAE5E8" stroke-width="1.5" stroke-linecap="round" stroke-linejoin="round"/>
<path fill-rule="evenodd" clip-rule="evenodd" d="M120.914 244.009C120.126 241.813 117.553 235.91 114.193 239.029C110.689 242.287 119.423 243.924 120.914 244.009Z" stroke="#DAE5E8" stroke-width="1.5" stroke-linecap="round" stroke-linejoin="round"/>
<path fill-rule="evenodd" clip-rule="evenodd" d="M183.865 120.529C186.159 119.088 188.98 117.591 190.317 115.107C191.557 112.806 191.356 110.063 191.05 107.572C190.311 101.585 186.472 97.6138 183.369 92.7158C180.142 87.6302 178.124 81.9212 174.907 76.8278C171.421 71.3038 166.82 66.5947 162.435 61.7665C158.474 57.4042 153.643 53.9869 150.081 49.2281C146.28 44.1444 143.227 38.492 139.816 33.1466C133.592 23.3979 119.965 17.4363 108.761 16.2635C102.401 15.5998 96.0922 15.8481 89.7377 16.3576C84.3818 16.7884 77.8558 18.1809 73.5618 21.6198C68.5466 25.6311 64.2083 29.978 59.7284 34.5554C55.344 39.0309 50.8928 43.382 47.6637 48.8091C44.3744 54.3392 42.0927 60.391 40.0672 66.4677C38.1961 72.0867 38.2451 78.2093 37.901 84.0617C37.548 90.0685 38.4453 96.2163 39.7508 102.052C41.0957 108.05 44.7138 111.819 49.9921 114.637C61.1002 120.558 74.3346 120.378 86.2816 123.278C92.0574 124.68 96.8499 128.358 102.393 130.417C107.813 132.432 114.028 135.322 119.977 134.707C131.272 133.534 142.212 129.863 152.738 125.801C157.665 123.904 162.891 122.383 168.215 122.454C170.808 122.482 173.51 122.867 176.082 122.552C178.704 122.232 181.295 121.143 183.865 120.529Z" stroke="#DAE5E8" stroke-width="1.5" stroke-linecap="round" stroke-linejoin="round"/>
<path d="M175.698 108.9C176.66 106.238 177.863 104.097 177.464 101.293C177.061 98.443 176.344 95.9009 175.599 93.1556C173.963 87.1113 172.091 81.2881 168.465 76.1095C164.76 70.8054 160.853 66.4537 155.815 62.4318C150.742 58.3805 146.387 54.5312 142.525 49.2856C139.151 44.7031 137.304 38.8093 133.479 34.6481C129.129 29.9165 124.262 27.1502 118.242 24.9893C112.161 22.8078 106.002 22.0879 99.5921 21.6821C93.5995 21.3026 87.5983 23.1595 81.9761 24.9764C79.5632 25.7508 77.0011 27.4473 74.9462 28.8848C72.4052 30.6594 69.9188 32.326 67.7284 34.5256C63.3051 38.9737 58.3397 42.9622 54.4934 47.9436C50.6275 52.9475 48.5274 58.6811 46.4331 64.5787C44.3676 70.4054 44.3785 76.0976 44.872 82.1544C45.3704 88.2852 47.1615 93.7763 49.7055 99.3187C52.0732 104.479 57.3315 107.703 62.2589 110.065C73.3336 115.365 86.5413 113.338 97.3275 119.075C102.821 121.995 108.472 124.783 114.445 126.559C120.008 128.215 125.983 127.417 131.604 126.394C143.438 124.234 154.313 118.597 165.576 114.582C169.586 113.149 172.317 111.467 175.7 108.902" stroke="#DAE5E8" stroke-width="1.5" stroke-linecap="round" stroke-linejoin="round"/>
<path fill-rule="evenodd" clip-rule="evenodd" d="M161.608 107.156C165.537 102.713 169.308 98.1557 168.769 91.7714C168.551 89.1617 167.078 85.821 166.058 83.4551C164.805 80.5288 162.942 77.814 161.149 75.2038C157.592 70.0258 152.124 66.9329 146.944 63.5658C142.103 60.4248 137.699 56.745 134.45 51.9312C131.207 47.1259 130.389 40.9145 125.687 37.0376C120.845 33.0448 115.017 31.5777 108.994 30.3413C103.054 29.124 97.434 28.6361 91.5397 30.4273C85.4167 32.2872 79.5611 35.1151 73.9547 38.1505C69.0336 40.8174 64.1576 45.4696 60.6638 49.8119C56.973 54.4027 54.5493 59.9268 53.0006 65.5822C51.3758 71.4955 50.5961 77.0506 52.2822 83.0756C53.9189 88.922 56.8276 94.1867 61.4232 98.2193C65.6206 101.904 71.3385 104.662 76.7627 105.936C79.6401 106.613 82.5359 107.481 85.4948 107.719C88.5903 107.964 91.753 108.132 94.7548 109C100.857 110.763 106.392 114.284 112.34 116.554C117.657 118.588 123.84 119.746 129.548 119.55C141.448 119.132 151.848 113.477 161.608 107.156Z" stroke="#DAE5E8" stroke-width="1.5" stroke-linecap="round" stroke-linejoin="round"/>
<path d="M158.234 98.4082C159.619 95.4699 160.775 93.8605 160.344 90.6944C159.962 87.882 159.696 85.3497 158.047 82.9949C154.478 77.8954 149.893 74.3817 144.009 72.3494C138.255 70.3611 132.57 69.5683 128.409 64.7231C124.674 60.3755 123.587 53.9067 121.189 48.7928C118.703 43.4869 112.529 40.8574 107.155 39.7695C101.06 38.5362 94.8752 40.2961 88.9844 41.8785C83.5622 43.3372 77.1929 44.1481 72.6941 47.799C67.897 51.6893 64.5864 56.2312 62.4414 62.058C60.4263 67.5349 58.4961 73.3241 59.7953 79.1969C60.4188 82.0212 61.608 84.3561 63.2309 86.7516C65.047 89.4415 66.7149 90.6285 69.5403 92.3587C74.7098 95.525 80.5241 97.4667 86.4257 98.7167C92.0673 99.9119 98.1147 99.3827 103.436 101.97C107.909 104.148 112.223 106.883 117.208 107.769C122.305 108.675 127.405 109.55 132.521 110.32C142.946 111.892 151.474 105.564 158.232 98.4066" stroke="#DAE5E8" stroke-width="1.5" stroke-linecap="round" stroke-linejoin="round"/>
<path fill-rule="evenodd" clip-rule="evenodd" d="M115.155 85.9639C118.71 85.5076 113.49 81.2348 113.459 78.7289C113.426 76.4034 112.455 74.2127 112.718 71.8741C113.311 66.5862 110.816 59.8687 106.792 56.391C102.368 52.5747 96.7307 51.7733 91.0856 51.9287C85.0541 52.0944 79.1244 53.2624 75.1509 58.1394C71.4294 62.7199 69.278 68.4022 69.6924 74.2842C69.8593 76.7101 69.7967 79.141 71.6532 80.8136C73.7065 82.6778 75.9514 84.3716 78.5086 85.4839C84.0836 87.9085 89.9413 89.8914 96.0649 90.17C98.9848 90.3013 101.255 89.489 104.032 88.8365C105.318 88.5385 106.622 88.4354 107.848 87.9063C109.175 87.3333 110.399 86.435 111.759 85.9764C112.873 85.6017 114.043 85.5502 115.155 85.9639Z" stroke="#DAE5E8" stroke-width="1.5" stroke-linecap="round" stroke-linejoin="round"/>
</svg>
