<svg width="60" height="57" viewBox="0 0 60 57" fill="none" xmlns="http://www.w3.org/2000/svg">
<path d="M60.28 53.7852L32.1897 1.1128C31.9843 0.783078 31.7174 0.515185 31.3888 0.309111C31.0603 0.103036 30.6907 0 30.28 0C29.8693 0 29.4997 0.103036 29.1712 0.309111C28.8426 0.515185 28.5757 0.783078 28.3704 1.1128L0.280008 53.7852C0.0746681 54.115 -0.017734 54.4756 0.00280015 54.8671C0.0233343 55.2587 0.115736 55.6193 0.280008 55.949C0.485348 56.2787 0.762552 56.5363 1.11163 56.7218C1.46071 56.9073 1.82005 57 2.18966 57H58.3704C58.74 57 59.0993 56.9073 59.4484 56.7218C59.7975 56.5363 60.0747 56.2787 60.28 55.949C60.4443 55.6193 60.5367 55.2587 60.5572 54.8671C60.5777 54.4756 60.4854 54.115 60.28 53.7852ZM33.4217 50.6941H27.1383V44.3265H33.4217V50.6941ZM33.4217 39.5662H27.1383V19.0412H33.4217V39.5662Z" fill="#EE7B04"/>
</svg>
