<?xml version="1.0" encoding="UTF-8"?>
<svg width="18px" height="28px" viewBox="0 0 18 28" version="1.1" xmlns="http://www.w3.org/2000/svg" xmlns:xlink="http://www.w3.org/1999/xlink">
    <!-- Generator: sketchtool 52.2 (67145) - http://www.bohemiancoding.com/sketch -->
    <title>AD8BACA2-7832-4452-97DC-70DFC49E9C4B</title>
    <desc>Created with sketchtool.</desc>
    <g id="Ikoner" stroke="none" stroke-width="1" fill="none" fill-rule="evenodd">
        <g id="10.1.1-Ikoner-samleark" transform="translate(-93.000000, -279.000000)">
            <g id="Page"></g>
            <g id="aktivt-obs-punkt" transform="translate(93.000000, 279.000000)">
                <g id="lokasjonsmarkør/observasjonspunkt">
                    <rect id="Background" x="0" y="0" width="18" height="28"></rect>
                    <g id="location/pin">
                        <rect id="Background" x="0" y="0" width="18" height="28"></rect>
                        <path d="M9,27.0711862 C14.6654126,18.1632591 17.5,12.1049889 17.5,9 C17.5,4.30557963 13.6944204,0.5 9,0.5 C4.30557963,0.5 0.5,4.30557963 0.5,9 C0.5,12.1049889 3.33458739,18.1632591 9,27.0711862 Z" id="Oval" stroke="#326680" fill="#468EB2" fill-rule="nonzero"></path>
                    </g>
                    <g id="icon/12/observation" transform="translate(3.000000, 3.000000)">
                        <rect id="Background" x="0" y="0" width="12" height="12"></rect>
                        <g transform="translate(1.500000, 3.000000)">
                            <rect id="Background" x="0" y="0" width="9" height="6.3"></rect>
                            <path d="M4.46579392,1.89 C4.79518784,1.89 5.08023486,2.01468582 5.32094595,2.2640625 C5.56165703,2.51343918 5.68201014,2.8087479 5.68201014,3.15 C5.68201014,3.4912521 5.56165703,3.78656082 5.32094595,4.0359375 C5.08023486,4.28531418 4.79518784,4.41 4.46579392,4.41 C4.1364,4.41 3.85135297,4.28531418 3.61064189,4.0359375 C3.36993081,3.78656082 3.2495777,3.4912521 3.2495777,3.15 C3.2495777,2.8087479 3.36993081,2.51343918 3.61064189,2.2640625 C3.85135297,2.01468582 4.1364,1.89 4.46579392,1.89 Z M4.46579392,5.2565625 C5.02322959,5.2565625 5.50147622,5.04984577 5.90054838,4.63640688 C6.29962176,4.22296686 6.49915541,3.72750336 6.49915541,3.15 C6.49915541,2.57249664 6.29962176,2.07703314 5.90054838,1.66359312 C5.50147622,1.25015436 5.02322959,1.0434375 4.46579392,1.0434375 C3.90835824,1.0434375 3.43011162,1.25015436 3.03103946,1.66359312 C2.63196608,2.07703314 2.43243243,2.57249664 2.43243243,3.15 C2.43243243,3.72750336 2.63196608,4.22296686 3.03103946,4.63640688 C3.43011162,5.04984577 3.90835824,5.2565625 4.46579392,5.2565625 Z M4.46579392,0 C5.46664378,0 6.37246216,0.28874664 7.18327703,0.86625 C7.99409189,1.44375336 8.57685649,2.20499496 8.93158784,3.15 C8.57685649,4.09500504 7.99409189,4.85624664 7.18327703,5.43375 C6.37246216,6.01125286 5.46664378,6.3 4.46579392,6.3 C3.46494405,6.3 2.55912568,6.01125286 1.74831081,5.43375 C0.937495946,4.85624664 0.354731473,4.09500504 0,3.15 C0.354731473,2.20499496 0.937495946,1.44375336 1.74831081,0.86625 C2.55912568,0.28874664 3.46494405,0 4.46579392,0 Z" id="Fill-1" fill="#FFFFFF" fill-rule="nonzero"></path>
                        </g>
                    </g>
                </g>
            </g>
        </g>
        <g id="Page"></g>
    </g>
</svg>