<svg width="61" height="69" viewBox="0 0 61 69" fill="none" xmlns="http://www.w3.org/2000/svg">
    <ellipse cx="38.3947" cy="52.063" rx="19.8539" ry="9.42088" transform="rotate(-22 38.3947 52.063)" fill="#222222"
        fill-opacity="0.15" />
    <path
        d="M27.4709 62.1322L27.4884 62.1136L27.5048 62.0939C28.9474 60.3629 30.6922 58.0434 32.7369 55.1428C34.7846 52.2379 36.8548 49.1206 38.9475 45.7912C41.0631 42.4256 42.8646 38.8218 44.3529 34.9811C45.8467 31.1262 46.6143 27.6539 46.6143 24.5785C46.6143 18.4779 44.4645 13.261 40.1802 8.97669C35.896 4.69243 30.679 2.5426 24.5785 2.5426C18.4779 2.5426 13.261 4.69243 8.97669 8.97669C4.69243 13.261 2.5426 18.4779 2.5426 24.5785C2.5426 27.657 3.3355 31.1781 4.87585 35.1252C6.4073 39.0496 8.11019 42.5773 9.98686 45.7051C11.8528 48.815 14.0267 52.0155 16.507 55.3068C18.9697 58.5745 20.6932 60.7782 21.6636 61.8942C22.6111 62.9837 23.368 63.8589 23.935 64.5204L24.549 65.2367L25.1956 64.5497L27.4709 62.1322Z"
        fill="white" stroke="#6996A3" stroke-width="4" />
    <path fill-rule="evenodd" clip-rule="evenodd"
        d="M27.2387 45.8179L31.1374 18.2097L33.6229 27.1112L36.8149 15.6794H31.4947H30.4309H24.0469H22.9827H17.6629L17.6629 15.6794H13.4065L16.0665 27.1112L18.0734 18.4863L20.8549 37.5038L23.5055 19.3812L27.2387 45.8179Z"
        fill="#009FD4" />
</svg>