<svg width="61" height="69" viewBox="0 0 61 69" fill="none" xmlns="http://www.w3.org/2000/svg">
    <ellipse cx="38.3947" cy="52.063" rx="19.8539" ry="9.42088" transform="rotate(-22 38.3947 52.063)" fill="#222222"
        fill-opacity="0.15" />
    <path
        d="M27.4709 62.1322L27.4884 62.1136L27.5048 62.0939C28.9474 60.3629 30.6922 58.0434 32.7369 55.1428C34.7846 52.2379 36.8548 49.1206 38.9475 45.7912C41.0631 42.4256 42.8646 38.8218 44.3529 34.9811C45.8467 31.1262 46.6143 27.6539 46.6143 24.5785C46.6143 18.4779 44.4645 13.261 40.1802 8.97669C35.896 4.69243 30.679 2.5426 24.5785 2.5426C18.4779 2.5426 13.261 4.69243 8.97669 8.97669C4.69243 13.261 2.5426 18.4779 2.5426 24.5785C2.5426 27.657 3.3355 31.1781 4.87585 35.1252C6.4073 39.0496 8.11019 42.5773 9.98686 45.7051C11.8528 48.815 14.0267 52.0155 16.507 55.3068C18.9697 58.5745 20.6932 60.7782 21.6636 61.8942C22.6111 62.9837 23.368 63.8589 23.935 64.5204L24.549 65.2367L25.1956 64.5497L27.4709 62.1322Z"
        fill="white" stroke="#6996A3" stroke-width="4" />
    <path fill-rule="evenodd" clip-rule="evenodd"
        d="M36.0597 27.9125L33.4475 28.4104L36.3569 30.0247C36.5968 30.1554 36.7506 30.3491 36.8184 30.6055C36.8862 30.862 36.8523 31.1059 36.7167 31.3373C36.5707 31.5686 36.3674 31.717 36.1067 31.7823C35.846 31.8477 35.5957 31.815 35.3558 31.6843L32.4464 30.085L33.3067 32.499C33.4423 32.8812 33.3797 33.2005 33.119 33.457C32.8583 33.7135 32.5429 33.8166 32.1727 33.7663C31.8025 33.716 31.5496 33.5048 31.4141 33.1327L29.8186 28.6065L25.5796 26.2529V30.9752L28.8331 34.5659C29 34.747 29.0886 34.9431 29.0991 35.1543C29.1095 35.3656 29.0521 35.5491 28.927 35.705C28.8019 35.8609 28.6533 35.9867 28.4812 36.0822C28.3091 36.1778 28.1162 36.2054 27.9024 36.1652C27.6887 36.125 27.4984 36.0143 27.3315 35.8333L25.5796 33.9021V37.1308C25.5796 37.3923 25.4806 37.6186 25.2824 37.8097C25.0843 38.0008 24.8497 38.0964 24.5785 38.0964C24.3074 38.0964 24.0728 38.0008 23.8746 37.8097C23.6765 37.6186 23.5774 37.3923 23.5774 37.1308V33.9021L21.8255 35.8333C21.6587 36.0143 21.4684 36.125 21.2546 36.1652C21.0408 36.2054 20.8479 36.1778 20.6759 36.0822C20.5038 35.9867 20.3552 35.8609 20.2301 35.705C20.1049 35.5491 20.0476 35.3656 20.058 35.1543C20.0684 34.9431 20.1571 34.747 20.3239 34.5659L23.5774 30.9752V26.2529L19.3385 28.6065L17.743 33.1327C17.6074 33.5048 17.3546 33.716 16.9844 33.7663C16.6142 33.8166 16.2987 33.7135 16.038 33.457C15.7773 33.2005 15.7147 32.8812 15.8503 32.499L16.7106 30.085L13.8012 31.6843C13.5614 31.815 13.3111 31.8477 13.0504 31.7823C12.7897 31.717 12.5864 31.5686 12.4404 31.3373C12.3048 31.1059 12.2709 30.862 12.3387 30.6055C12.4065 30.3491 12.5603 30.1554 12.8001 30.0247L15.7095 28.4104L13.0973 27.9125C12.7949 27.8521 12.5759 27.7063 12.4404 27.475C12.3048 27.2436 12.2605 27.0098 12.3074 26.7734C12.3543 26.537 12.4873 26.3359 12.7063 26.1699C12.9253 26.0039 13.186 25.9511 13.4884 26.0115L18.3374 26.9469L22.5764 24.5782L18.3374 22.2095L13.4884 23.1449C13.4467 23.155 13.3789 23.16 13.285 23.16C13.0035 23.16 12.7741 23.0695 12.5968 22.8884C12.4195 22.7074 12.3204 22.5062 12.2996 22.2849C12.2787 22.0637 12.3361 21.8474 12.4716 21.6362C12.6072 21.425 12.8158 21.2942 13.0973 21.2439L15.7095 20.7461L12.8001 19.1317C12.5603 19.001 12.4065 18.8073 12.3387 18.5509C12.2709 18.2944 12.3048 18.0505 12.4404 17.8191C12.5759 17.5878 12.7793 17.4369 13.0504 17.3665C13.3215 17.2961 13.5718 17.3313 13.8012 17.4721L16.7106 19.0714L15.8503 16.6574C15.7147 16.2752 15.7773 15.9559 16.038 15.6994C16.2987 15.4429 16.6142 15.3398 16.9844 15.3901C17.3546 15.4404 17.6074 15.6516 17.743 16.0238L19.3385 20.5499L23.5774 22.9035V18.1812L20.3239 14.5905C20.1571 14.4094 20.0684 14.2133 20.058 14.0021C20.0476 13.7908 20.1049 13.6073 20.2301 13.4514C20.3552 13.2955 20.5038 13.1698 20.6759 13.0742C20.8479 12.9786 21.0408 12.951 21.2546 12.9912C21.4684 13.0315 21.6587 13.1421 21.8255 13.3231L23.5774 15.2543V12.0256C23.5774 11.7641 23.6765 11.5378 23.8746 11.3467C24.0728 11.1556 24.3074 11.0601 24.5785 11.0601C24.8497 11.0601 25.0843 11.1556 25.2824 11.3467C25.4806 11.5378 25.5796 11.7641 25.5796 12.0256V15.2543L27.3315 13.3231C27.4984 13.1421 27.6887 13.0315 27.9024 12.9912C28.1162 12.951 28.3091 12.9786 28.4812 13.0742C28.6533 13.1698 28.8019 13.2955 28.927 13.4514C29.0521 13.6073 29.1095 13.7908 29.0991 14.0021C29.0886 14.2133 29 14.4094 28.8331 14.5905L25.5796 18.1812V22.9035L29.8186 20.5499L31.4141 16.0238C31.5496 15.6516 31.8025 15.4404 32.1727 15.3901C32.5429 15.3398 32.8583 15.4429 33.119 15.6994C33.3797 15.9559 33.4423 16.2752 33.3067 16.6574L32.4464 19.0714L35.3558 17.4721C35.5957 17.3414 35.846 17.3087 36.1067 17.3741C36.3674 17.4394 36.5707 17.5878 36.7167 17.8191C36.8523 18.0505 36.8862 18.2944 36.8184 18.5509C36.7506 18.8073 36.5968 19.001 36.3569 19.1317L33.4475 20.7461L36.0597 21.2439C36.3413 21.2942 36.5498 21.425 36.6854 21.6362C36.821 21.8474 36.8783 22.0637 36.8575 22.2849C36.8366 22.5062 36.7376 22.7074 36.5603 22.8884C36.383 23.0695 36.1536 23.16 35.872 23.16C35.7782 23.16 35.7104 23.155 35.6687 23.1449L30.8197 22.2095L26.5807 24.5782L30.8197 26.9469L35.6687 26.0115C35.9711 25.9511 36.2318 26.0039 36.4508 26.1699C36.6698 26.3359 36.8027 26.537 36.8497 26.7734C36.8966 27.0098 36.8523 27.2436 36.7167 27.475C36.5811 27.7063 36.3621 27.8521 36.0597 27.9125Z"
        fill="#009FD4" />
</svg>