<svg width="61" height="69" viewBox="0 0 61 69" fill="none" xmlns="http://www.w3.org/2000/svg">
    <ellipse cx="38.3947" cy="52.063" rx="19.8539" ry="9.42088" transform="rotate(-22 38.3947 52.063)" fill="#222222"
        fill-opacity="0.15" />
    <path
        d="M27.4709 62.1322L27.4884 62.1136L27.5048 62.0939C28.9474 60.3629 30.6922 58.0434 32.7369 55.1428C34.7846 52.2379 36.8548 49.1206 38.9475 45.7912C41.0631 42.4256 42.8646 38.8218 44.3529 34.9811C45.8467 31.1262 46.6143 27.6539 46.6143 24.5785C46.6143 18.4779 44.4645 13.261 40.1802 8.97669C35.896 4.69243 30.679 2.5426 24.5785 2.5426C18.4779 2.5426 13.261 4.69243 8.97669 8.97669C4.69243 13.261 2.5426 18.4779 2.5426 24.5785C2.5426 27.657 3.3355 31.1781 4.87585 35.1252C6.4073 39.0496 8.11019 42.5773 9.98686 45.7051C11.8528 48.815 14.0267 52.0155 16.507 55.3068C18.9697 58.5745 20.6932 60.7782 21.6636 61.8942C22.6111 62.9837 23.368 63.8589 23.935 64.5204L24.549 65.2367L25.1956 64.5497L27.4709 62.1322Z"
        fill="white" stroke="#6996A3" stroke-width="4" />
    <path fill-rule="evenodd" clip-rule="evenodd"
        d="M37.0788 21.8621C37.1051 21.8858 37.1316 21.9097 37.1585 21.9339C38.0944 22.7729 39.3854 23.8126 41.3864 23.8126V20.6206C40.3859 20.6206 39.7243 20.1464 38.9336 19.435C38.9025 19.4071 38.8713 19.3791 38.8398 19.3508C37.9246 18.5281 36.8436 17.5563 34.7218 17.5563C32.5272 17.5563 31.3653 18.596 30.4455 19.435C29.6709 20.1464 29.1384 20.6206 27.9443 20.6206C26.7607 20.6206 26.243 20.1547 25.464 19.4539L25.443 19.435C24.5232 18.596 23.3775 17.5563 21.1829 17.5563C19.0044 17.5563 17.8425 18.596 16.9227 19.435C16.1481 20.1464 15.6317 20.6206 14.4376 20.6206C13.2694 20.6206 12.7653 20.1667 12.0036 19.481C11.9867 19.4658 11.9697 19.4504 11.9525 19.435C11.0327 18.596 9.70946 17.5563 7.72461 17.5563V20.7483C8.70897 20.7483 9.40286 21.2225 10.1936 21.9339C10.2043 21.9437 10.2151 21.9535 10.2259 21.9634C11.1395 22.7971 12.2525 23.8126 14.4215 23.8126C16.6 23.8126 17.7618 22.7729 18.6816 21.9339L18.7026 21.915C19.4816 21.2141 19.9993 20.7483 21.1829 20.7483C22.3664 20.7483 22.8842 21.2141 23.6631 21.915L23.6841 21.9339C24.6039 22.7729 25.7496 23.8126 27.9443 23.8126C30.1089 23.8126 31.2539 22.7861 32.1866 21.9499L32.2044 21.9339C32.979 21.2225 33.4954 20.7483 34.6895 20.7483C35.8431 20.7483 36.334 21.1908 37.0788 21.8621ZM37.1585 29.3077C38.0945 30.1468 39.3854 31.1864 41.3703 31.1864H41.3864V27.9944C40.3859 27.9944 39.7243 27.5202 38.9336 26.8088C38.9025 26.781 38.8713 26.7529 38.8398 26.7246C37.9246 25.9019 36.8436 24.9301 34.7218 24.9301C32.5272 24.9301 31.3653 25.9698 30.4455 26.8088C29.671 27.5202 29.1384 27.9944 27.9443 27.9944C26.7608 27.9944 26.243 27.5286 25.464 26.8277L25.4431 26.8088C24.5233 25.9698 23.3775 24.9301 21.1829 24.9301C19.0044 24.9301 17.8425 25.9698 16.9227 26.8088C16.1481 27.5202 15.6318 27.9944 14.4376 27.9944C13.2694 27.9944 12.7653 27.5406 12.0036 26.8548C11.9867 26.8396 11.9697 26.8243 11.9525 26.8088C11.0327 25.9698 9.70948 24.9301 7.72463 24.9301V28.1221C8.70899 28.1221 9.40288 28.5963 10.1936 29.3077C10.2043 29.3175 10.2151 29.3273 10.2259 29.3372C11.1396 30.1709 12.2525 31.1864 14.4215 31.1864C16.6 31.1864 17.7618 30.1468 18.6817 29.3077L18.7026 29.2888C19.4816 28.588 19.9994 28.1221 21.1829 28.1221C22.3664 28.1221 22.8842 28.588 23.6631 29.2888L23.6841 29.3077C24.6039 30.1468 25.7497 31.1864 27.9443 31.1864C30.109 31.1864 31.2539 30.1599 32.1866 29.3237L32.2045 29.3077C32.979 28.5963 33.4954 28.1221 34.6896 28.1221C35.8431 28.1221 36.3341 28.5646 37.0789 29.236C37.1051 29.2596 37.1316 29.2835 37.1585 29.3077Z"
        fill="#009FD4" />
</svg>