<?xml version="1.0" encoding="UTF-8"?>
<svg width="18px" height="28px" viewBox="0 0 18 28" version="1.1" xmlns="http://www.w3.org/2000/svg" xmlns:xlink="http://www.w3.org/1999/xlink">
    <!-- Generator: sketchtool 51.3 (57544) - http://www.bohemiancoding.com/sketch -->
    <title>8D0E7ED2-0517-4749-B617-FB2838318765</title>
    <desc>Created with sketchtool.</desc>
    <defs></defs>
    <g id="Ikoner" stroke="none" stroke-width="1" fill="none" fill-rule="evenodd">
        <g id="10.1.1-Ikoner-samleark" transform="translate(-161.000000, -80.000000)">
            <g id="Location-ikoner-[10h-m]" transform="translate(20.000000, 80.000000)">
                <g id="icon/location/snow/colored_small" transform="translate(141.000000, 0.000000)">
                    <path d="M9,27.0711862 C14.6654126,18.1632591 17.5,12.1049889 17.5,9 C17.5,4.30557963 13.6944204,0.5 9,0.5 C4.30557963,0.5 0.5,4.30557963 0.5,9 C0.5,12.1049889 3.33458739,18.1632591 9,27.0711862 Z" id="Oval" stroke="#326680" stroke-width="2" fill="#FFFFFF" fill-rule="nonzero"></path>
                    <path d="M13.6712491,10.3565846 L12.6084441,10.5591524 L13.7921664,11.2159596 C13.8897501,11.2691598 13.9523307,11.3479349 13.9799081,11.4522877 C14.0074856,11.5566406 13.9936976,11.6558771 13.9385413,11.75 C13.8791426,11.8441229 13.7964103,11.9044826 13.6903416,11.931082 C13.584273,11.9576828 13.4824482,11.9443824 13.3848644,11.8911836 L12.2011422,11.240513 L12.551168,12.2226562 C12.6063229,12.3781633 12.5808667,12.5080911 12.474798,12.612444 C12.3687294,12.7167969 12.2403878,12.7587426 12.0897704,12.7382812 C11.9391531,12.7178199 11.8362677,12.6318838 11.7811114,12.4804688 L11.1319735,10.6389505 L9.40730317,9.681362 L9.40730317,11.6026784 L10.7310352,13.0636159 C10.7989189,13.1372771 10.8349827,13.2170755 10.8392251,13.3030134 C10.8434676,13.3889513 10.8201326,13.4636343 10.7692202,13.5270647 C10.7183064,13.5904951 10.6578485,13.6416479 10.5878436,13.6805246 C10.5178373,13.7194012 10.4393475,13.7306549 10.3523713,13.7142857 C10.2653951,13.6979166 10.187966,13.6529021 10.1200823,13.579241 L9.40730317,12.7935274 L9.40730317,14.1071428 C9.40730317,14.2135423 9.36699693,14.3056172 9.28638446,14.3833705 C9.205772,14.4611239 9.11031234,14.5 8.99999979,14.5 C8.88968867,14.5 8.79422758,14.4611239 8.71361512,14.3833705 C8.63300407,14.3056172 8.59269784,14.2135423 8.59269784,14.1071428 L8.59269784,12.7935274 L7.87991871,13.579241 C7.81203505,13.6529021 7.73460586,13.6979166 7.64762969,13.7142857 C7.56065211,13.7306549 7.4821623,13.7194012 7.41215741,13.6805246 C7.34215252,13.6416479 7.28169317,13.5904951 7.23078078,13.5270647 C7.17986697,13.4636343 7.15653343,13.3889513 7.16077589,13.3030134 C7.16501835,13.2170755 7.2010807,13.1372771 7.26896578,13.0636159 L8.59269784,11.6026784 L8.59269784,9.681362 L6.86802752,10.6389505 L6.21888817,12.4804688 C6.16373332,12.6318838 6.06084793,12.7178199 5.91023057,12.7382812 C5.75961179,12.7587426 5.6312702,12.7167969 5.52520154,12.612444 C5.41913316,12.5080911 5.39367697,12.3781633 5.44883296,12.2226562 L5.79885883,11.240513 L4.6151357,11.8911836 C4.51755239,11.9443824 4.41572776,11.9576828 4.30965895,11.931082 C4.20359015,11.9044826 4.12085766,11.8441229 4.0614591,11.75 C4.00630329,11.6558771 3.99251455,11.5566406 4.02009245,11.4522877 C4.04767035,11.3479349 4.11025004,11.2691598 4.20783332,11.2159596 L5.39155588,10.5591524 L4.32875131,10.3565846 C4.20571138,10.3320312 4.1166149,10.2726945 4.0614591,10.1785716 C4.00630329,10.0844487 3.98827186,9.98930425 4.00736425,9.89313675 C4.02645665,9.79696787 4.08055096,9.71512375 4.16964875,9.64760025 C4.25874656,9.58007812 4.36481394,9.55859375 4.48785373,9.58314712 L6.46072415,9.96372788 L8.18539589,9 L6.46072415,8.03627212 L4.48785373,8.41685288 C4.47088275,8.42094487 4.44330518,8.42299087 4.40512046,8.42299087 C4.29056616,8.42299087 4.19722688,8.3861615 4.12510009,8.3125 C4.05297327,8.2388385 4.01266771,8.15699438 4.0041822,8.06696488 C3.99569669,7.976934 4.01903149,7.88895188 4.07418729,7.803013 C4.1293431,7.7170755 4.21419687,7.66387675 4.32875131,7.64341538 L5.39155588,7.44084762 L4.20783332,6.78404037 C4.11025004,6.73084025 4.04767035,6.65206513 4.02009245,6.54771225 C3.99251455,6.44335937 4.00630329,6.34412287 4.0614591,6.25 C4.1166149,6.15587712 4.1993474,6.09449437 4.30965895,6.06584762 C4.41997065,6.03720225 4.52179514,6.05152562 4.6151357,6.10881637 L5.79885883,6.759487 L5.44883296,5.77734375 C5.39367697,5.62183675 5.41913316,5.49190888 5.52520154,5.387556 C5.6312702,5.28320312 5.75961179,5.24125737 5.91023057,5.26171875 C6.06084793,5.28218013 6.16373332,5.36811625 6.21888817,5.51953125 L6.86802752,7.3610495 L8.59269784,8.318638 L8.59269784,6.39732162 L7.26896578,4.93638412 C7.2010807,4.86272262 7.16501835,4.7829245 7.16077589,4.696987 C7.15653343,4.61104812 7.17986697,4.536365 7.23078078,4.47293487 C7.28169317,4.40950475 7.34215252,4.358352 7.41215741,4.31947525 C7.4821623,4.2805985 7.56065211,4.2693455 7.64762969,4.28571487 C7.73460586,4.30208287 7.81203505,4.34709762 7.87991871,4.42075912 L8.59269784,5.20647262 L8.59269784,3.89285675 C8.59269784,3.78645787 8.63300407,3.69438237 8.71361512,3.61662887 C8.79422758,3.53887675 8.88968867,3.5 8.99999979,3.5 C9.11031234,3.5 9.205772,3.53887675 9.28638446,3.61662887 C9.36699693,3.69438237 9.40730317,3.78645787 9.40730317,3.89285675 L9.40730317,5.20647262 L10.1200823,4.42075912 C10.187966,4.34709762 10.2653951,4.30208287 10.3523713,4.28571487 C10.4393475,4.2693455 10.5178373,4.2805985 10.5878436,4.31947525 C10.6578485,4.358352 10.7183064,4.40950475 10.7692202,4.47293487 C10.8201326,4.536365 10.8434676,4.61104812 10.8392251,4.696987 C10.8349827,4.7829245 10.7989189,4.86272262 10.7310352,4.93638412 L9.40730317,6.39732162 L9.40730317,8.318638 L11.1319735,7.3610495 L11.7811114,5.51953125 C11.8362677,5.36811625 11.9391531,5.28218013 12.0897704,5.26171875 C12.2403878,5.24125737 12.3687294,5.28320312 12.474798,5.387556 C12.5808667,5.49190888 12.6063229,5.62183675 12.551168,5.77734375 L12.2011422,6.759487 L13.3848644,6.10881637 C13.4824482,6.05561763 13.584273,6.04231725 13.6903416,6.068918 C13.7964103,6.09551738 13.8791426,6.15587712 13.9385413,6.25 C13.9936976,6.34412287 14.0074856,6.44335937 13.9799081,6.54771225 C13.9523307,6.65206513 13.8897501,6.73084025 13.7921664,6.78404037 L12.6084441,7.44084762 L13.6712491,7.64341538 C13.7858041,7.66387675 13.8706576,7.7170755 13.9258125,7.803013 C13.9809688,7.88895188 14.0043037,7.976934 13.9958188,8.06696488 C13.9873325,8.15699438 13.9470276,8.2388385 13.8749001,8.3125 C13.802774,8.3861615 13.7094341,8.42299087 13.5948805,8.42299087 C13.5566955,8.42299087 13.5291181,8.42094487 13.5121468,8.41685288 L11.5392754,8.03627212 L9.81460512,9 L11.5392754,9.96372788 L13.5121468,9.58314712 C13.6351868,9.55859375 13.741254,9.58007812 13.8303514,9.64760025 C13.9194488,9.71512375 13.9735445,9.79696787 13.9926355,9.89313675 C14.011728,9.98930425 13.9936976,10.0844487 13.9385413,10.1785716 C13.883385,10.2726945 13.7942891,10.3320312 13.6712491,10.3565846 Z" id="Snø" fill="#468EB3" fill-rule="evenodd"></path>
                </g>
            </g>
        </g>
    </g>
</svg>