<?xml version="1.0" encoding="UTF-8"?>
<svg width="18px" height="28px" viewBox="0 0 18 28" version="1.1" xmlns="http://www.w3.org/2000/svg" xmlns:xlink="http://www.w3.org/1999/xlink">
    <!-- Generator: sketchtool 51.3 (57544) - http://www.bohemiancoding.com/sketch -->
    <title>2BB8D425-25DD-49E5-ACA0-D7FD57C42986</title>
    <desc>Created with sketchtool.</desc>
    <defs></defs>
    <g id="Ikoner" stroke="none" stroke-width="1" fill="none" fill-rule="evenodd">
        <g id="10.1.1-Ikoner-samleark" transform="translate(-217.000000, -80.000000)">
            <g id="Location-ikoner-[10h-m]" transform="translate(20.000000, 80.000000)">
                <g id="icon/location/water/water-alt" transform="translate(197.000000, 0.000000)">
                    <path d="M9,27.0711862 C14.6654126,18.1632591 17.5,12.1049889 17.5,9 C17.5,4.30557963 13.6944204,0.5 9,0.5 C4.30557963,0.5 0.5,4.30557963 0.5,9 C0.5,12.1049889 3.33458739,18.1632591 9,27.0711862 Z" id="Oval" stroke="#326680" stroke-width="1" fill="#FFFFFF" fill-rule="nonzero"></path>
                    <path d="M14.9942474,11.5 C14.2866731,11.5 13.8264621,11.1307094 13.4928092,10.8326855 C13.21093,10.580013 13.0383509,10.4115646 12.6126558,10.4115646 C12.1869607,10.4115646 12.0028763,10.580013 11.7267498,10.8326855 C11.3930968,11.1307094 10.9846596,11.5 10.2080537,11.5 C9.42569511,11.5 9.01725791,11.1307094 8.68935762,10.8326855 C8.40747843,10.580013 8.22339406,10.4115646 7.79769895,10.4115646 C7.37200384,10.4115646 7.18791946,10.580013 6.90604027,10.8326855 C6.57813998,11.1307094 6.16395014,11.5 5.3873442,11.5 C4.60498562,11.5 4.20805369,11.1307094 3.8801534,10.8326855 C3.59827421,10.580013 3.35091083,10.4115646 3,10.4115646 L3,9.27777778 C3.7075743,9.27777778 4.17929051,9.64706835 4.5071908,9.94509232 C4.78906999,10.1977648 4.96740173,10.3662132 5.39309684,10.3662132 C5.81879195,10.3662132 6.00287632,10.1977648 6.27900288,9.94509232 C6.60690316,9.64706835 7.021093,9.27777778 7.79769895,9.27777778 C8.58005753,9.27777778 8.98849473,9.64706835 9.31639501,9.94509232 C9.59827421,10.1977648 9.78235858,10.3662132 10.2080537,10.3662132 C10.6337488,10.3662132 10.8235858,10.1977648 11.0997124,9.94509232 C11.4276127,9.64706835 11.8418025,9.27777778 12.6241611,9.27777778 C13.4065197,9.27777778 13.7919463,9.64706835 14.1255992,9.94509232 C14.4074784,10.1977648 14.6433365,10.3662132 15,10.3662132 L15,11.5 L14.9942474,11.5 Z M13.4928092,8.05490768 C13.21093,7.80223518 13.0383509,7.63378685 12.6126558,7.63378685 C12.1869607,7.63378685 12.0028763,7.80223518 11.7267498,8.05490768 C11.3930968,8.35293165 10.9846596,8.72222222 10.2080537,8.72222222 C9.42569511,8.72222222 9.01725791,8.35293165 8.68935762,8.05490768 C8.40747843,7.80223518 8.22339406,7.63378685 7.79769895,7.63378685 C7.37200384,7.63378685 7.18791946,7.80223518 6.90604027,8.05490768 C6.57813998,8.35293165 6.16395014,8.72222222 5.3873442,8.72222222 C4.60498562,8.72222222 4.20805369,8.35293165 3.8801534,8.05490768 C3.59827421,7.80223518 3.35091083,7.63378685 3,7.63378685 L3,6.5 C3.7075743,6.5 4.17929051,6.86929057 4.5071908,7.16731454 C4.78906999,7.41998704 4.96740173,7.58843537 5.39309684,7.58843537 C5.81879195,7.58843537 6.00287632,7.41998704 6.27900288,7.16731454 C6.60690316,6.86929057 7.021093,6.5 7.79769895,6.5 C8.58005753,6.5 8.98849473,6.86929057 9.31639501,7.16731454 C9.59827421,7.41998704 9.78235858,7.58843537 10.2080537,7.58843537 C10.6337488,7.58843537 10.8235858,7.41998704 11.0997124,7.16731454 C11.4276127,6.86929057 11.8418025,6.5 12.6241611,6.5 C13.4065197,6.5 13.7919463,6.86929057 14.1255992,7.16731454 C14.4074784,7.41998704 14.6433365,7.58843537 15,7.58843537 L15,8.72222222 C14.2866731,8.72222222 13.8264621,8.35293165 13.4928092,8.05490768 Z" id="Combined-Shape" fill="#468EB3" fill-rule="evenodd"></path>
                </g>
            </g>
        </g>
    </g>
</svg>