<svg width="282" height="142" viewBox="0 0 282 142" fill="none" xmlns="http://www.w3.org/2000/svg">
<rect x="0.137451" y="37.938" width="243.325" height="65.41" rx="4" fill="white"/>
<path d="M178.738 38.4946H239.243C241.452 38.4946 243.243 40.2855 243.243 42.4946V98.9994C243.243 101.209 241.452 102.999 239.243 102.999H178.738V38.4946Z" fill="#044962"/>
<path d="M210.99 48.8989L215.896 63.9958L231.769 63.9958L218.927 73.3262L223.832 88.423L210.99 79.0927L198.148 88.423L203.053 73.3262L190.211 63.9958L206.085 63.9958L210.99 48.8989Z" fill="#FFCC33"/>
<circle opacity="0.5" cx="210.99" cy="70.7472" r="64.2472" stroke="white" stroke-width="13" stroke-dasharray="4 24"/>
<rect opacity="0.5" x="123.597" y="48.8989" width="43.6968" height="43.6968" fill="#F36000"/>
<rect opacity="0.5" x="68.4553" y="48.8989" width="43.6968" height="43.6968" fill="#75B100"/>
<rect opacity="0.5" x="13.314" y="48.8989" width="43.6968" height="43.6968" fill="#FFCC33"/>
</svg>
