<svg width="209" height="264" viewBox="0 0 209 264" fill="none" xmlns="http://www.w3.org/2000/svg">
<path d="M207.13 188.326C206.274 185.553 203.415 184.042 200.663 184.708L198.109 185.314C196.336 185.768 194.471 186.207 192.682 186.753C191.994 186.92 191.29 187.178 190.602 187.344C189.517 187.632 188.324 187.996 187.239 188.284C186.352 188.511 185.542 188.845 184.655 189.072C183.753 189.391 182.774 189.602 181.872 189.921C180.878 190.224 179.885 190.528 178.983 190.846C178.188 191.089 177.393 191.331 176.582 191.665C175.481 192.044 174.381 192.424 173.372 192.818C172.668 193.076 172.072 193.258 171.369 193.516C170.161 193.971 168.968 194.335 167.76 194.79C167.256 194.987 166.66 195.169 166.155 195.367C164.748 195.883 163.449 196.322 162.042 196.838C161.737 196.975 161.339 197.096 161.033 197.233C159.428 197.809 157.823 198.386 156.202 199.054C156.187 199.145 156.171 199.236 156.171 199.236C155.438 203.057 151.6 206.829 144.873 205.891C142.839 205.644 140.913 205.322 138.895 204.984C123.85 202.467 109.141 198.503 94.9525 193.124L94.769 193.093C96.2062 192.395 97.8269 192.29 99.3405 192.825C114.11 198.114 129.507 201.911 145.072 204.14C150.041 204.877 153.052 202.658 154.077 199.919C154.703 196.174 152.318 191.831 146.325 190.452L115.486 183.132C111.036 182.106 106.816 180.273 103.07 177.862C102.046 177.221 101.113 176.595 100.196 175.878C84.6155 164.726 65.1214 162.309 48.1814 172.809L47.6463 173.189C42.2953 178.115 35.9962 181.944 29.2232 184.661C21.5328 187.787 14.0565 191.325 6.79426 195.275L21.0759 223.769L26.8865 235.259C34.5768 231.005 42.3742 227.803 50.5385 224.662C60.3235 220.853 70.8732 220.364 81.2394 222.099L112.522 227.333C116.191 227.947 119.952 227.45 123.545 226.83L155.729 221.041C159.032 220.467 162.242 219.314 165.331 217.765C178.51 211.144 191.108 203.486 203.4 195.401L204.776 194.505C206.794 193.152 207.879 190.611 207.13 188.326Z" fill="#FFF1D6"/>
<path d="M145.577 107.41C141.295 103.137 136.103 101 130 101C123.897 101 118.705 103.137 114.423 107.41C110.141 111.683 108 116.865 108 122.956C108 126.001 108.787 129.538 110.362 133.566C111.937 137.593 113.685 141.203 115.604 144.396C117.523 147.589 119.763 150.88 122.322 154.269C124.881 157.658 126.653 159.918 127.638 161.047C128.622 162.177 129.409 163.086 130 163.773L132.362 161.268C133.839 159.5 135.635 157.118 137.752 154.122C139.868 151.125 142.009 147.908 144.174 144.47C146.34 141.031 148.186 137.348 149.711 133.418C151.237 129.489 152 126.001 152 122.956C152 116.865 149.859 111.683 145.577 107.41Z" fill="#6996A3"/>
<path fill-rule="evenodd" clip-rule="evenodd" d="M132.484 142.166L135.891 118.04L138.063 125.819L140.852 115.83H136.203H135.273H129.695H128.765H124.116L124.116 115.83H120.397L122.721 125.819L124.475 118.282L126.906 134.901L129.222 119.066L132.484 142.166Z" fill="white"/>
<path d="M145.577 6.40995C141.295 2.13663 136.103 0 130 0C123.897 0 118.705 2.13663 114.423 6.40995C110.141 10.6833 108 15.8652 108 21.9559C108 25.0013 108.787 28.5378 110.362 32.5655C111.937 36.5932 113.685 40.2034 115.604 43.3961C117.523 46.5888 119.763 49.8797 122.322 53.2689C124.881 56.6581 126.653 58.9175 127.638 60.0473C128.622 61.177 129.409 62.0857 130 62.7733L132.362 60.2683C133.839 58.5 135.635 56.1178 137.752 53.1216C139.868 50.1253 142.009 46.9081 144.174 43.4698C146.34 40.0315 148.186 36.3476 149.711 32.4181C151.237 28.4887 152 25.0013 152 21.9559C152 15.8652 149.859 10.6833 145.577 6.40995Z" fill="#6996A3"/>
<path fill-rule="evenodd" clip-rule="evenodd" d="M141.189 19.5685C141.213 19.5897 141.236 19.6111 141.26 19.6327C142.098 20.3837 143.254 21.3144 145.045 21.3144V18.4572C144.149 18.4572 143.557 18.0327 142.849 17.396C142.821 17.3711 142.793 17.3459 142.765 17.3206C141.946 16.5842 140.979 15.7144 139.079 15.7144C137.115 15.7144 136.075 16.645 135.252 17.396C134.558 18.0327 134.082 18.4572 133.013 18.4572C131.953 18.4572 131.49 18.0402 130.793 17.4129L130.774 17.396C129.951 16.645 128.925 15.7144 126.961 15.7144C125.011 15.7144 123.971 16.645 123.147 17.396C122.454 18.0327 121.992 18.4572 120.923 18.4572C119.877 18.4572 119.426 18.051 118.744 17.4372C118.729 17.4235 118.714 17.4098 118.699 17.396C117.875 16.645 116.691 15.7144 114.914 15.7144V18.5715C115.795 18.5715 116.416 18.996 117.124 19.6327C117.134 19.6415 117.144 19.6503 117.153 19.6591C117.971 20.4054 118.967 21.3144 120.909 21.3144C122.859 21.3144 123.899 20.3837 124.722 19.6327L124.741 19.6158C125.438 18.9885 125.901 18.5715 126.961 18.5715C128.02 18.5715 128.484 18.9885 129.181 19.6158L129.2 19.6327C130.023 20.3837 131.048 21.3144 133.013 21.3144C134.95 21.3144 135.975 20.3955 136.81 19.6471L136.826 19.6327C137.519 18.996 137.982 18.5715 139.05 18.5715C140.083 18.5715 140.522 18.9676 141.189 19.5685ZM141.26 26.2327C142.098 26.9837 143.254 27.9143 145.03 27.9143H145.045V25.0572C144.149 25.0572 143.557 24.6327 142.849 23.996C142.821 23.971 142.793 23.9459 142.765 23.9206C141.946 23.1842 140.979 22.3143 139.079 22.3143C137.115 22.3143 136.075 23.2449 135.252 23.996C134.558 24.6327 134.082 25.0572 133.013 25.0572C131.953 25.0572 131.49 24.6402 130.793 24.0129L130.774 23.996C129.951 23.2449 128.925 22.3143 126.961 22.3143C125.011 22.3143 123.971 23.2449 123.147 23.996C122.454 24.6327 121.992 25.0572 120.923 25.0572C119.877 25.0572 119.426 24.6509 118.744 24.0371C118.729 24.0235 118.714 24.0098 118.699 23.996C117.875 23.2449 116.691 22.3143 114.914 22.3143V25.1715C115.795 25.1715 116.417 25.596 117.124 26.2327C117.134 26.2415 117.144 26.2503 117.153 26.2591C117.971 27.0053 118.967 27.9143 120.909 27.9143C122.859 27.9143 123.899 26.9837 124.722 26.2327L124.741 26.2158C125.438 25.5885 125.901 25.1715 126.961 25.1715C128.02 25.1715 128.484 25.5885 129.181 26.2158L129.2 26.2327C130.023 26.9837 131.048 27.9143 133.013 27.9143C134.95 27.9143 135.975 26.9955 136.81 26.247L136.826 26.2327C137.519 25.596 137.982 25.1715 139.05 25.1715C140.083 25.1715 140.522 25.5676 141.189 26.1685C141.213 26.1896 141.236 26.211 141.26 26.2327Z" fill="white"/>
<path d="M94.5772 56.41C90.2953 52.1366 85.1029 50 79 50C72.8971 50 67.7047 52.1366 63.4228 56.41C59.1409 60.6833 57 65.8652 57 71.9559C57 75.0013 57.7875 78.5378 59.3624 82.5655C60.9374 86.5932 62.6846 90.2034 64.604 93.3961C66.5235 96.5888 68.7629 99.8797 71.3221 103.269C73.8814 106.658 75.6532 108.918 76.6376 110.047C77.6219 111.177 78.4094 112.086 79 112.773L81.3624 110.268C82.8389 108.5 84.6353 106.118 86.7517 103.122C88.868 100.125 91.0089 96.9081 93.1745 93.4698C95.3401 90.0315 97.1857 86.3476 98.7114 82.4181C100.237 78.4887 101 75.0013 101 71.9559C101 65.8652 98.8591 60.6833 94.5772 56.41Z" fill="#6996A3"/>
<path fill-rule="evenodd" clip-rule="evenodd" d="M89.2767 74.9844L86.9386 75.43L89.5428 76.875C89.7575 76.9921 89.8951 77.1654 89.9558 77.3949C90.0165 77.6245 89.9861 77.8428 89.8648 78.0499C89.7341 78.257 89.5521 78.3898 89.3188 78.4483C89.0854 78.5068 88.8614 78.4775 88.6467 78.3605L86.0425 76.929L86.8126 79.0897C86.9339 79.4319 86.8779 79.7177 86.6446 79.9473C86.4112 80.1769 86.1289 80.2691 85.7975 80.2241C85.4661 80.1791 85.2398 79.99 85.1184 79.6569L83.6903 75.6056L79.8961 73.4989V77.7258L82.8083 80.9399C82.9576 81.1019 83.037 81.2775 83.0463 81.4665C83.0556 81.6556 83.0043 81.8199 82.8923 81.9594C82.7803 82.099 82.6473 82.2115 82.4933 82.2971C82.3392 82.3826 82.1666 82.4073 81.9752 82.3713C81.7839 82.3353 81.6135 82.2363 81.4642 82.0742L79.8961 80.3457V83.2356C79.8961 83.4697 79.8074 83.6723 79.63 83.8433C79.4527 84.0144 79.2427 84.0999 79 84.0999C78.7573 84.0999 78.5473 84.0144 78.37 83.8433C78.1926 83.6723 78.1039 83.4697 78.1039 83.2356V80.3457L76.5358 82.0742C76.3865 82.2363 76.2161 82.3353 76.0248 82.3713C75.8334 82.4073 75.6608 82.3826 75.5067 82.2971C75.3527 82.2115 75.2197 82.099 75.1077 81.9594C74.9957 81.8199 74.9444 81.6556 74.9537 81.4665C74.963 81.2775 75.0424 81.1019 75.1917 80.9399L78.1039 77.7258V73.4989L74.3097 75.6056L72.8816 79.6569C72.7602 79.99 72.5339 80.1791 72.2025 80.2241C71.8711 80.2691 71.5888 80.1769 71.3554 79.9473C71.1221 79.7177 71.0661 79.4319 71.1874 79.0897L71.9575 76.929L69.3533 78.3605C69.1386 78.4775 68.9146 78.5068 68.6812 78.4483C68.4479 78.3898 68.2659 78.257 68.1352 78.0499C68.0139 77.8428 67.9835 77.6245 68.0442 77.3949C68.1049 77.1654 68.2426 76.9921 68.4572 76.875L71.0614 75.43L68.7233 74.9844C68.4526 74.9304 68.2566 74.7998 68.1352 74.5928C68.0139 74.3857 67.9742 74.1764 68.0162 73.9648C68.0582 73.7532 68.1772 73.5732 68.3732 73.4246C68.5692 73.2761 68.8026 73.2288 69.0733 73.2828L73.4136 74.1201L77.2079 71.9999L73.4136 69.8797L69.0733 70.717C69.0359 70.726 68.9753 70.7305 68.8913 70.7305C68.6392 70.7305 68.4339 70.6495 68.2752 70.4874C68.1165 70.3253 68.0279 70.1453 68.0092 69.9472C67.9905 69.7492 68.0419 69.5556 68.1632 69.3665C68.2846 69.1775 68.4712 69.0604 68.7233 69.0154L71.0614 68.5698L68.4572 67.1248C68.2426 67.0078 68.1049 66.8344 68.0442 66.6049C67.9835 66.3753 68.0139 66.157 68.1352 65.9499C68.2566 65.7428 68.4386 65.6078 68.6812 65.5448C68.9239 65.4817 69.1479 65.5133 69.3533 65.6393L71.9575 67.0708L71.1874 64.9101C71.0661 64.5679 71.1221 64.2821 71.3554 64.0525C71.5888 63.8229 71.8711 63.7307 72.2025 63.7757C72.5339 63.8207 72.7602 64.0098 72.8816 64.3429L74.3097 68.3942L78.1039 70.5009V66.274L75.1917 63.0599C75.0424 62.8979 74.963 62.7223 74.9537 62.5333C74.9444 62.3442 74.9957 62.1799 75.1077 62.0404C75.2197 61.9008 75.3527 61.7883 75.5067 61.7027C75.6608 61.6172 75.8334 61.5925 76.0248 61.6285C76.2161 61.6645 76.3865 61.7635 76.5358 61.9256L78.1039 63.6541V60.7642C78.1039 60.5301 78.1926 60.3275 78.37 60.1565C78.5473 59.9854 78.7573 59.8999 79 59.8999C79.2427 59.8999 79.4527 59.9854 79.63 60.1565C79.8074 60.3275 79.8961 60.5301 79.8961 60.7642V63.6541L81.4642 61.9256C81.6135 61.7635 81.7839 61.6645 81.9752 61.6285C82.1666 61.5925 82.3392 61.6172 82.4933 61.7027C82.6473 61.7883 82.7803 61.9008 82.8923 62.0404C83.0043 62.1799 83.0556 62.3442 83.0463 62.5333C83.037 62.7223 82.9576 62.8979 82.8083 63.0599L79.8961 66.274V70.5009L83.6903 68.3942L85.1184 64.3429C85.2398 64.0098 85.4661 63.8207 85.7975 63.7757C86.1289 63.7307 86.4112 63.8229 86.6446 64.0525C86.8779 64.2821 86.9339 64.5679 86.8126 64.9101L86.0425 67.0708L88.6467 65.6393C88.8614 65.5223 89.0854 65.493 89.3188 65.5515C89.5521 65.61 89.7341 65.7428 89.8648 65.9499C89.9861 66.157 90.0165 66.3753 89.9558 66.6049C89.8951 66.8344 89.7575 67.0078 89.5428 67.1248L86.9386 68.5698L89.2767 69.0154C89.5288 69.0604 89.7154 69.1775 89.8368 69.3665C89.9581 69.5556 90.0095 69.7492 89.9908 69.9472C89.9721 70.1453 89.8835 70.3253 89.7248 70.4874C89.5661 70.6495 89.3608 70.7305 89.1087 70.7305C89.0247 70.7305 88.9641 70.726 88.9267 70.717L84.5864 69.8797L80.7921 71.9999L84.5864 74.1201L88.9267 73.2828C89.1974 73.2288 89.4308 73.2761 89.6268 73.4246C89.8228 73.5732 89.9418 73.7532 89.9838 73.9648C90.0258 74.1764 89.9861 74.3857 89.8648 74.5928C89.7434 74.7998 89.5474 74.9304 89.2767 74.9844Z" fill="white"/>
<path d="M195.577 56.41C191.295 52.1366 186.103 50 180 50C173.897 50 168.705 52.1366 164.423 56.41C160.141 60.6833 158 65.8652 158 71.9559C158 75.0013 158.787 78.5378 160.362 82.5655C161.937 86.5932 163.685 90.2034 165.604 93.3961C167.523 96.5888 169.763 99.8797 172.322 103.269C174.881 106.658 176.653 108.918 177.638 110.047C178.622 111.177 179.409 112.086 180 112.773L182.362 110.268C183.839 108.5 185.635 106.118 187.752 103.122C189.868 100.125 192.009 96.9081 194.174 93.4698C196.34 90.0315 198.186 86.3476 199.711 82.4181C201.237 78.4887 202 75.0013 202 71.9559C202 65.8652 199.859 60.6833 195.577 56.41Z" fill="#6996A3"/>
<path fill-rule="evenodd" clip-rule="evenodd" d="M179.908 63.6238L178.146 62.6873V61.5334L178.526 60.8456C178.526 60.8456 178.274 60.2897 178.735 59.8214C179.197 59.3532 179.908 59.4429 179.908 59.4429L181.64 60.0069L182.326 61.5334L181.64 62.6873L179.908 63.6238ZM171.982 77.4085L175.757 75.2678V72.6303L174.943 71.0583C174.943 71.0583 175.482 69.7877 174.494 68.7173C173.505 67.647 171.982 67.8522 171.982 67.8522L168.269 69.1412L166.8 72.6303L168.269 75.2678L171.982 77.4085ZM181.373 70.4047L178.78 71.4152L176.563 69.9404C176.563 69.9404 176.146 68.7386 176.563 67.5565C176.98 66.3743 178.046 66.067 178.78 66.067C179.012 66.067 179.214 66.053 179.395 66.0404C179.977 66.0001 180.337 65.9751 180.747 66.4819C181.283 67.1461 181.729 68.1507 181.729 68.7411C181.729 69.2695 181.373 70.4047 181.373 70.4047ZM186.755 61.8258L190.211 63.2853C190.211 63.2853 190.686 64.9251 190.686 65.6884C190.686 66.5411 190.092 67.9922 189.376 68.9517C188.831 69.6836 188.35 69.6476 187.575 69.5893C187.333 69.5712 187.064 69.5509 186.755 69.5509C185.775 69.5509 184.355 69.107 183.798 67.3994C183.242 65.6919 183.798 63.956 183.798 63.956L186.755 61.8258ZM187.511 83.1079L182.126 85.1998L177.463 83.1079L175.757 78.0999L178.344 76.2809C178.344 76.2809 179.087 74.3506 180.003 73.5559C180.92 72.7613 183.263 72.0144 183.263 72.0144L187.925 73.8528L190.089 78.6705L188.258 80.6492L187.511 83.1079Z" fill="white"/>
</svg>
