<svg width="61" height="69" viewBox="0 0 61 69" fill="none" xmlns="http://www.w3.org/2000/svg">
<ellipse cx="38.3947" cy="52.0631" rx="19.8539" ry="9.42088" transform="rotate(-22 38.3947 52.0631)" fill="#222222" fill-opacity="0.15"/>
<path d="M39.5809 9.57599C35.457 5.45207 30.4562 3.39014 24.5785 3.39014C18.7007 3.39014 13.6999 5.45207 9.57599 9.57599C5.45207 13.6999 3.39014 18.7007 3.39014 24.5785C3.39014 27.5173 4.14855 30.9302 5.66539 34.8171C7.18224 38.704 8.86496 42.188 10.7136 45.2691C12.5623 48.3501 14.719 51.526 17.1839 54.7967C19.6487 58.0674 21.3552 60.2478 22.3032 61.338C23.2512 62.4283 24.0096 63.3052 24.5785 63.9688L26.8537 61.5514C28.2757 59.8449 30.0059 57.546 32.0441 54.6545C34.0824 51.763 36.1443 48.6583 38.23 45.3402C40.3156 42.0221 42.0932 38.467 43.5626 34.6749C45.0321 30.8828 45.7668 27.5173 45.7668 24.5785C45.7668 18.7007 43.7048 13.6999 39.5809 9.57599Z" fill="#6996A3"/>
<circle opacity="0.5" cx="25" cy="25" r="9" fill="white"/>
</svg>
