<svg id="Layer_1" data-name="Layer 1" xmlns="http://www.w3.org/2000/svg" xmlns:xlink="http://www.w3.org/1999/xlink" viewBox="0 0 512 512">
  <defs>
    <symbol id="Varsom_undetekst_logo_uten_tekst" data-name="Varsom undetekst logo uten tekst" viewBox="0 0 512 512.5">
      <g id="bakgrunn">
        <rect id="BG" width="512" height="512" rx="51.2" style="fill:#ee7b04"/>
        <path id="Grått_felt" data-name="Grått felt" d="M0 353.5h512v107.82a51.19 51.19 0 0 1-51.19 51.18H51.19A51.19 51.19 0 0 1 0 461.32Z" style="fill:#055066"/>
      </g>
      <path id="V_-_liten" data-name="V - liten" style="fill-rule:evenodd;fill:#fff" d="M112 50h85.83l59.8 189.99L316.67 50H400l-98.66 264h-88.99L112 50z"/>
    </symbol>
    <style>
      .cls-4{fill:#fff}
    </style>
  </defs>
  <g id="NO_-REGOBS" data-name="NO -REGOBS">
    <use width="512" height="512.5" xlink:href="#Varsom_undetekst_logo_uten_tekst"/>
    <path class="cls-4" d="M117.2 471.59v-82.92h19.1q21 0 21 24.34a30.75 30.75 0 0 1-2.3 12.46 17.67 17.67 0 0 1-8 8.27l12.81 37.85h-12.56l-11.06-35.4h-7.11v35.4Zm11.88-71.74v25.85h6.76a12 12 0 0 0 5-.87 6.85 6.85 0 0 0 2.91-2.5 11.39 11.39 0 0 0 1.28-4 43.94 43.94 0 0 0 0-11.07 11 11 0 0 0-1.4-4.13c-1.47-2.17-4.27-3.26-8.38-3.26ZM166.82 471.59v-82.92h35.4v11.18H178.7v24.34h20.5v11.18h-20.5v24.34h23.52v11.88ZM209.21 408.23a21.12 21.12 0 0 1 1.75-8.85 18.68 18.68 0 0 1 4.66-6.4 19.6 19.6 0 0 1 6.35-3.73 21.11 21.11 0 0 1 20.78 3.75 19.52 19.52 0 0 1 4.55 6.4 21.27 21.27 0 0 1 1.74 8.85v4.2h-11.88v-4.2q0-4.31-2.38-6.34a8.84 8.84 0 0 0-11.3 0q-2.39 2-2.39 6.34V452c0 2.87.8 5 2.39 6.34a8.84 8.84 0 0 0 11.3 0c1.59-1.35 2.38-3.47 2.38-6.34v-15.58h-9.43v-10.48H249V452a21 21 0 0 1-1.74 9 18.47 18.47 0 0 1-4.55 6.18 19.81 19.81 0 0 1-6.46 3.84A20.67 20.67 0 0 1 222 471a18.55 18.55 0 0 1-6.35-3.84A17.71 17.71 0 0 1 211 461a20.87 20.87 0 0 1-1.75-9ZM258.83 408.23a21.27 21.27 0 0 1 1.74-8.85 18.81 18.81 0 0 1 4.66-6.4 19.7 19.7 0 0 1 6.35-3.73 21.12 21.12 0 0 1 20.79 3.75 19.5 19.5 0 0 1 4.54 6.4 21.12 21.12 0 0 1 1.75 8.85V452a20.87 20.87 0 0 1-1.75 9 18.45 18.45 0 0 1-4.54 6.18 19.91 19.91 0 0 1-6.46 3.84 20.69 20.69 0 0 1-14.33 0 18.64 18.64 0 0 1-6.35-3.84 17.84 17.84 0 0 1-4.66-6.18 21 21 0 0 1-1.74-9ZM270.71 452c0 2.87.79 5 2.38 6.34a8.84 8.84 0 0 0 11.3 0c1.59-1.35 2.39-3.47 2.39-6.34v-43.8q0-4.31-2.39-6.34a8.84 8.84 0 0 0-11.3 0q-2.38 2-2.38 6.34ZM309.14 471.59v-82.92h17.35a24.43 24.43 0 0 1 9.73 1.74 18.43 18.43 0 0 1 6.58 4.66 17.44 17.44 0 0 1 3.67 6.7 27.75 27.75 0 0 1 1.11 7.86v3a26.47 26.47 0 0 1-.53 5.71 13.65 13.65 0 0 1-1.57 4.07 16.26 16.26 0 0 1-6.06 5.59 12.83 12.83 0 0 1 6.17 5.83q2 3.84 2 10.48V449q0 11-5.3 16.77t-16.95 5.82ZM321 399.85v22.83h5.36q5.94 0 8-3c1.35-2 2-4.88 2-8.68s-.75-6.52-2.27-8.39-4.25-2.79-8.21-2.79Zm0 33.31v26.55h5.12a12.5 12.5 0 0 0 5.65-1 7.14 7.14 0 0 0 3.09-2.91 11 11 0 0 0 1.28-4.42c.16-1.71.23-3.57.23-5.59a36.56 36.56 0 0 0-.35-5.48 9.94 9.94 0 0 0-1.39-4 6.82 6.82 0 0 0-3.15-2.39 15.11 15.11 0 0 0-5.24-.75ZM397.19 412.54h-11.88v-2.68a12.69 12.69 0 0 0-1.92-7q-1.92-3-6.47-3a7.49 7.49 0 0 0-4 .93 7.78 7.78 0 0 0-2.44 2.33 9.8 9.8 0 0 0-1.28 3.43 22 22 0 0 0-.35 4c0 1.63.06 3 .17 4.08a7.68 7.68 0 0 0 .88 2.91 6.35 6.35 0 0 0 2 2.21 18.46 18.46 0 0 0 3.67 1.87l9.09 3.61a22.46 22.46 0 0 1 6.4 3.55 15.48 15.48 0 0 1 3.85 4.72 22.15 22.15 0 0 1 1.74 6.34 63 63 0 0 1 .47 8.1 42.53 42.53 0 0 1-1.05 9.72 20.35 20.35 0 0 1-3.38 7.63 16.68 16.68 0 0 1-6.4 5.13 22.66 22.66 0 0 1-9.67 1.86 21.09 21.09 0 0 1-8-1.51 19 19 0 0 1-6.41-4.2 20.26 20.26 0 0 1-4.25-6.23 18.86 18.86 0 0 1-1.57-7.74v-4.43h11.88v3.73a9.72 9.72 0 0 0 1.92 5.88q1.92 2.63 6.46 2.62a10.48 10.48 0 0 0 4.72-.87A6.28 6.28 0 0 0 384 457a9.06 9.06 0 0 0 1.1-3.9c.12-1.51.18-3.2.18-5.06a51.77 51.77 0 0 0-.23-5.36 9.47 9.47 0 0 0-.93-3.38 6.78 6.78 0 0 0-2.16-2.1 28.12 28.12 0 0 0-3.55-1.74l-8.5-3.5q-7.69-3.14-10.31-8.32a28.64 28.64 0 0 1-2.62-13 29.88 29.88 0 0 1 1.28-8.85 20 20 0 0 1 3.84-7.22 17.71 17.71 0 0 1 6.23-4.84 20.9 20.9 0 0 1 9-1.8 19.62 19.62 0 0 1 8.09 1.63 20.84 20.84 0 0 1 6.35 4.31 18 18 0 0 1 5.36 12.81Z"/>
  </g>
</svg>