<svg width="68" height="68" viewBox="0 0 68 68" fill="none" xmlns="http://www.w3.org/2000/svg">
<circle cx="34" cy="34" r="34" fill="white"/>
<circle cx="34" cy="34" r="34" fill="#DAE5E8" fill-opacity="0.5"/>
<path d="M34 68C15.2 68 0 52.7 0 34C0 15.2 15.3 0 34 0C52.8 0 68 15.3 68 34C68 52.8 52.8 68 34 68ZM34 3C16.9 3 3 16.9 3 34C3 51.1 16.9 65 34 65C51.1 65 65 51.1 65 34C65 16.9 51.1 3 34 3Z" fill="#044962"/>
<path d="M22.5 27.7997C24.3225 27.7997 25.8 26.3222 25.8 24.4997C25.8 22.6772 24.3225 21.1997 22.5 21.1997C20.6774 21.1997 19.2 22.6772 19.2 24.4997C19.2 26.3222 20.6774 27.7997 22.5 27.7997Z" fill="#044962"/>
<path d="M45.5 27.7997C47.3225 27.7997 48.8 26.3222 48.8 24.4997C48.8 22.6772 47.3225 21.1997 45.5 21.1997C43.6774 21.1997 42.2 22.6772 42.2 24.4997C42.2 26.3222 43.6774 27.7997 45.5 27.7997Z" fill="#044962"/>
<path d="M50.5999 52.5997C49.7999 52.5997 49.0999 51.8997 49.0999 51.0997C49.0999 45.6997 42.4999 41.1997 34.4999 41.1997C26.4999 41.1997 19.8999 45.5997 19.8999 51.0997C19.8999 51.8997 19.1999 52.5997 18.3999 52.5997C17.5999 52.5997 16.8999 51.8997 16.8999 51.0997C16.8999 43.8997 24.6999 38.1997 34.4999 38.1997C44.3999 38.1997 52.0999 43.7997 52.0999 51.0997C52.0999 51.8997 51.3999 52.5997 50.5999 52.5997Z" fill="#044962"/>
</svg>
