<svg width="68" height="68" viewBox="0 0 68 68" fill="none" xmlns="http://www.w3.org/2000/svg">
<circle cx="34" cy="34" r="34" fill="white"/>
<circle cx="34" cy="34" r="34" fill="#DAE5E8" fill-opacity="0.5"/>
<path d="M34 68C15.2 68 0 52.7 0 34C0 15.2 15.3 0 34 0C52.8 0 68 15.3 68 34C68 52.8 52.8 68 34 68ZM34 3C16.9 3 3 16.9 3 34C3 51.1 16.9 65 34 65C51.1 65 65 51.1 65 34C65 16.9 51.1 3 34 3Z" fill="#044962"/>
<path d="M22.5 27.8002C24.3225 27.8002 25.7999 26.3227 25.7999 24.5002C25.7999 22.6777 24.3225 21.2002 22.5 21.2002C20.6774 21.2002 19.2 22.6777 19.2 24.5002C19.2 26.3227 20.6774 27.8002 22.5 27.8002Z" fill="#044962"/>
<path d="M45.5 27.8002C47.3225 27.8002 48.8 26.3227 48.8 24.5002C48.8 22.6777 47.3225 21.2002 45.5 21.2002C43.6774 21.2002 42.2 22.6777 42.2 24.5002C42.2 26.3227 43.6774 27.8002 45.5 27.8002Z" fill="#044962"/>
<path d="M51.0998 43.1993L17.4194 49.138C16.6316 49.277 15.8206 48.7091 15.6817 47.9213C15.5428 47.1335 16.1106 46.3225 16.8985 46.1836L50.4804 40.2622C51.2683 40.1233 52.0792 40.6911 52.2181 41.479C52.357 42.2668 51.8877 43.0604 51.0998 43.1993Z" fill="#044962"/>
</svg>
