<svg width="68" height="68" viewBox="0 0 68 68" fill="none" xmlns="http://www.w3.org/2000/svg">
<circle cx="34" cy="34" r="34" fill="white"/>
<circle cx="34" cy="34" r="34" fill="#DAE5E8" fill-opacity="0.5"/>
<path d="M34 68C15.2 68 0 52.7 0 34C0 15.2 15.3 0 34 0C52.8 0 68 15.3 68 34C68 52.8 52.8 68 34 68ZM34 3C16.9 3 3 16.9 3 34C3 51.1 16.9 65 34 65C51.1 65 65 51.1 65 34C65 16.9 51.1 3 34 3Z" fill="#044962"/>
<path d="M22.5 27.8002C24.3225 27.8002 25.8 26.3227 25.8 24.5002C25.8 22.6777 24.3225 21.2002 22.5 21.2002C20.6774 21.2002 19.2 22.6777 19.2 24.5002C19.2 26.3227 20.6774 27.8002 22.5 27.8002Z" fill="#044962"/>
<path d="M45.5 27.8002C47.3225 27.8002 48.8 26.3227 48.8 24.5002C48.8 22.6777 47.3225 21.2002 45.5 21.2002C43.6774 21.2002 42.2 22.6777 42.2 24.5002C42.2 26.3227 43.6774 27.8002 45.5 27.8002Z" fill="#044962"/>
<path d="M34 53.9998C23.2 53.9998 14.5 46.6998 14.5 37.7998C14.5 36.9998 15.2 36.2998 16 36.2998C16.8 36.2998 17.5 36.9998 17.5 37.7998C17.5 45.0998 24.9 50.9998 34 50.9998C43.1 50.9998 50.5 45.0998 50.5 37.7998C50.5 36.9998 51.2 36.2998 52 36.2998C52.8 36.2998 53.5 36.9998 53.5 37.7998C53.5 46.6998 44.8 53.9998 34 53.9998Z" fill="#044962"/>
</svg>
