<svg width="68" height="68" viewBox="0 0 68 68" fill="none" xmlns="http://www.w3.org/2000/svg">
<circle cx="34" cy="34" r="34" fill="white"/>
<path fill-rule="evenodd" clip-rule="evenodd" d="M34 68C52.7777 68 68 52.7777 68 34C68 15.2223 52.7777 0 34 0C15.2223 0 0 15.2223 0 34C0 52.7777 15.2223 68 34 68ZM15 38.6001C15 49.1001 23.5 57.6001 34 57.6001C44.5 57.6001 53 49.1001 53 38.6001C53 37.8001 52.3 37.1001 51.5 37.1001H16.5C15.7 37.1001 15 37.8001 15 38.6001Z" fill="#DAE5E8" fill-opacity="0.5"/>
<path d="M34 68C15.2 68 0 52.7 0 34C0 15.2 15.3 0 34 0C52.8 0 68 15.3 68 34C68 52.8 52.8 68 34 68ZM34 3C16.9 3 3 16.9 3 34C3 51.1 16.9 65 34 65C51.1 65 65 51.1 65 34C65 16.9 51.1 3 34 3Z" fill="#044962"/>
<path d="M22.5 27.8002C24.3225 27.8002 25.7999 26.3227 25.7999 24.5002C25.7999 22.6777 24.3225 21.2002 22.5 21.2002C20.6774 21.2002 19.2 22.6777 19.2 24.5002C19.2 26.3227 20.6774 27.8002 22.5 27.8002Z" fill="#044962"/>
<path d="M45.5 27.8002C47.3225 27.8002 48.7999 26.3227 48.7999 24.5002C48.7999 22.6777 47.3225 21.2002 45.5 21.2002C43.6774 21.2002 42.2 22.6777 42.2 24.5002C42.2 26.3227 43.6774 27.8002 45.5 27.8002Z" fill="#044962"/>
<path d="M34 57.6001C23.5 57.6001 15 49.1001 15 38.6001C15 37.8001 15.7 37.1001 16.5 37.1001H51.5C52.3 37.1001 53 37.8001 53 38.6001C53 49.1001 44.5 57.6001 34 57.6001ZM18.1 40.1001C18.9 48.2001 25.7 54.6001 34 54.6001C42.3 54.6001 49.2 48.2001 49.9 40.1001H18.1Z" fill="#044962"/>
</svg>
