<svg width="68" height="68" viewBox="0 0 68 68" fill="none" xmlns="http://www.w3.org/2000/svg">
<circle cx="34" cy="34" r="34" fill="white"/>
<path fill-rule="evenodd" clip-rule="evenodd" d="M34 68C52.7777 68 68 52.7777 68 34C68 15.2223 52.7777 0 34 0C15.2223 0 0 15.2223 0 34C0 52.7777 15.2223 68 34 68ZM15 38.6001C15 49.1001 23.5 57.6001 34 57.6001C44.5 57.6001 53 49.1001 53 38.6001C53 37.8001 52.3 37.1001 51.5 37.1001H16.5C15.7 37.1001 15 37.8001 15 38.6001Z" fill="#DAE5E8" fill-opacity="0.5"/>
<path d="M34 68C15.2 68 0 52.7 0 34C0 15.2 15.3 0 34 0C52.8 0 68 15.3 68 34C68 52.8 52.8 68 34 68ZM34 3C16.9 3 3 16.9 3 34C3 51.1 16.9 65 34 65C51.1 65 65 51.1 65 34C65 16.9 51.1 3 34 3Z" fill="#044962"/>
<path d="M34 57.6001C23.5 57.6001 15 49.1001 15 38.6001C15 37.8001 15.7 37.1001 16.5 37.1001H51.5C52.3 37.1001 53 37.8001 53 38.6001C53 49.1001 44.5 57.6001 34 57.6001ZM18.1 40.1001C18.9 48.2001 25.7 54.6001 34 54.6001C42.3 54.6001 49.2 48.2001 49.9 40.1001H18.1Z" fill="#044962"/>
<path d="M26.5001 27.8001C25.7001 27.8001 25.0001 27.1001 25.0001 26.3001C25.0001 24.0001 22.9001 22.1001 20.3001 22.1001C17.7001 22.1001 15.6001 24.0001 15.6001 26.3001C15.6001 27.1001 14.9001 27.8001 14.1001 27.8001C13.3001 27.8001 12.6001 27.1001 12.6001 26.3001C12.6001 22.3001 16.1001 19.1001 20.3001 19.1001C24.5001 19.1001 28.0001 22.3001 28.0001 26.3001C28.0001 27.1001 27.4001 27.8001 26.5001 27.8001Z" fill="#044962"/>
<path d="M53.9 27.8001C53.1 27.8001 52.4 27.1001 52.4 26.3001C52.4 24.0001 50.3 22.1001 47.7 22.1001C45.1 22.1001 43 23.9001 43 26.3001C43 27.1001 42.3 27.8001 41.5 27.8001C40.7 27.8001 40 27.1001 40 26.3001C40 22.3001 43.5 19.1001 47.7 19.1001C51.9 19.1001 55.4 22.3001 55.4 26.3001C55.4 27.1001 54.7 27.8001 53.9 27.8001Z" fill="#044962"/>
</svg>
