<!-- Generated by IcoMoon.io -->
<svg version="1.1" xmlns="http://www.w3.org/2000/svg" width="32" height="32" viewBox="0 0 32 32">
<title>mfcl</title>
<path d="M7.141 13.781q0-1.063 0.398-2t1.102-1.641 1.648-1.102 2.023-0.398q1.219 0 2.258 0.508t1.742 1.398q0.734-0.891 1.797-1.398t2.281-0.508q1.094 0 2.031 0.398t1.641 1.102 1.102 1.648 0.398 1.992q0 0.984-0.336 1.852t-0.922 1.539-1.391 1.141-1.727 0.594q0.344 0.906 0.344 1.891 0 1.063-0.414 2t-1.117 1.641-1.648 1.125-2.039 0.422q-1.063 0-2-0.422t-1.641-1.125-1.102-1.648-0.398-1.992q0-1.063 0.313-1.891-0.922-0.125-1.727-0.594t-1.375-1.141-0.906-1.531-0.336-1.859zM9.438 13.781q0 0.609 0.227 1.141t0.609 0.914 0.914 0.609 1.125 0.227q1.219 0 2.039-0.836t0.82-2.055q0-1.188-0.82-2.016t-2.039-0.828q-0.609 0-1.133 0.227t-0.906 0.609-0.609 0.906-0.227 1.102zM13.469 20.797q0 1.188 0.836 2.016t2.008 0.828q1.219 0 2.070-0.828t0.852-2.016q0-1.219-0.852-2.055t-2.070-0.836q-1.188 0-2.016 0.836t-0.828 2.055zM17.469 13.906q0.063 1.156 0.898 1.961t2.023 0.805q1.219 0 2.047-0.836t0.828-2.055q0-1.188-0.836-2.016t-2.039-0.828q-1.188 0-2.023 0.797t-0.898 1.953v0.219z"></path>
</svg>
