<!-- Generated by IcoMoon.io -->
<svg version="1.1" xmlns="http://www.w3.org/2000/svg" width="25" height="32" viewBox="0 0 25 32">
<title>mfcr</title>
<path d="M-0 16.003q0-1.478 0.559-2.776t1.529-2.268 2.265-1.529 2.779-0.559q0.811 0 1.59 0.187t1.485 0.538 1.318 0.824 1.097 1.059q0.49-0.586 1.103-1.059t1.318-0.824 1.478-0.538 1.597-0.187q1.478 0 2.776 0.559t2.268 1.529 1.529 2.265 0.559 2.779q0 1.478-0.559 2.776t-1.529 2.265-2.268 1.526-2.776 0.559q-0.824 0-1.597-0.187t-1.478-0.531-1.318-0.824-1.103-1.066q-0.49 0.586-1.1 1.066t-1.315 0.824-1.488 0.531-1.587 0.187q-1.478 0-2.776-0.559t-2.268-1.526-1.529-2.265-0.559-2.776zM1.001 16.003q0 1.267 0.484 2.384t1.311 1.945 1.945 1.311 2.391 0.484q0.797 0 1.563-0.238t1.468-0.678 1.332-1.059 1.127-1.376q0.504 0.756 1.124 1.376t1.332 1.059 1.481 0.678 1.56 0.238q1.267 0 2.377-0.484t1.941-1.311 1.311-1.945 0.48-2.384-0.48-2.377-1.311-1.941-1.941-1.311-2.377-0.48q-0.797 0-1.563 0.235t-1.478 0.668-1.332 1.052-1.124 1.376q-0.504-0.756-1.131-1.376t-1.328-1.052-1.471-0.668-1.56-0.235q-1.267 0-2.387 0.48t-1.948 1.311-1.311 1.938-0.484 2.381zM3.351 16.003q0-0.783 0.293-1.475t0.807-1.199 1.206-0.807 1.475-0.3 1.471 0.3 1.195 0.807 0.811 1.199 0.303 1.475-0.303 1.471-0.811 1.199-1.199 0.811-1.468 0.3q-0.783 0-1.475-0.3t-1.206-0.811-0.807-1.199-0.293-1.471zM4.353 16.003q0 0.572 0.215 1.073t0.593 0.879 0.889 0.593 1.083 0.215 1.073-0.215 0.879-0.593 0.593-0.879 0.215-1.073-0.215-1.083-0.593-0.886-0.882-0.593-1.069-0.218q-0.572 0-1.083 0.218t-0.889 0.593-0.593 0.886-0.215 1.083z"></path>
</svg>
